<svg xmlns="http://www.w3.org/2000/svg" width="42" height="41" viewBox="0 0 42 41"><defs><style>.a{fill:#f9ea07;}.b{fill:#197baa;stroke:#197baa;}</style></defs><g transform="translate(0.398 0.359)"><ellipse class="a" cx="21" cy="20.5" rx="21" ry="20.5" transform="translate(-0.398 -0.359)"/><g transform="translate(8.042 8.028)"><g transform="translate(0 0)"><g transform="translate(0 0)"><path class="b" d="M9.207,187.187l-2.9,2.9a3.075,3.075,0,1,1-4.35-4.349l5.8-5.8a3.075,3.075,0,0,1,4.349,0,1.025,1.025,0,0,0,1.45-1.45,5.125,5.125,0,0,0-7.248,0l-5.8,5.8a5.126,5.126,0,0,0,7.25,7.249l2.9-2.9a1.025,1.025,0,1,0-1.45-1.45Z" transform="translate(0.993 -168.433)"/><path class="b" d="M203.863.5a5.126,5.126,0,0,0-7.25,0l-3.479,3.479a1.025,1.025,0,1,0,1.45,1.45l3.479-3.479a3.075,3.075,0,0,1,4.35,4.349l-6.379,6.379a3.075,3.075,0,0,1-4.349,0,1.025,1.025,0,0,0-1.45,1.45,5.125,5.125,0,0,0,7.248,0l6.379-6.379A5.125,5.125,0,0,0,203.863.5Z" transform="translate(-180.76 1)"/></g></g></g></g></svg>