<svg xmlns="http://www.w3.org/2000/svg" xmlns:xlink="http://www.w3.org/1999/xlink" width="234.807" height="188.174" viewBox="0 0 234.807 188.174">
  <defs>
    <clipPath id="clip-path">
      <path id="Path_113" data-name="Path 113" d="M931.962,991.071c.03-.479-.08.948,0,0-1.532-58.378,36.727-78.669,72.569-83.12,36.132-4.487,64.109-33.506,119.464-10.638s54.05,122.544,12.625,156.611-85.839,24.1-122.816,8.5S934.729,1038.214,931.962,991.071Z" transform="translate(-9.285 48.218)" fill="#fff"/>
    </clipPath>
  </defs>
  <g id="Group_166" data-name="Group 166" transform="translate(-922.633 -936.847)">
    <path id="Path_119" data-name="Path 119" d="M931.962,991.071c.03-.479-.08.948,0,0-1.532-58.378,36.727-78.669,72.569-83.12,36.132-4.487,64.109-33.506,119.464-10.638s54.05,122.544,12.625,156.611-85.839,24.1-122.816,8.5S934.729,1038.214,931.962,991.071Z" transform="translate(-9.285 48.218)" fill="#fff"/>
    <g id="Mask_Group_3" data-name="Mask Group 3" clip-path="url(#clip-path)">
      <g id="high-five" transform="translate(963.02 968.126)">
        <g id="Group_2" data-name="Group 2" transform="translate(122.499 148.32)">
          <g id="Group_1" data-name="Group 1">
            <path id="Path_1" data-name="Path 1" d="M411.56,492.883a3.013,3.013,0,1,0,.883,2.131A3.034,3.034,0,0,0,411.56,492.883Z" transform="translate(-406.414 -492)" fill="#197baa"/>
          </g>
        </g>
        <g id="Group_4" data-name="Group 4" transform="translate(56.633)">
          <g id="Group_3" data-name="Group 3">
            <path id="Path_2" data-name="Path 2" d="M283.519,50.6a11.789,11.789,0,0,0-7.736-4.984,11.921,11.921,0,0,0-12.525,6.073V19.881A11.68,11.68,0,0,0,245.774,9.736a11.687,11.687,0,0,0-23.045,0,11.679,11.679,0,0,0-17.427,9,11.681,11.681,0,0,0-17.374,10.208,3.015,3.015,0,1,0,6.029,0,5.659,5.659,0,0,1,11.288-.586V36.4a3.015,3.015,0,1,0,6.029,0V19.881a5.659,5.659,0,0,1,11.288-.586V42.749c0,.138.031,1.14.031,1.14a3.015,3.015,0,1,0,6.029,0V19.881c0-.27-.013-.537-.031-.8v-7.39a5.659,5.659,0,1,1,11.319,0v7.39c-.018.265-.031.532-.031.8v42.4a3.015,3.015,0,0,0,6.029,0l.031-42.982a5.66,5.66,0,0,1,11.289.586V64.474A4.293,4.293,0,0,0,265.69,65.5l2.346-9.572a5.851,5.851,0,0,1,11.423,2.525l-4.542,23.033A39.355,39.355,0,0,1,264.058,101.8l-9.378,9.351a3.014,3.014,0,0,0-.886,2.135v26.89a3.015,3.015,0,0,0,6.029,0V114.542l8.492-8.468a45.364,45.364,0,0,0,12.518-23.426l4.542-23.033A11.792,11.792,0,0,0,283.519,50.6Z" transform="translate(-187.927)" fill="#197baa"/>
          </g>
        </g>
        <g id="Group_6" data-name="Group 6" transform="translate(68.891 93.152)">
          <g id="Group_5" data-name="Group 5">
            <path id="Path_3" data-name="Path 3" d="M249.089,309a3.015,3.015,0,0,0-3.015,3.015v8.841a36.8,36.8,0,0,1-10.888,26.232l-5.712,5.7a3.013,3.013,0,0,0-.886,2.135v12.264a3.015,3.015,0,0,0,6.029,0V356.17l4.826-4.812a42.786,42.786,0,0,0,12.66-30.5v-8.842A3.015,3.015,0,0,0,249.089,309Z" transform="translate(-228.588 -309)" fill="#197baa"/>
          </g>
        </g>
        <g id="Group_8" data-name="Group 8" transform="translate(86.377 82.45)">
          <g id="Group_7" data-name="Group 7">
            <path id="Path_4" data-name="Path 4" d="M291.739,274.383a3.013,3.013,0,1,0,.883,2.131A3.037,3.037,0,0,0,291.739,274.383Z" transform="translate(-286.593 -273.5)" fill="#197baa"/>
          </g>
        </g>
        <g id="Group_10" data-name="Group 10" transform="translate(0 32.123)">
          <g id="Group_9" data-name="Group 9">
            <path id="Path_5" data-name="Path 5" d="M81.283,122.819a11.117,11.117,0,0,0-5.217,1.295,11.184,11.184,0,0,0-16.44-8.481,11.188,11.188,0,0,0-21.974,0,11.187,11.187,0,0,0-16.524,9.834V154.8a11.408,11.408,0,0,0-11.661-5.247,11.371,11.371,0,0,0-9.181,13.4l4.281,21.708a42.927,42.927,0,0,0,11.846,22.168l7.952,7.93v11.012a3.015,3.015,0,0,0,6.029,0V213.5a3.015,3.015,0,0,0-.886-2.135l-8.838-8.813a36.917,36.917,0,0,1-10.188-19.065L6.2,161.784a5.341,5.341,0,0,1,10.427-2.3L18.84,168.5a4.219,4.219,0,0,0,8.317-1V125.467a5.16,5.16,0,0,1,10.292-.541v22.093a3.015,3.015,0,0,0,3.015,3.015h.029a3.015,3.015,0,0,0,3.015-3.015V125.467c0-.256-.012-.51-.029-.762v-6.959a5.161,5.161,0,1,1,10.322,0V124.7c-.017.252-.029.506-.029.762v21.552a3.015,3.015,0,0,0,3.015,3.015h.029a3.015,3.015,0,0,0,3.015-3.015V124.926a5.16,5.16,0,0,1,10.292.541l-.029,21.552a3.015,3.015,0,0,0,3.015,3.015h.029a3.015,3.015,0,0,0,3.015-3.015V133.468a5.161,5.161,0,0,1,10.293.541v14.082a3.015,3.015,0,1,0,6.029,0V134.009A11.2,11.2,0,0,0,81.283,122.819Z" transform="translate(-0.067 -106.556)" fill="#197baa"/>
          </g>
        </g>
        <g id="Group_12" data-name="Group 12" transform="translate(23.819 0.008)">
          <g id="Group_11" data-name="Group 11">
            <path id="Path_6" data-name="Path 6" d="M100.118,16.8,84.223.909a3.015,3.015,0,0,0-4.264,4.263l15.9,15.9a3.015,3.015,0,1,0,4.263-4.263Z" transform="translate(-79.076 -0.026)" fill="#197baa"/>
          </g>
        </g>
        <g id="Group_14" data-name="Group 14" transform="translate(23.826 24.865)">
          <g id="Group_13" data-name="Group 13">
            <path id="Path_7" data-name="Path 7" d="M89.472,82.481H82.116a3.015,3.015,0,1,0,0,6.029h7.356a3.015,3.015,0,1,0,0-6.029Z" transform="translate(-79.101 -82.481)" fill="#197baa"/>
          </g>
        </g>
        <g id="Group_16" data-name="Group 16" transform="translate(48.538)">
          <g id="Group_15" data-name="Group 15">
            <path id="Path_8" data-name="Path 8" d="M164.089,0a3.015,3.015,0,0,0-3.015,3.015v7.6a3.015,3.015,0,1,0,6.029,0v-7.6A3.015,3.015,0,0,0,164.089,0Z" transform="translate(-161.074 0)" fill="#197baa"/>
          </g>
        </g>
      </g>
    </g>
  </g>
</svg>
