<svg xmlns="http://www.w3.org/2000/svg" xmlns:xlink="http://www.w3.org/1999/xlink" width="41" height="41" viewBox="0 0 41 41"><defs><style>.a{fill:#197baa;}.b{fill:#f9ea07;}.c{clip-path:url(#a);}</style><clipPath id="a"><path class="a" d="M30.069,82.081c-.852-1.515-1.776-1.794-3.659-1.9C24.53,80.053,19.8,80,15.706,80s-8.834.053-10.713.179c-1.878.108-2.8.385-3.664,1.9C.451,83.594,0,86.2,0,90.789V90.8C0,95.374.451,98,1.329,99.5c.86,1.515,1.784,1.79,3.662,1.918,1.88.11,6.61.175,10.714.175s8.824-.065,10.707-.173c1.882-.128,2.807-.4,3.659-1.918.885-1.5,1.333-4.124,1.333-8.693v-.016C31.4,86.2,30.956,83.594,30.069,82.081Z" transform="translate(0 -80)"/></clipPath></defs><g transform="translate(0.155)"><circle class="b" cx="20.5" cy="20.5" r="20.5" transform="translate(-0.155)"/><g transform="translate(4.713 10.149)"><g class="c" transform="translate(0)"><path class="a" d="M26.572,5.5a11.358,11.358,0,0,1-3.139.86,5.417,5.417,0,0,0,2.4-3.011,10.887,10.887,0,0,1-3.454,1.319,5.447,5.447,0,0,0-9.423,3.725,5.609,5.609,0,0,0,.126,1.242A15.419,15.419,0,0,1,1.85,3.937a5.449,5.449,0,0,0,1.674,7.281,5.38,5.38,0,0,1-2.461-.671v.06a5.473,5.473,0,0,0,4.365,5.353A5.437,5.437,0,0,1,4,16.139a4.817,4.817,0,0,1-1.031-.093,5.5,5.5,0,0,0,5.09,3.795A10.946,10.946,0,0,1,1.3,22.164,10.2,10.2,0,0,1,0,22.089a15.336,15.336,0,0,0,8.357,2.445,15.4,15.4,0,0,0,15.505-15.5c0-.241-.008-.473-.02-.7A10.868,10.868,0,0,0,26.572,5.5Z" transform="translate(2.416 -2.944)"/></g></g></g></svg>