<svg xmlns="http://www.w3.org/2000/svg" width="41.173" height="41.173" viewBox="0 0 41.173 41.173"><defs><style>.a{fill:#fff;}.b{fill:#197baa;}</style></defs><path class="a" d="M20.592,0h-.01A20.574,20.574,0,0,0,3.919,32.653L1.354,40.3l7.913-2.53A20.583,20.583,0,1,0,20.592,0Z"/><path class="b" d="M127.977,133.213c-.5,1.4-2.468,2.566-4.04,2.905-1.076.229-2.481.412-7.21-1.549-6.05-2.506-9.946-8.654-10.249-9.053s-2.445-3.255-2.445-6.209a6.572,6.572,0,0,1,2.1-5.01,2.991,2.991,0,0,1,2.1-.739c.255,0,.484.013.69.023.6.026.908.062,1.307,1.016.5,1.2,1.706,4.151,1.85,4.454a1.225,1.225,0,0,1,.087,1.114,3.558,3.558,0,0,1-.666.944c-.3.35-.592.618-.9.993-.278.327-.592.677-.242,1.282a18.272,18.272,0,0,0,3.34,4.151,15.135,15.135,0,0,0,4.828,2.977,1.3,1.3,0,0,0,1.451-.229,24.915,24.915,0,0,0,1.608-2.131,1.149,1.149,0,0,1,1.477-.448c.556.193,3.5,1.647,4.1,1.948s1,.448,1.15.7A5.127,5.127,0,0,1,127.977,133.213Z" transform="translate(-95.666 -104.426)"/></svg>