<?xml version="1.0" encoding="UTF-8"?>
<svg width="30px" height="30px" viewBox="0 0 30 30" version="1.1" xmlns="http://www.w3.org/2000/svg" xmlns:xlink="http://www.w3.org/1999/xlink">
    <!-- Generator: sketchtool 50.2 (55047) - http://www.bohemiancoding.com/sketch -->
    <title>F3D07C56-932B-48CF-A4A5-8B643A5C6270</title>
    <desc>Created with sketchtool.</desc>
    <defs>
        <path d="M15,0 C6.76829268,0 0,6.76829268 0,15 C0,23.2317073 6.76829268,30 15,30 C23.2317073,30 30,23.2317073 30,15 C30,6.76829268 23.2317073,0 15,0 Z M22.0243902,16.3902439 L16.3902439,16.3902439 L16.3902439,22.0243902 C16.3902439,22.8292683 15.7682927,23.4146341 15,23.4146341 C14.2317073,23.4146341 13.6097561,22.7926829 13.6097561,22.0243902 L13.6097561,16.3902439 L7.97560976,16.3902439 C7.17073171,16.3902439 6.58536585,15.7682927 6.58536585,15 C6.58536585,14.2317073 7.17073171,13.6097561 7.97560976,13.6097561 L13.6097561,13.6097561 L13.6097561,7.97560976 C13.6097561,7.17073171 14.2317073,6.58536585 15,6.58536585 C15.7682927,6.58536585 16.3902439,7.20731707 16.3902439,7.97560976 L16.3902439,13.6097561 L22.0243902,13.6097561 C22.8292683,13.6097561 23.4146341,14.2317073 23.4146341,15 C23.4146341,15.7682927 22.7926829,16.3902439 22.0243902,16.3902439 Z" id="path-1"></path>
    </defs>
    <g id="Components-" stroke="none" stroke-width="1" fill="none" fill-rule="evenodd">
        <g id="Components---Desktop" transform="translate(-841.000000, -1666.000000)">
            <g id="House-members-" transform="translate(521.000000, 1265.000000)">
                <g id="button/dashboard/action" transform="translate(185.000000, 389.000000)">
                    <g id="icon/add-roundel" transform="translate(135.000000, 12.000000)">
                        <g id="add-(1)">
                            <mask id="mask-2" fill="white">
                                <use xlink:href="#path-1"></use>
                            </mask>
                            <use id="Shape" fill="#FFFFFF" fill-rule="nonzero" xlink:href="#path-1"></use>
                            <g id="fill/task/white" mask="url(#mask-2)" fill="#F9EA09">
                                <rect id="Rectangle" x="0" y="0" width="30" height="30"></rect>
                            </g>
                        </g>
                    </g>
                </g>
            </g>
        </g>
    </g>
</svg>
