<?xml version="1.0" encoding="UTF-8" standalone="no"?>
<svg
   xmlns:dc="http://purl.org/dc/elements/1.1/"
   xmlns:cc="http://creativecommons.org/ns#"
   xmlns:rdf="http://www.w3.org/1999/02/22-rdf-syntax-ns#"
   xmlns:svg="http://www.w3.org/2000/svg"
   xmlns="http://www.w3.org/2000/svg"
   xmlns:xlink="http://www.w3.org/1999/xlink"
   xmlns:sodipodi="http://sodipodi.sourceforge.net/DTD/sodipodi-0.dtd"
   xmlns:inkscape="http://www.inkscape.org/namespaces/inkscape"
   width="30px"
   height="30px"
   viewBox="0 0 30 30"
   version="1.1"
   id="svg1466"
   sodipodi:docname="add-roundel.svg"
   inkscape:version="0.92.3 (2405546, 2018-03-11)">
  <metadata
     id="metadata1470">
    <rdf:RDF>
      <cc:Work
         rdf:about="">
        <dc:format>image/svg+xml</dc:format>
        <dc:type
           rdf:resource="http://purl.org/dc/dcmitype/StillImage" />
      </cc:Work>
    </rdf:RDF>
  </metadata>
  <sodipodi:namedview
     pagecolor="#ffffff"
     bordercolor="#666666"
     borderopacity="1"
     objecttolerance="10"
     gridtolerance="10"
     guidetolerance="10"
     inkscape:pageopacity="0"
     inkscape:pageshadow="2"
     inkscape:window-width="1578"
     inkscape:window-height="984"
     id="namedview1468"
     showgrid="false"
     inkscape:zoom="7.8666667"
     inkscape:cx="15"
     inkscape:cy="15"
     inkscape:window-x="2219"
     inkscape:window-y="56"
     inkscape:window-maximized="0"
     inkscape:current-layer="svg1466" />
  <!-- Generator: sketchtool 59.1 (101010) - https://sketch.com -->
  <title
     id="title1447">ECD6F017-EDF5-4965-9BE3-3929464D8568</title>
  <desc
     id="desc1449">Created with sketchtool.</desc>
  <defs
     id="defs1452">
    <path
       d="M15,0 C6.76829268,0 0,6.76829268 0,15 C0,23.2317073 6.76829268,30 15,30 C23.2317073,30 30,23.2317073 30,15 C30,6.76829268 23.2317073,0 15,0 Z M22.0243902,16.3902439 L16.3902439,16.3902439 L16.3902439,22.0243902 C16.3902439,22.8292683 15.7682927,23.4146341 15,23.4146341 C14.2317073,23.4146341 13.6097561,22.7926829 13.6097561,22.0243902 L13.6097561,16.3902439 L7.97560976,16.3902439 C7.17073171,16.3902439 6.58536585,15.7682927 6.58536585,15 C6.58536585,14.2317073 7.17073171,13.6097561 7.97560976,13.6097561 L13.6097561,13.6097561 L13.6097561,7.97560976 C13.6097561,7.17073171 14.2317073,6.58536585 15,6.58536585 C15.7682927,6.58536585 16.3902439,7.20731707 16.3902439,7.97560976 L16.3902439,13.6097561 L22.0243902,13.6097561 C22.8292683,13.6097561 23.4146341,14.2317073 23.4146341,15 C23.4146341,15.7682927 22.7926829,16.3902439 22.0243902,16.3902439 Z"
       id="path-1" />
  </defs>
  <ellipse
     style="fill:#1a7aaa;fill-opacity:1;stroke:#000000;stroke-opacity:1;stroke-width:0;stroke-miterlimit:4;stroke-dasharray:none"
     id="path1474"
     cx="15.508474"
     cy="16.080509"
     rx="11.440678"
     ry="10.868644" />
  <g
     id="Widgets"
     stroke="none"
     stroke-width="1"
     fill="none"
     fill-rule="evenodd">
    <g
       id="Manage-your-home"
       transform="translate(-441.000000, -1559.000000)">
      <g
         id="Group-2"
         transform="translate(292.000000, 1285.000000)">
        <g
           id="button/dashboard/action"
           transform="translate(11.000000, 267.000000)">
          <g
             id="icon/add-roundel"
             transform="translate(138.000000, 7.000000)">
            <g
               id="add-(1)">
              <mask
                 id="mask-2"
                 fill="white">
                <use
                   xlink:href="#path-1"
                   id="use1454" />
              </mask>
              <use
                 id="Shape"
                 fill="#FFFFFF"
                 fill-rule="nonzero"
                 xlink:href="#path-1" />
              <g
                 id="fill/task/white"
                 mask="url(#mask-2)"
                 fill="#FFFFFF">
                <polygon
                   id="Rectangle"
                   points="0 0 30 0 30 30 0 30" />
              </g>
            </g>
          </g>
        </g>
      </g>
    </g>
  </g>
</svg>
