<?xml version="1.0" encoding="UTF-8"?>
<svg width="10px" height="18px" viewBox="0 0 10 18" version="1.1" xmlns="http://www.w3.org/2000/svg" xmlns:xlink="http://www.w3.org/1999/xlink">
    <!-- Generator: sketchtool 50.2 (55047) - http://www.bohemiancoding.com/sketch -->
    <title>6A8E87AF-11A4-4DAF-BE05-CB690F9CCE57</title>
    <desc>Created with sketchtool.</desc>
    <defs>
        <path d="M9.7284857,7.83665986 L2.15369023,0.271583158 C1.97849445,0.0964707604 1.74462332,0 1.49525303,0 C1.24588274,0 1.01201161,0.0964707604 0.836815832,0.271583158 L0.278984739,0.828570499 C-0.0839998694,1.19151064 -0.0839998694,1.78139202 0.278984739,2.14377932 L6.63972608,8.49647564 L0.27192709,14.8562207 C0.0967313158,15.0313331 0,15.2647702 0,15.5136869 C0,15.76288 0.0967313158,15.9963171 0.27192709,16.1715677 L0.829758183,16.7284168 C1.00509234,16.9035292 1.23882509,17 1.48819538,17 C1.73756567,17 1.9714368,16.9035292 2.14663258,16.7284168 L9.7284857,9.15642962 C9.90409663,8.98076438 10.0005512,8.74622158 9.99999763,8.49689027 C10.0005512,8.24659149 9.90409663,8.01218689 9.7284857,7.83665986 Z" id="path-1"></path>
    </defs>
    <g id="Components-" stroke="none" stroke-width="1" fill="none" fill-rule="evenodd">
        <g id="Components---Desktop" transform="translate(-449.000000, -4627.000000)">
            <g id="hero-header" transform="translate(95.000000, 4341.000000)">
                <g id="button/green" transform="translate(34.000000, 266.000000)">
                    <g id="icon/arrow-right" transform="translate(320.000000, 20.500000)">
                        <mask id="mask-2" fill="white">
                            <use xlink:href="#path-1"></use>
                        </mask>
                        <use fill="#000000" fill-rule="nonzero" xlink:href="#path-1"></use>
                        <g id="fill/task/white" mask="url(#mask-2)" fill="#000000" fill-rule="evenodd">
                            <rect id="Rectangle" x="0" y="0" width="10" height="17"></rect>
                        </g>
                    </g>
                </g>
            </g>
        </g>
    </g>
</svg>