<?xml version="1.0" encoding="UTF-8"?>
<svg width="24px" height="25px" viewBox="0 0 24 25" version="1.1" xmlns="http://www.w3.org/2000/svg" xmlns:xlink="http://www.w3.org/1999/xlink">
    <!-- Generator: Sketch 50.2 (55047) - http://www.bohemiancoding.com/sketch -->
    <title>icon/attach@3x</title>
    <desc>Created with Sketch.</desc>
    <defs>
        <path d="M11.0595611,17.8522167 C11.2351097,18.0394089 11.4984326,18.1330049 11.6739812,18.1330049 C11.9373041,18.1330049 12.1128527,18.0394089 12.2884013,17.8522167 L20.3636364,9.24137931 C20.4514107,9.14778325 20.6269592,8.96059113 20.9780564,8.96059113 C21.5047022,8.96059113 21.8557994,9.33497537 21.8557994,9.89655172 C21.8557994,10.1773399 21.7680251,10.364532 21.5924765,10.5517241 L12.0250784,20.7536946 C10.7084639,22.1576355 8.42633229,22.1576355 7.02194357,20.7536946 C6.31974922,20.0049261 5.96865204,19.0689655 5.96865204,18.1330049 C5.96865204,17.1970443 6.31974922,16.1674877 7.02194357,15.5123153 L17.6426332,4.18719212 C17.9937304,3.81280788 17.9937304,3.25123153 17.6426332,2.87684729 L16.4137931,1.56650246 C16.2382445,1.37931034 16.0626959,1.28571429 15.799373,1.28571429 C15.5360502,1.28571429 15.3605016,1.37931034 15.184953,1.56650246 L4.56426332,12.8916256 C3.2476489,14.2955665 2.54545455,16.1674877 2.54545455,18.226601 C2.54545455,20.2857143 3.2476489,22.0640394 4.56426332,23.5615764 C5.88087774,24.9655172 7.63636364,25.7142857 9.56739812,25.7142857 C11.4984326,25.7142857 13.1661442,24.9655172 14.5705329,23.5615764 L24.137931,13.3596059 C24.9278997,12.5172414 25.4545455,11.3004926 25.4545455,10.0837438 C25.4545455,7.46305419 23.523511,5.40394089 21.0658307,5.40394089 C19.9247649,5.40394089 18.7836991,5.87192118 17.9937304,6.80788177 L9.9184953,15.4187192 C9.56739812,15.7931034 9.56739812,16.3546798 9.9184953,16.729064 L11.0595611,17.8522167 Z" id="path-1"></path>
    </defs>
    <g id="Dashboard" stroke="none" stroke-width="1" fill="none" fill-rule="evenodd">
        <g id="Dashboard---more-tasks---my-tasks" transform="translate(-860.000000, -464.000000)">
            <g id="Tasks" transform="translate(95.000000, 210.000000)">
                <g id="Task/" transform="translate(74.000000, 210.000000)">
                    <g id="icon/attach" transform="translate(689.000000, 43.000000)">
                        <mask id="mask-2" fill="white">
                            <use xlink:href="#path-1"></use>
                        </mask>
                        <use id="Shape" fill="#000000" fill-rule="nonzero" xlink:href="#path-1"></use>
                        <g id="fill/task/black" mask="url(#mask-2)" fill="#2A2A2A" fill-rule="evenodd">
                            <rect id="Rectangle" x="0" y="0" width="28" height="27"></rect>
                        </g>
                    </g>
                </g>
            </g>
        </g>
    </g>
</svg>