<?xml version="1.0" encoding="UTF-8" standalone="no"?><!DOCTYPE svg PUBLIC "-//W3C//DTD SVG 1.1//EN" "http://www.w3.org/Graphics/SVG/1.1/DTD/svg11.dtd"><svg width="100%" height="100%" viewBox="0 0 24 25" version="1.1" xmlns="http://www.w3.org/2000/svg" xmlns:xlink="http://www.w3.org/1999/xlink" xml:space="preserve" style="fill-rule:evenodd;clip-rule:evenodd;stroke-linejoin:round;stroke-miterlimit:1.41421;"><g id="icon.2f.attach"><path id="Shape" d="M9.06,16.852c0.175,0.187 0.438,0.281 0.614,0.281c0.263,0 0.439,-0.094 0.614,-0.281l8.076,-8.611c0.087,-0.093 0.263,-0.28 0.614,-0.28c0.527,0 0.878,0.374 0.878,0.936c0,0.28 -0.088,0.468 -0.264,0.655l-9.567,10.202c-1.317,1.404 -3.599,1.404 -5.003,0c-0.702,-0.749 -1.053,-1.685 -1.053,-2.621c0,-0.936 0.351,-1.966 1.053,-2.621l10.621,-11.325c0.351,-0.374 0.351,-0.936 0,-1.31l-1.229,-1.31c-0.176,-0.188 -0.351,-0.281 -0.615,-0.281c-0.263,0 -0.438,0.093 -0.614,0.281l-10.621,11.325c-1.316,1.404 -2.019,3.275 -2.019,5.335c0,2.059 0.703,3.837 2.019,5.335c1.317,1.404 3.072,2.152 5.003,2.152c1.931,0 3.599,-0.748 5.004,-2.152l9.567,-10.202c0.79,-0.843 1.317,-2.06 1.317,-3.276c0,-2.621 -1.931,-4.68 -4.389,-4.68c-1.141,0 -2.282,0.468 -3.072,1.404l-8.076,8.611c-0.351,0.374 -0.351,0.936 0,1.31l1.142,1.123Z" style="fill:#ebe7e7;fill-rule:nonzero;"/></g></svg>