<?xml version="1.0" encoding="UTF-8"?>
<svg width="25px" height="28px" viewBox="0 0 25 28" version="1.1" xmlns="http://www.w3.org/2000/svg" xmlns:xlink="http://www.w3.org/1999/xlink">
    <!-- Generator: sketchtool 59.1 (101010) - https://sketch.com -->
    <title>75DF671C-CC54-4BD0-AFE3-75B4FC11F352@2x</title>
    <desc>Created with sketchtool.</desc>
    <g id="Widgets" stroke="none" stroke-width="1" fill="none" fill-rule="evenodd" stroke-linecap="round" stroke-linejoin="round">
        <g id="Manage-your-home" transform="translate(-1318.000000, -1841.000000)" stroke="#000000" stroke-width="1.5">
            <g id="Group-7" transform="translate(1318.000000, 1842.000000)">
                <path d="M8.10591119,23.3200106 L6.87786629,10.7580012 M17.7863937,10.7580012 L16.5583488,23.3200106 M12.3534568,10.7580012 L12.3534568,23.1339447 M2.82258065,9 L4.38103265,23.2391682 C4.58666173,24.8188028 5.92165922,26 7.50239301,26 L17.3280254,26 C18.9208551,26 20.263492,24.8001963 20.4538422,23.2058046 L21.8225806,9" id="Stroke-1"></path>
                <path d="M21.3131,3.16425165 L16.6304331,3.16425165 L16.6304331,1.94066398 C16.6304331,0.868580337 15.7233758,0 14.6046271,0 L9.98359192,0 C8.86484319,0 7.95778584,0.868580337 7.95778584,1.94066398 L7.95778584,3.16425165 L3.33206132,3.16425165 C1.94668865,3.16425165 0.822580645,4.24082905 0.822580645,5.56905723 L0.822580645,7 L23.8225806,7 L23.8225806,5.56905723 C23.8225806,4.24082905 22.6984726,3.16425165 21.3131,3.16425165 Z" id="Stroke-3"></path>
            </g>
        </g>
    </g>
</svg>