<?xml version="1.0" encoding="UTF-8"?>
<svg width="223px" height="128px" viewBox="0 0 223 128" version="1.1" xmlns="http://www.w3.org/2000/svg" xmlns:xlink="http://www.w3.org/1999/xlink">
    <!-- Generator: sketchtool 59.1 (101010) - https://sketch.com -->
    <title>45942454-0D14-44F4-932C-3B88AD58670D@2x</title>
    <desc>Created with sketchtool.</desc>
    <g id="Widgets" stroke="none" stroke-width="1" fill="none" fill-rule="evenodd">
        <g id="Black-friday" transform="translate(-683.000000, -200.000000)">
            <g id="BF-Label-2" transform="translate(679.384012, 188.355359)">
                <path d="M171.470201,97.5435784 C170.953201,97.0325784 170.540201,96.4005784 170.280201,95.6705784 C169.351201,93.0715784 170.703201,90.2115784 173.303201,89.2815784 C173.533201,89.1985784 196.518201,80.8555784 210.011201,67.1985784 C222.230201,54.8315784 221.367201,41.1915784 214.201201,34.1115784 C205.077201,25.0975784 189.594201,26.0725784 182.858201,32.8905784 C173.246201,42.6185784 170.260201,49.5005784 170.231201,49.5685784 C169.157201,52.0995784 166.235201,53.3015784 163.698201,52.2435784 C161.159201,51.1875784 159.948201,48.2915784 160.989201,45.7495784 C161.130201,45.4025784 164.582201,37.1595784 175.744201,25.8615784 C188.078201,13.3785784 210.324201,16.2225784 221.230201,26.9985784 C226.793201,32.4945784 229.764201,40.3825784 229.382201,48.6375784 C229.090201,54.9465784 226.726201,64.5085784 217.124201,74.2275784 C202.007201,89.5275784 177.699201,98.3305784 176.670201,98.6965784 C174.800201,99.3655784 172.795201,98.8525784 171.470201,97.5435784" id="Fill-4" fill="#000000" transform="translate(195.015486, 58.317311) rotate(-15.000000) translate(-195.015486, -58.317311) "></path>
                <g id="BF-label">
                    <g id="Group-2" transform="translate(103.500000, 71.000000) rotate(-14.000000) translate(-103.500000, -71.000000) translate(10.000000, 22.000000)">
                        <g id="Group-6" fill="#000000">
                            <path d="M146.6877,3.0094 C145.3797,1.7184 143.6167,0.9954 141.7797,0.998582204 L9.028,1.044 C4.524,1.054 0.865,4.684 0.819,9.187 L-0.00044262727,89 C-0.047,93.581 3.655,97.317 8.236,97.313 L142.5117,97.4004 C144.5777,97.3984 146.5627,96.6224 148.0807,95.2224 C152.9957,90.6884 164.3967,79.9244 171.5637,71.2184 C180.9017,59.8754 186.1667,49.1834 186.1667,49.1834 C186.1667,49.1834 184.5167,45.2934 182.5987,42.4244 C180.6807,39.5564 177.1947,36.5784 177.1947,36.5784 C177.1947,36.5784 171.4667,42.2174 170.4337,46.3384 C169.4007,50.4604 170.1947,55.3344 165.5737,59.1844 C160.9527,63.0334 151.3867,65.7364 145.1177,59.5424 C138.8487,53.3484 140.5587,44.4034 143.2977,40.5654 C146.0387,36.7274 150.5017,36.1134 153.1897,33.2754 C155.8757,30.4374 163.7297,19.8474 163.7297,19.8474 L146.6877,3.0094 Z" id="Fill-1"></path>
                        </g>
                        <g id="BLACKFRIDAY" transform="translate(14.000000, 24.750000)" fill="#FFFFFF" fill-rule="nonzero">
                            <path d="M21.2600246,17.8200004 C21.2600246,15.5628003 19.5686913,12.6324003 16.8546912,12.2364003 C19.5686913,11.8404003 20.5520246,9.1080002 20.5520246,7.52400016 C20.5520246,3.16800007 17.9953579,0.396000009 10.5220244,0.396000009 L0.295357567,0.396000009 L0.295357567,25.7400006 L10.4433578,25.7400006 C19.1753579,25.7400006 21.2600246,22.2948005 21.2600246,17.8200004 Z M13.5900237,17.8595998 C13.5900237,19.2059998 13.0786904,20.3147998 10.6006905,20.3147998 L7.84735727,20.3147998 L7.84735727,15.5627998 L10.7186905,15.5627998 C13.0786904,15.5627998 13.5900237,16.4735998 13.5900237,17.8595998 Z M13.0786906,8.0784003 L13.0747856,8.27407809 C13.0290384,9.36906702 12.5564314,10.2168004 10.3646906,10.2168004 L7.84735727,10.2168004 L7.84735727,5.97960022 L10.4433573,5.97960022 C12.7246906,5.97960022 13.0786906,6.89040026 13.0786906,8.0784003 Z M40.1006922,25.7400006 L40.1006922,19.6812004 L32.2733586,19.6812004 L32.3520253,0.396000009 L24.7606917,0.396000009 L24.7606917,25.7400006 L40.1006922,25.7400006 Z M66.3753601,25.7400006 L57.800693,0.396000009 L48.990026,0.396000009 L40.1006922,25.7400006 L48.0066926,25.7400006 L49.344026,21.5820005 L57.210693,21.5820005 L58.4300264,25.7400006 L66.3753601,25.7400006 Z M55.8340218,15.9983995 L50.7206884,15.9983995 L53.2773551,6.65279984 L55.8340218,15.9983995 Z M90.644025,15.0083997 L83.0920253,15.0083997 L83.0314103,15.4611286 C82.5339867,18.9081667 81.493005,20.0375996 79.0406921,20.0375996 C75.3413923,20.0375996 74.8724406,17.1427406 74.8347937,13.6278101 L74.8320256,13.0679997 C74.8320256,9.3059998 75.3433589,6.13799987 79.0406921,6.13799987 C81.5580254,6.13799987 82.698692,7.36559985 83.0920253,11.0483998 L90.644025,11.0483998 C90.644025,5.10839989 87.6940251,0 79.0406921,0 C69.1499325,0 67.2391468,6.59803306 67.2019201,12.8778081 L67.2013592,13.0679997 C67.2013592,19.4039996 69.0106925,26.1359995 79.0406921,26.1359995 C87.7333585,26.1359995 90.644025,21.2255996 90.644025,15.0083997 Z M117.587363,25.7400006 L108.10803,12.5136003 L117.115363,0.396000009 L107.28203,0.396000009 L101.854029,10.2564002 L101.854029,0.396000009 L94.302029,0.396000009 L94.302029,25.7400006 L101.854029,25.7400006 L101.854029,14.6916003 L107.793363,25.7400006 L117.587363,25.7400006 Z M16.0651641,36.989279 L16.0651641,31.7015991 L-4.47168228e-13,31.7015991 L-4.47168228e-13,53.8199986 L6.5565093,53.8199986 L6.5565093,45.9057588 L15.3442914,45.9057588 L15.3442914,40.8254389 L6.5565093,40.8254389 L6.5565093,36.989279 L16.0651641,36.989279 Z M38.1719282,53.8199986 L31.8213826,45.7329588 C35.1168009,45.1108788 36.5242191,42.4497589 36.5242191,39.4775989 L36.5214399,39.1551465 C36.4651762,35.9967542 35.4829585,31.7015991 27.1872007,31.7015991 L18.6053824,31.7015991 L18.6053824,53.8199986 L25.1962189,53.8199986 L25.1962189,45.6292788 L29.9677099,53.8199986 L38.1719282,53.8199986 Z M29.8647261,39.4776004 C29.8647261,40.9636804 29.3154897,41.8968004 26.9469079,41.8968004 L25.1962171,41.8968004 L25.1962171,36.9892804 L26.9469079,36.9892804 C29.2811624,36.9892804 29.8647261,37.8532804 29.8647261,39.4776004 Z M46.3761451,53.8199986 L46.3761451,31.7015991 L39.7853091,31.7015991 L39.7853091,53.8199986 L46.3761451,53.8199986 Z M69.6157063,42.6225589 C69.6157063,35.952479 66.2859609,31.7015991 59.214543,31.7015991 L50.3924341,31.7015991 L50.3924341,53.8199986 L58.8712702,53.8199986 C66.04567,53.8199986 69.6157063,49.2580787 69.6157063,42.6225589 Z M63.1278548,42.5880003 C63.1278548,47.6190296 61.301249,48.5039737 58.2033692,48.5316361 L56.9832729,48.5323201 L56.9832729,36.9892804 L58.1847275,36.9892804 C61.4114911,36.9892804 63.1278548,37.5768004 63.1278548,42.5880003 Z M93.3701828,53.8199986 L85.8868375,31.7015991 L78.1975286,31.7015991 L70.4395652,53.8199986 L77.3393468,53.8199986 L78.5064741,50.1911987 L85.3719285,50.1911987 L86.4360739,53.8199986 L93.3701828,53.8199986 Z M84.1704735,45.3182389 L79.7079282,45.3182389 L81.9392008,37.1620789 L84.1704735,45.3182389 Z M115.408292,31.7015991 L107.341383,46.9425588 L107.341383,53.8199986 L100.57891,53.8199986 L100.57891,46.9425588 L92.8896003,31.7015991 L100.235637,31.7015991 L103.942982,40.7217589 L107.890619,31.7015991 L115.408292,31.7015991 Z"></path>
                        </g>
                    </g>
                </g>
            </g>
        </g>
    </g>
</svg>