<?xml version="1.0" encoding="UTF-8"?>
<svg width="28px" height="29px" viewBox="0 0 28 29" version="1.1" xmlns="http://www.w3.org/2000/svg" xmlns:xlink="http://www.w3.org/1999/xlink">
    <!-- Generator: sketchtool 50.2 (55047) - http://www.bohemiancoding.com/sketch -->
    <title>CFD8BEBD-6F03-4FE5-9F37-50E98AF1ACEF-8967-00026A69FC3C94FE</title>
    <desc>Created with sketchtool.</desc>
    <defs></defs>
    <g id="Dashboard" stroke="none" stroke-width="1" fill="none" fill-rule="evenodd">
        <g id="Dashboard---Edit-task-overlay" transform="translate(-273.000000, -701.000000)" fill="#1A7AAA" fill-rule="nonzero">
            <g id="input-date-module" transform="translate(255.000000, 685.000000)">
                <g id="input-module">
                    <g id="Group" transform="translate(18.000000, 16.000000)">
                        <g id="icon/calendar">
                            <g id="Shape">
                                <path d="M11,15.7281279 C11,15.3258782 10.6737862,15 10.2712804,15 L7.72832503,15 C7.32627962,15 7,15.3258782 7,15.7281279 L7,18.2712143 C7,18.6739903 7.32627962,19 7.72832503,19 L10.2712804,19 C10.6737862,19 11,18.6739903 11,18.2712143 L11,15.7281279 Z"></path>
                                <path d="M15,15.7281279 C15,15.3258782 14.7552661,15 14.453949,15 L12.5462977,15 C12.2447339,15 12,15.3258782 12,15.7281279 L12,18.2712143 C12,18.6739903 12.2447339,19 12.5462977,19 L14.453949,19 C14.7552661,19 15,18.6739903 15,18.2712143 L15,15.7281279 Z"></path>
                                <path d="M22,15.7281279 C22,15.3258782 21.6737204,15 21.271675,15 L18.7287196,15 C18.3262138,15 18,15.3258782 18,15.7281279 L18,18.2712143 C18,18.6739903 18.3262138,19 18.7287196,19 L21.271675,19 C21.6737204,19 22,18.6739903 22,18.2712143 L22,15.7281279 Z"></path>
                                <path d="M11,21.7285945 C11,21.3256472 10.6737862,21 10.2712804,21 L7.72832503,21 C7.32627962,21 7,21.3256472 7,21.7285945 L7,24.2714713 C7,24.6740239 7.32627962,25 7.72832503,25 L10.2712804,25 C10.6737862,25 11,24.6739581 11,24.2714713 L11,21.7285945 Z"></path>
                                <path d="M15,21.7285945 C15,21.3256472 14.7552661,21 14.453949,21 L12.5462977,21 C12.2447339,21 12,21.3256472 12,21.7285945 L12,24.2714713 C12,24.6740239 12.2447339,25 12.5462977,25 L14.453949,25 C14.7552661,25 15,24.6739581 15,24.2714713 L15,21.7285945 Z"></path>
                                <path d="M22,21.7285945 C22,21.3256472 21.6737204,21 21.2720038,21 L18.7287196,21 C18.3262138,21 18,21.3256472 18,21.7285945 L18,24.2714713 C18,24.6740239 18.3262138,25 18.7287196,25 L21.2720038,25 C21.6737204,25 22,24.6739581 22,24.2714713 L22,21.7285945 Z"></path>
                                <path d="M25.5077284,3.01270014 L25.5077284,6.55016808 C25.5077284,8.14906765 24.2376302,9.43753269 22.6722393,9.43753269 L20.8835313,9.43753269 C19.3180232,9.43753269 18.0310896,8.14906765 18.0310896,6.55016808 L18.0310896,3 L9.9689104,3 L9.9689104,6.55016808 C9.9689104,8.14906765 8.68203549,9.43753269 7.11676199,9.43753269 L5.32770201,9.43753269 C3.76236985,9.43753269 2.49233025,8.14906765 2.49233025,6.55016808 L2.49233025,3.01270014 C1.12421176,3.05481428 0,4.21094627 0,5.63198398 L0,26.3632235 C0,27.8109794 1.14902478,29 2.566652,29 L25.433348,29 C26.8488635,29 28,27.8085233 28,26.3632235 L28,5.63198398 C28,4.21094627 26.8758469,3.05481428 25.5077284,3.01270014 Z M24.6769321,25.0722424 C24.6769321,25.697904 24.1802024,26.2054902 23.5673266,26.2054902 L4.38380994,26.2054902 C3.77093415,26.2054902 3.27420443,25.697904 3.27420443,25.0722424 L3.27420443,14.3638088 C3.27420443,13.7379076 3.77087549,13.2303214 4.38380994,13.2303214 L23.5672679,13.2303214 C24.1801437,13.2303214 24.6768734,13.7379076 24.6768734,14.3638088 L24.6769321,25.0722424 Z"></path>
                                <path d="M5.04728513,8 L6.95271487,8 C7.53106542,8 8,7.54368387 8,6.98006079 L8,1.02030859 C8,0.456623956 7.53106542,0 6.95271487,0 L5.04728513,0 C4.46887141,0 4,0.456623956 4,1.02030859 L4,6.98006079 C4,7.54368387 4.46887141,8 5.04728513,8 Z"></path>
                                <path d="M21.0473377,8 L22.9529782,8 C23.5310136,8 24,7.54368387 24,6.98006079 L24,1.02030859 C24.0000632,0.456623956 23.5310767,0 22.9529782,0 L21.0473377,0 C20.4689864,0 20,0.456623956 20,1.02030859 L20,6.98006079 C20,7.54368387 20.4689864,8 21.0473377,8 Z"></path>
                            </g>
                        </g>
                    </g>
                </g>
            </g>
        </g>
    </g>
</svg>