<svg id="Layer_1" data-name="Layer 1" xmlns="http://www.w3.org/2000/svg" viewBox="0 0 49.04 49.04"><defs><style>.cls-1{fill:#1b7aaa;}.cls-1,.cls-4,.cls-6{stroke:#0f3b4a;}.cls-1,.cls-2,.cls-4,.cls-5,.cls-6,.cls-7{stroke-linecap:round;}.cls-1,.cls-2,.cls-5,.cls-7{stroke-linejoin:round;}.cls-1,.cls-4,.cls-5,.cls-6,.cls-7{stroke-width:1.4px;}.cls-2,.cls-7{fill:#fae920;}.cls-2,.cls-5,.cls-7{stroke:#d3b902;}.cls-2{stroke-width:0.75px;}.cls-3,.cls-4{fill:#fff;}.cls-4,.cls-6{stroke-miterlimit:10;}.cls-5{fill:none;}.cls-6{fill:#0f3b4a;}.cls-8{fill:#0f3a4a;}</style></defs><title>Artboard 62 copy 6</title><path class="cls-1" d="M35.8,21.32H33.63a1.17,1.17,0,0,0-1.17,1.17v.15L31.3,20.47A6.62,6.62,0,0,0,25,16H14.81a6.6,6.6,0,0,0-6.33,4.72l-.87,1.81H7.56a1.17,1.17,0,0,0-1.18-1.17H4.21A1.17,1.17,0,0,0,3,22.49v.38a1.17,1.17,0,0,0,1.17,1.18H6.38a4,4,0,0,1,.49,0h0s-2.6.68-2.6,2.45v9.89a.5.5,0,0,0,.5.5H9.39a.5.5,0,0,0,.5-.5V34.11H30v2.32a.5.5,0,0,0,.5.5h4.4a.5.5,0,0,0,.5-.5V26.64A3.09,3.09,0,0,0,33.6,24h2.2A1.18,1.18,0,0,0,37,22.87v-.38A1.17,1.17,0,0,0,35.8,21.32Z"/><circle class="cls-2" cx="8.95" cy="28.6" r="2.06"/><circle class="cls-2" cx="30.68" cy="28.6" r="2.06"/><path class="cls-3" d="M14.9,27.57h9.83a1,1,0,0,1,1,1.31h0a1,1,0,0,1-1,.75H14.9a1,1,0,0,1-1-.79h0A1,1,0,0,1,14.9,27.57Z"/><path class="cls-4" d="M40.75,38.36h2.37a1.54,1.54,0,0,0,1.54-1.54V13.11a1.54,1.54,0,0,0-1.54-1.54H24.76a1.54,1.54,0,0,0-1.54,1.54V36.82a1.54,1.54,0,0,0,1.54,1.54H36.24"/><polyline class="cls-5" points="26.82 18.93 28.17 20.28 31.09 17.36"/><polyline class="cls-5" points="26.82 25.65 28.17 27 31.09 24.09"/><polyline class="cls-5" points="26.82 32.37 28.17 33.72 31.09 30.81"/><line class="cls-6" x1="35.65" y1="18.82" x2="41.1" y2="18.82"/><line class="cls-6" x1="35.57" y1="25.47" x2="41.02" y2="25.47"/><line class="cls-6" x1="35.65" y1="32.26" x2="41.1" y2="32.26"/><path class="cls-7" d="M37,10.8a.84.84,0,0,1-.83-.59,2.12,2.12,0,0,0-4.07,0,.84.84,0,0,1-.82.59H29.83a.88.88,0,0,0-.88.88v1a.88.88,0,0,0,.88.87h8.82a.87.87,0,0,0,.88-.87v-1a.87.87,0,0,0-.88-.88Z"/><circle class="cls-8" cx="38.53" cy="38.36" r="0.76"/></svg>