<?xml version="1.0" encoding="UTF-8" standalone="no"?><!DOCTYPE svg PUBLIC "-//W3C//DTD SVG 1.1//EN" "http://www.w3.org/Graphics/SVG/1.1/DTD/svg11.dtd"><svg width="100%" height="100%" viewBox="0 0 24 25" version="1.1" xmlns="http://www.w3.org/2000/svg" xmlns:xlink="http://www.w3.org/1999/xlink" xml:space="preserve" style="fill-rule:evenodd;clip-rule:evenodd;stroke-linejoin:round;stroke-miterlimit:1.41421;"><g id="alarm.-clock"><path id="Shape" d="M2.691,7.581c-0.107,0.165 -0.288,0.269 -0.484,0.278c-0.196,0.009 -0.384,-0.077 -0.506,-0.233c-0.606,-0.772 -0.969,-1.747 -0.969,-2.809c0,-2.503 2.009,-4.531 4.486,-4.531c1.602,0 3.005,0.85 3.797,2.127c0.104,0.168 0.122,0.376 0.048,0.56c-0.073,0.183 -0.231,0.32 -0.421,0.366c-2.477,0.605 -4.594,2.148 -5.951,4.242Zm16.194,-7.295c2.477,0 4.484,2.028 4.486,4.531c0,1.038 -0.347,1.992 -0.928,2.754c-0.121,0.158 -0.308,0.247 -0.506,0.24c-0.197,-0.007 -0.378,-0.11 -0.487,-0.275c-1.369,-2.087 -3.493,-3.62 -5.976,-4.211c-0.193,-0.045 -0.351,-0.181 -0.426,-0.366c-0.074,-0.185 -0.055,-0.395 0.05,-0.563c0.794,-1.268 2.192,-2.11 3.787,-2.11Zm3.083,13.877c0,-1.749 -0.45,-3.393 -1.235,-4.824c-1.456,-2.65 -4.07,-4.555 -7.147,-5.032c-0.491,-0.076 -0.989,-0.127 -1.5,-0.127c-0.534,0 -1.055,0.055 -1.566,0.138c-3.064,0.497 -5.665,2.409 -7.105,5.063c-0.772,1.421 -1.212,3.05 -1.212,4.782c0,2.967 1.295,5.628 3.335,7.457l-0.833,1.185c-0.358,0.51 -0.239,1.216 0.266,1.579c0.197,0.142 0.423,0.21 0.648,0.21c0.351,0 0.697,-0.166 0.915,-0.477l0.832,-1.184c1.403,0.774 3.011,1.215 4.72,1.215c1.708,0 3.316,-0.441 4.719,-1.215l0.832,1.184c0.219,0.312 0.564,0.477 0.915,0.477c0.225,0 0.451,-0.068 0.648,-0.21c0.505,-0.363 0.625,-1.069 0.266,-1.579l-0.833,-1.185c2.04,-1.829 3.335,-4.49 3.335,-7.457Zm-9.882,7.192c-3.925,0 -7.118,-3.226 -7.118,-7.192c0,-1.236 0.31,-2.4 0.856,-3.417c1.039,-1.935 2.933,-3.329 5.165,-3.68c0.359,-0.057 0.723,-0.095 1.097,-0.095c0.353,0 0.697,0.035 1.036,0.085c2.251,0.334 4.166,1.728 5.217,3.671c0.552,1.022 0.866,2.191 0.866,3.436c0,3.966 -3.193,7.192 -7.119,7.192Z" style="fill:#ebe7e7;fill-rule:nonzero;"/></g></svg>