<?xml version="1.0" encoding="UTF-8"?>
<svg width="24px" height="25px" viewBox="0 0 24 25" version="1.1" xmlns="http://www.w3.org/2000/svg" xmlns:xlink="http://www.w3.org/1999/xlink">
    <!-- Generator: Sketch 50.2 (55047) - http://www.bohemiancoding.com/sketch -->
    <title>icon/clock@3x</title>
    <desc>Created with Sketch.</desc>
    <defs>
        <path d="M4.69080237,8.58082919 C4.58356126,8.74598758 4.40324901,8.84954348 4.20716601,8.85857143 C4.011083,8.86759938 3.82288538,8.78156832 3.70145059,8.62596894 C3.09480237,7.85434472 2.73154941,6.87879503 2.73154941,5.81668323 C2.73154941,3.31434783 4.74074308,1.28571429 7.21780237,1.28571429 C8.82011067,1.28571429 10.2226561,2.13593478 11.0153992,3.41259317 C11.1194862,3.58093789 11.1373597,3.7891118 11.0632372,3.97285714 C10.9896403,4.15607143 10.8324585,4.2925528 10.6416324,4.33875466 C8.16509881,4.94362733 6.04813834,6.48740683 4.69080237,8.58082919 Z M20.8847352,1.28571429 C23.3617945,1.28571429 25.3694111,3.31434783 25.3709881,5.81721429 C25.3709881,6.85489752 25.0235059,7.80867391 24.4426166,8.57127019 C24.3217075,8.72899379 24.1345613,8.81821118 23.9374269,8.8107764 C23.7402925,8.80387267 23.5589289,8.70137888 23.4501107,8.53568944 C22.0812095,6.44917081 19.9568893,4.91601242 17.4735217,4.32547826 C17.2805929,4.27980745 17.1228854,4.14385714 17.0482372,3.95851863 C16.9741146,3.77371118 16.9925138,3.5639441 17.0976522,3.39613043 C17.8919723,2.12796894 19.2897866,1.28571429 20.8847352,1.28571429 Z M23.9684427,15.1632671 C23.9684427,13.4139689 23.5179249,11.7698199 22.7325415,10.3391553 C21.2769012,7.68918634 18.6626364,5.78428882 15.5857628,5.30740062 C15.0952925,5.23145963 14.5974625,5.1799472 14.0859644,5.1799472 C13.5518617,5.1799472 13.0314269,5.23517702 12.5199289,5.31802174 C9.45619763,5.81455901 6.8550751,7.72742236 5.41467984,10.3805776 C4.64349012,11.8016832 4.20348617,13.4309627 4.20348617,15.1632671 C4.20348617,18.1297453 5.49826482,20.7908665 7.53794862,22.619823 L6.70525296,23.8046087 C6.34673123,24.3149534 6.46553755,25.0212578 6.97072727,25.3845 C7.16786166,25.5257609 7.39443478,25.5942671 7.61890514,25.5942671 C7.97006719,25.5942671 8.31597233,25.4280466 8.53413439,25.1173789 L9.36630435,23.9331242 C10.7693755,24.7068727 12.3774664,25.1476491 14.0859644,25.1476491 C15.7939368,25.1476491 17.4020277,24.7068727 18.8050988,23.9331242 L19.6372688,25.1173789 C19.8559565,25.4285776 20.201336,25.5942671 20.552498,25.5942671 C20.7769684,25.5942671 21.0030158,25.5257609 21.2001502,25.3845 C21.7053399,25.0212578 21.8246719,24.3149534 21.4661502,23.8046087 L20.6334545,22.619823 C22.6731383,20.7908665 23.9684427,18.1297453 23.9684427,15.1632671 Z M14.0864901,22.3548261 C10.1606245,22.3548261 6.96757312,19.1291925 6.96757312,15.1632671 C6.96757312,13.9269689 7.27825692,12.7634255 7.8239249,11.7459224 C8.8626917,9.81075466 10.7572846,8.41673292 12.9893715,8.06570497 C13.3478933,8.00941304 13.7121976,7.97117702 14.0864901,7.97117702 C14.4387036,7.97117702 14.7830316,8.00569565 15.1221028,8.05614596 C17.3731146,8.38964907 19.2882095,9.78367081 20.3390672,11.7273354 C20.8910435,12.7485559 21.2048814,13.918472 21.2048814,15.162736 C21.2048814,19.1291925 18.01183,22.3548261 14.0864901,22.3548261 Z" id="path-1"></path>
    </defs>
    <g id="Dashboard" stroke="none" stroke-width="1" fill="none" fill-rule="evenodd">
        <g id="Dashboard---more-tasks---my-tasks" transform="translate(-915.000000, -464.000000)">
            <g id="Tasks" transform="translate(95.000000, 210.000000)">
                <g id="Task/" transform="translate(74.000000, 210.000000)">
                    <g id="icon/notification" transform="translate(744.000000, 43.000000)">
                        <g id="alarm-clock">
                            <mask id="mask-2" fill="white">
                                <use xlink:href="#path-1"></use>
                            </mask>
                            <use id="Shape" fill="#000000" fill-rule="nonzero" xlink:href="#path-1"></use>
                            <g id="fill/task/black" mask="url(#mask-2)" fill="#2A2A2A">
                                <rect id="Rectangle" x="0" y="0" width="28" height="27"></rect>
                            </g>
                        </g>
                    </g>
                </g>
            </g>
        </g>
    </g>
</svg>