<?xml version="1.0" encoding="UTF-8"?>
<svg width="23px" height="21px" viewBox="0 0 23 21" version="1.1" xmlns="http://www.w3.org/2000/svg" xmlns:xlink="http://www.w3.org/1999/xlink">
    <!-- Generator: sketchtool 58 (101010) - https://sketch.com -->
    <title>23D4BDBD-EE12-4D9E-9D22-98DA94EC75AD</title>
    <desc>Created with sketchtool.</desc>
    <g id="Widgets" stroke="none" stroke-width="1" fill="none" fill-rule="evenodd">
        <g id="Profile" transform="translate(-38.000000, -533.000000)" fill="#1A7AAA">
            <g id="Cogs" transform="translate(49.637967, 543.753037) rotate(-9.000000) translate(-49.637967, -543.753037) translate(38.137967, 534.753037)">
                <path d="M6.75669222,14.1147795 C5.20035888,14.1147795 3.93845503,12.8821395 3.93845503,11.3613555 C3.93845503,9.84157947 5.20035888,8.60893945 6.75669222,8.60893945 C8.31346786,8.60893945 9.57581401,9.84157947 9.57581401,11.3613555 C9.57581401,12.8821395 8.31332042,14.1147795 6.75669222,14.1147795 M13.2388586,10.2342676 L11.610724,9.93604354 C11.5117945,9.61449154 11.3821984,9.30604353 11.2217881,9.01588352 L12.1636086,7.6709235 C12.2508906,7.54636349 12.2330509,7.35916349 12.1236535,7.25274749 L10.9623009,6.11817146 C10.8530509,6.01146746 10.6615317,5.99404346 10.5341471,6.07900346 L9.156801,6.99959548 C8.85101895,6.83860348 8.52533307,6.70943547 8.18608308,6.61194747 L7.88251257,5.03025144 C7.85376257,4.88207543 7.70588437,4.76197943 7.55137156,4.76197943 L5.90864084,4.76197943 C5.75412803,4.76197943 5.60624982,4.88207543 5.57749983,5.03025144 L5.27083317,6.62749947 C4.94514728,6.72469947 4.6330255,6.85141948 4.33903833,7.00751548 L2.97894221,6.09873146 C2.8515576,6.01348346 2.65974351,6.03105146 2.55078838,6.13775546 L1.38914098,7.27218749 C1.27989099,7.37903549 1.26219868,7.56594749 1.34918586,7.6905075 L2.28540377,9.02711552 C2.12779481,9.31425153 2.00011532,9.61881154 1.90236533,9.93633154 L0.274525632,10.2342676 C0.122961535,10.2623476 2.27328128e-13,10.4067796 2.27328128e-13,10.5576916 L2.27328128e-13,12.1619956 C2.27328128e-13,12.3130516 0.122961535,12.4574836 0.274525632,12.4855636 L1.90118584,12.7833556 C2.00041019,13.1077876 2.13118583,13.4189716 2.29277557,13.7112916 L1.3670256,15.0330677 C1.27989099,15.1574837 1.29773073,15.3448277 1.40698073,15.4512437 L2.56833325,16.5858197 C2.67758325,16.6925237 2.86910247,16.7098037 2.99663452,16.6249877 L4.34935884,15.7203797 C4.64039729,15.8741717 4.94912805,15.9991637 5.27142291,16.0959317 L5.57794213,17.6934677 C5.60683957,17.8413557 5.75471777,17.9614517 5.90923058,17.9614517 L7.5519613,17.9614517 C7.70647412,17.9614517 7.85420488,17.8413557 7.88310232,17.6934677 L8.18667282,16.1110517 C8.52238435,16.0144277 8.84453177,15.8869877 9.14751253,15.7287317 L10.5176343,16.6442837 C10.6451663,16.7293877 10.836833,16.7119637 10.9459356,16.6052597 L12.1072881,15.4712597 C12.2165381,15.3645557 12.234083,15.1774997 12.1472432,15.0530837 L11.2150061,13.7223796 C11.3795445,13.4266036 11.5120894,13.1118196 11.6127881,12.7833556 L13.2391534,12.4855636 C13.3907175,12.4574836 13.5136791,12.3130516 13.5136791,12.1619956 L13.5136791,10.5576916 C13.5136791,10.4067796 13.3904227,10.2623476 13.2388586,10.2342676" id="Fill-1"></path>
                <path d="M17.34217,7.85584808 C15.958273,7.85584808 14.8360907,6.75981745 14.8360907,5.40739555 C14.8360907,4.05600801 15.958273,2.95984808 17.34217,2.95984808 C18.7265964,2.95984808 19.8489112,4.05600801 19.8489112,5.40739555 C19.8489112,6.75981745 18.7263317,7.85584808 17.34217,7.85584808 M22.6535102,4.48387213 L21.3195102,4.23964813 C21.2384205,3.97612812 21.1322667,3.72340811 21.0007538,3.4856641 L21.7725807,2.38348807 C21.8439397,2.28153607 21.8293436,2.12817606 21.73985,2.04091206 L20.7882987,1.11124803 C20.6986577,1.02384003 20.5417859,1.00958403 20.4374013,1.07928003 L19.3087795,1.83355206 C19.058286,1.70150405 18.791427,1.59580805 18.5133629,1.51588805 L18.2646385,0.219888007 C18.2410488,0.098352003 18.1198565,6.13908924e-15 17.9933565,6.13908924e-15 L16.6474142,6.13908924e-15 C16.5207668,6.13908924e-15 16.3995745,0.098352003 16.3759848,0.219888007 L16.124754,1.52870405 C15.857895,1.60833605 15.6020938,1.71201605 15.3611835,1.84003206 L14.2467156,1.09540803 C14.142331,1.02556803 13.9851643,1.03982403 13.8959656,1.12737603 L12.9441195,2.05704006 C12.8546259,2.14444806 12.8401772,2.29766407 12.9113887,2.39976007 L13.6786451,3.49473611 C13.5493438,3.73017611 13.4446644,3.97972812 13.3646067,4.23993613 L12.0309016,4.48387213 C11.9066131,4.50705614 11.8059144,4.62528014 11.8059144,4.74897614 L11.8059144,6.06355218 C11.8059144,6.18724819 11.9066131,6.30561619 12.0309016,6.32865619 L13.3637221,6.5725922 C13.4449592,6.83841621 13.5521451,7.09329621 13.6845426,7.33305622 L12.9259849,8.41593625 C12.8546259,8.51803226 12.8692221,8.67139226 12.9588631,8.75865626 L13.9104143,9.68832029 C13.9999079,9.77572829 14.1567797,9.78984029 14.2613118,9.72028829 L15.3697348,8.97926427 C15.6079912,9.10512027 15.8611386,9.20764828 16.1251963,9.28684828 L16.3764271,10.5958083 C16.4000168,10.7170563 16.5212091,10.8154083 16.6478566,10.8154083 L17.9936514,10.8154083 C18.1204462,10.8154083 18.2416385,10.7170563 18.2650809,10.5958083 L18.5138052,9.29937628 C18.7889206,9.22017628 19.0529783,9.11563227 19.3012603,8.98588827 L20.4238372,9.73612829 C20.5282218,9.80596829 20.6853885,9.79171229 20.7747346,9.70416029 L21.7262859,8.77492826 C21.8157794,8.68752026 21.8302282,8.53430426 21.7590166,8.43235225 L20.9952987,7.34212822 C21.1302025,7.09963221 21.2387154,6.84172821 21.321132,6.5725922 L22.6538051,6.32865619 C22.7779461,6.30561619 22.8786448,6.18724819 22.8786448,6.06355218 L22.8786448,4.74897614 C22.8786448,4.62528014 22.7776512,4.50705614 22.6535102,4.48387213" id="Fill-4"></path>
            </g>
        </g>
    </g>
</svg>