<?xml version="1.0" encoding="UTF-8" standalone="no"?><!DOCTYPE svg PUBLIC "-//W3C//DTD SVG 1.1//EN" "http://www.w3.org/Graphics/SVG/1.1/DTD/svg11.dtd"><svg width="100%" height="100%" viewBox="0 0 16 18" version="1.1" xmlns="http://www.w3.org/2000/svg" xmlns:xlink="http://www.w3.org/1999/xlink" xml:space="preserve" style="fill-rule:evenodd;clip-rule:evenodd;stroke-linejoin:round;stroke-miterlimit:1.41421;"><g id="bin"><path id="Shape" d="M14.766,2.109l-3.164,0l0,-0.527c0,-0.872 -0.71,-1.582 -1.582,-1.582l-4.219,0c-0.873,0 -1.582,0.71 -1.582,1.582l0,0.527l-3.164,0c-0.583,0 -1.055,0.473 -1.055,1.055c0,0.582 0.472,1.055 1.055,1.055c4.85,0 8.86,0 13.711,0c0.582,0 1.054,-0.473 1.054,-1.055c0,-0.582 -0.472,-1.055 -1.054,-1.055Zm-4.219,0l-5.274,0l0,-0.527c0,-0.291 0.237,-0.527 0.528,-0.527l4.219,0c0.29,0 0.527,0.236 0.527,0.527l0,0.527Zm-9.45,3.164l0.934,11.276c0.067,0.813 0.76,1.451 1.576,1.451l8.606,0c0.817,0 1.509,-0.638 1.576,-1.451l0.934,-11.276l-13.626,0Zm4.176,10.618c-0.276,0 -0.508,-0.215 -0.526,-0.495l-0.527,-8.508c-0.018,-0.291 0.203,-0.541 0.493,-0.559c0.301,-0.021 0.541,0.203 0.559,0.493l0.528,8.508c0.018,0.302 -0.22,0.561 -0.527,0.561Zm3.165,-0.528c0,0.292 -0.236,0.528 -0.528,0.528c-0.291,0 -0.527,-0.236 -0.527,-0.528l0,-8.508c0,-0.291 0.236,-0.527 0.527,-0.527c0.292,0 0.528,0.236 0.528,0.527l0,8.508Zm3.163,-8.475l-0.528,8.508c-0.017,0.277 -0.248,0.508 -0.559,0.494c-0.291,-0.018 -0.511,-0.269 -0.493,-0.56l0.527,-8.507c0.018,-0.291 0.273,-0.503 0.559,-0.494c0.291,0.018 0.512,0.268 0.494,0.559Z" style="fill:#fff;fill-rule:nonzero;"/></g></svg>