<?xml version="1.0" encoding="UTF-8"?>
<svg width="16px" height="18px" viewBox="0 0 16 18" version="1.1" xmlns="http://www.w3.org/2000/svg" xmlns:xlink="http://www.w3.org/1999/xlink">
    <!-- Generator: Sketch 50.2 (55047) - http://www.bohemiancoding.com/sketch -->
    <title>icon/delete@3x</title>
    <desc>Created with Sketch.</desc>
    <defs>
        <path d="M14.765625,2.109375 L11.6015625,2.109375 L11.6015625,1.58203125 C11.6015625,0.709664063 10.8918984,0 10.0195312,0 L5.80078125,0 C4.92841406,0 4.21875,0.709664063 4.21875,1.58203125 L4.21875,2.109375 L1.0546875,2.109375 C0.472183594,2.109375 0,2.58155859 0,3.1640625 C0,3.74649609 0.472183594,4.21875 1.0546875,4.21875 C5.90505469,4.21875 9.91543359,4.21875 14.765625,4.21875 C15.3481289,4.21875 15.8203125,3.74649609 15.8203125,3.1640625 C15.8203125,2.58155859 15.3481289,2.109375 14.765625,2.109375 Z M10.546875,2.109375 L5.2734375,2.109375 L5.2734375,1.58203125 C5.2734375,1.29107813 5.50982813,1.0546875 5.80078125,1.0546875 L10.0195313,1.0546875 C10.3104844,1.0546875 10.546875,1.29107813 10.546875,1.58203125 L10.546875,2.109375 Z M1.09705078,5.2734375 L2.03111719,16.5492773 C2.09805469,17.3624414 2.79070313,18 3.60696094,18 L12.2133867,18 C13.0296445,18 13.722293,17.3624414 13.7892305,16.5492773 L14.7232617,5.2734375 L1.09705078,5.2734375 Z M5.27294531,15.890625 C4.99689844,15.890625 4.76465625,15.6758906 4.74714844,15.3962227 L4.21980469,6.88841016 C4.20176953,6.59745703 4.42269141,6.34717969 4.71315234,6.32914453 C5.01440625,6.30801562 5.25389062,6.53153906 5.27241797,6.82249219 L5.79976172,15.3303047 C5.81842969,15.6315937 5.58003516,15.890625 5.27294531,15.890625 Z M8.4375,15.3632813 C8.4375,15.6547617 8.20163672,15.890625 7.91015625,15.890625 C7.61867578,15.890625 7.3828125,15.6547617 7.3828125,15.3632813 L7.3828125,6.85546875 C7.3828125,6.56398828 7.61867578,6.328125 7.91015625,6.328125 C8.20163672,6.328125 8.4375,6.56398828 8.4375,6.85546875 L8.4375,15.3632813 Z M11.6005078,6.88844531 L11.0731641,15.3962578 C11.055832,15.6730781 10.8251016,15.9037734 10.5138984,15.8896055 C10.2234375,15.8715703 10.0025156,15.621293 10.0205508,15.3303398 L10.5478945,6.82252734 C10.5659297,6.53157422 10.8208477,6.31989844 11.1071602,6.32917969 C11.3976211,6.34721484 11.618543,6.59749219 11.6005078,6.88844531 Z" id="path-1"></path>
    </defs>
    <g id="Dashboard" stroke="none" stroke-width="1" fill="none" fill-rule="evenodd">
        <g id="Dashboard---more-tasks---my-tasks" transform="translate(-1175.000000, -580.000000)">
            <g id="Tasks" transform="translate(95.000000, 210.000000)">
                <g id="Task/-Copy" transform="translate(74.000000, 346.000000)">
                    <g id="Edit" transform="translate(1003.000000, 22.000000)">
                        <g id="icon/edit">
                            <g id="icon/delete">
                                <g id="bin" transform="translate(3.000000, 2.000000)">
                                    <mask id="mask-2" fill="white">
                                        <use xlink:href="#path-1"></use>
                                    </mask>
                                    <use id="Shape" fill="#000000" fill-rule="nonzero" xlink:href="#path-1"></use>
                                    <g id="fill/task/black" mask="url(#mask-2)" fill="#2A2A2A">
                                        <g transform="translate(-3.000000, -2.000000)" id="Rectangle">
                                            <rect x="0" y="0" width="22" height="23"></rect>
                                        </g>
                                    </g>
                                </g>
                            </g>
                        </g>
                    </g>
                </g>
            </g>
        </g>
    </g>
</svg>