<?xml version="1.0" encoding="UTF-8"?>
<svg width="22px" height="27px" viewBox="0 0 22 27" version="1.1" xmlns="http://www.w3.org/2000/svg" xmlns:xlink="http://www.w3.org/1999/xlink">
    <!-- Generator: sketchtool 50.2 (55047) - http://www.bohemiancoding.com/sketch -->
    <title>BF9E62E2-4F77-4B69-8E53-3EEC7D10D376</title>
    <desc>Created with sketchtool.</desc>
    <defs></defs>
    <g id="Components-" stroke="none" stroke-width="1" fill="none" fill-rule="evenodd">
        <g id="Components---Desktop" transform="translate(-966.000000, -966.000000)" fill="#FFFFFF" fill-rule="nonzero">
            <g id="Group" transform="translate(952.000000, 941.000000)">
                <g id="doc-tab">
                    <g id="icon/document" transform="translate(14.000000, 25.000000)">
                        <path d="M17.7692308,0 L3.23076923,0 C1.44657692,0 0,1.51115625 0,3.375 L0,23.625 C0,25.4888438 1.44657692,27 3.23076923,27 L12.9230769,27 L12.9230769,18.5625 L21,18.5625 L21,3.375 C21,1.51115625 19.5534231,0 17.7692308,0 Z M16.1538462,14.34375 L4.84615385,14.34375 C4.40030769,14.34375 4.03846154,13.96575 4.03846154,13.5 C4.03846154,13.03425 4.40030769,12.65625 4.84615385,12.65625 L16.1538462,12.65625 C16.5996923,12.65625 16.9615385,13.03425 16.9615385,13.5 C16.9615385,13.96575 16.5996923,14.34375 16.1538462,14.34375 Z M16.1538462,10.96875 L4.84615385,10.96875 C4.40030769,10.96875 4.03846154,10.59075 4.03846154,10.125 C4.03846154,9.65925 4.40030769,9.28125 4.84615385,9.28125 L16.1538462,9.28125 C16.5996923,9.28125 16.9615385,9.65925 16.9615385,10.125 C16.9615385,10.59075 16.5996923,10.96875 16.1538462,10.96875 Z M16.1538462,7.59375 L4.84615385,7.59375 C4.40030769,7.59375 4.03846154,7.21575 4.03846154,6.75 C4.03846154,6.28425 4.40030769,5.90625 4.84615385,5.90625 L16.1538462,5.90625 C16.5996923,5.90625 16.9615385,6.28425 16.9615385,6.75 C16.9615385,7.21575 16.5996923,7.59375 16.1538462,7.59375 Z M15,20 L21.8923077,20 L15,26.8923077 L15,20 Z"></path>
                    </g>
                </g>
            </g>
        </g>
    </g>
</svg>