<?xml version="1.0" encoding="UTF-8" standalone="no"?><!DOCTYPE svg PUBLIC "-//W3C//DTD SVG 1.1//EN" "http://www.w3.org/Graphics/SVG/1.1/DTD/svg11.dtd"><svg width="100%" height="100%" viewBox="0 0 22 27" version="1.1" xmlns="http://www.w3.org/2000/svg" xmlns:xlink="http://www.w3.org/1999/xlink" xml:space="preserve" style="fill-rule:evenodd;clip-rule:evenodd;stroke-linejoin:round;stroke-miterlimit:1.41421;"><path id="icon.2f.document" d="M17.769,0l-14.538,0c-1.784,0 -3.231,1.511 -3.231,3.375l0,20.25c0,1.864 1.447,3.375 3.231,3.375l9.692,0l0,-8.438l8.077,0.001l0,-15.188c0,-1.864 -1.447,-3.375 -3.231,-3.375Zm-1.615,14.344l-11.308,0c-0.446,0 -0.808,-0.378 -0.808,-0.844c0,-0.466 0.362,-0.844 0.808,-0.844l11.308,0c0.446,0 0.808,0.378 0.808,0.844c0,0.466 -0.362,0.844 -0.808,0.844Zm0,-3.375l-11.308,0c-0.446,0 -0.808,-0.378 -0.808,-0.844c0,-0.466 0.362,-0.844 0.808,-0.844l11.308,0c0.446,0 0.808,0.378 0.808,0.844c0,0.466 -0.362,0.844 -0.808,0.844Zm0,-3.375l-11.308,0c-0.446,0 -0.808,-0.378 -0.808,-0.844c0,-0.466 0.362,-0.844 0.808,-0.844l11.308,0c0.446,0 0.808,0.378 0.808,0.844c0,0.466 -0.362,0.844 -0.808,0.844Zm-1.154,12.406l6.892,0l-6.892,6.892l0,-6.892Z" style="fill:#1A7AAA;fill-rule:nonzero;"/></svg>