<?xml version="1.0" encoding="UTF-8"?>
<svg width="21px" height="18px" viewBox="0 0 21 18" version="1.1" xmlns="http://www.w3.org/2000/svg" xmlns:xlink="http://www.w3.org/1999/xlink">
    <!-- Generator: Sketch 53.2 (72643) - https://sketchapp.com -->
    <title>done-tick</title>
    <desc>Created with Sketch.</desc>
    <g id="Landing-Page" stroke="none" stroke-width="1" fill="none" fill-rule="evenodd">
        <g id="Landing-Page---hero---phone-deals" transform="translate(-909.000000, -417.000000)" fill="#FFFFFF" fill-rule="nonzero">
            <g id="Group" transform="translate(735.000000, 179.000000)">
                <g id="done-tick" transform="translate(174.000000, 238.000000)">
                    <path d="M20.2108027,1.02697699 L19.6485004,0.545585339 C18.7151265,-0.253690358 17.3125394,-0.164597487 16.4884831,0.746001629 L7.0818661,11.1394872 L4.24243645,8.70257529 C3.31004744,7.90240354 1.90724621,7.98970431 1.08220504,8.89932204 L0.585030806,9.44753335 C0.181844813,9.89184564 -0.027498466,10.477947 0.00290319658,11.0766357 C0.0336045939,11.6749831 0.301481779,12.2367205 0.748043665,12.6383211 L5.95285112,17.3878501 C6.40348083,17.8095478 7.00740344,18.0294639 7.62468565,17.9968221 C8.24196785,17.9642656 8.81908561,17.6816688 9.22231442,17.214742 L20.4514468,4.21307118 C20.8437567,3.75881701 21.0387984,3.1679367 20.9935813,2.57048537 C20.948407,1.97260736 20.6669133,1.41748367 20.2108027,1.02697699 Z" id="Shape"></path>
                </g>
            </g>
        </g>
    </g>
</svg>