<?xml version="1.0" encoding="UTF-8" standalone="no"?><!DOCTYPE svg PUBLIC "-//W3C//DTD SVG 1.1//EN" "http://www.w3.org/Graphics/SVG/1.1/DTD/svg11.dtd"><svg width="100%" height="100%" viewBox="0 0 472 472" version="1.1" xmlns="http://www.w3.org/2000/svg" xmlns:xlink="http://www.w3.org/1999/xlink" xml:space="preserve" style="fill-rule:evenodd;clip-rule:evenodd;stroke-linejoin:round;stroke-miterlimit:1.41421;"><g><path d="M457.7,230.15c-7.5,0 -13.5,6 -13.5,13.5l0,122.8c0,33.4 -27.2,60.5 -60.5,60.5l-296.2,0c-33.4,0 -60.5,-27.2 -60.5,-60.5l0,-124.8c0,-7.5 -6,-13.5 -13.5,-13.5c-7.5,0 -13.5,6 -13.5,13.5l0,124.8c0,48.3 39.3,87.5 87.5,87.5l296.2,0c48.3,0 87.5,-39.3 87.5,-87.5l0,-122.8c0,-7.4 -6,-13.5 -13.5,-13.5Z" style="fill:#bbb;fill-rule:nonzero;"/><path d="M226.1,346.75c2.6,2.6 6.1,4 9.5,4c3.4,0 6.9,-1.3 9.5,-4l85.8,-85.8c5.3,-5.3 5.3,-13.8 0,-19.1c-5.3,-5.3 -13.8,-5.3 -19.1,0l-62.7,62.8l0,-273.9c0,-7.5 -6,-13.5 -13.5,-13.5c-7.5,0 -13.5,6 -13.5,13.5l0,273.9l-62.8,-62.8c-5.3,-5.3 -13.8,-5.3 -19.1,0c-5.3,5.3 -5.3,13.8 0,19.1l85.9,85.8Z" style="fill:#bbb;fill-rule:nonzero;"/></g></svg>