<?xml version="1.0" encoding="UTF-8"?>
<svg width="30px" height="30px" viewBox="0 0 30 30" version="1.1" xmlns="http://www.w3.org/2000/svg" xmlns:xlink="http://www.w3.org/1999/xlink">
    <!-- Generator: sketchtool 50.2 (55047) - http://www.bohemiancoding.com/sketch -->
    <title>44E2A21E-CBC1-486C-A587-38669E145F6A</title>
    <desc>Created with sketchtool.</desc>
    <defs></defs>
    <g id="Components-" stroke="none" stroke-width="1" fill="none" fill-rule="evenodd">
        <g id="Components---Desktop" transform="translate(-736.000000, -5232.000000)">
            <g id="element-/-refer-code" transform="translate(97.000000, 5097.000000)">
                <g id="Group">
                    <g id="icon/social/mail" transform="translate(639.000000, 135.000000)">
                        <g id="icon/social/google">
                            <path d="M15,0 C23.25,0 30,6.75 30,15 C30,23.25 23.25,30 15,30 C6.75,30 0,23.249897 0,15 C0,6.75010298 6.75,0 15,0 Z" id="Shape" fill="#1A7AAA" fill-rule="nonzero"></path>
                            <path d="M8.9290546,12.7240288 C9.11892805,12.8587365 9.69127683,13.2588185 10.6461303,13.9240684 C11.601013,14.5893184 12.3325187,15.1015437 12.8406766,15.460774 C12.8965062,15.5001509 13.0151185,15.585748 13.196572,15.717683 C13.3780549,15.8497065 13.5288506,15.9563931 13.6488417,16.0377722 C13.7689208,16.1191219 13.9140836,16.2103821 14.0844769,16.3114055 C14.2548114,16.4123403 14.4153765,16.4882627 14.5661429,16.5385237 C14.7169385,16.5891976 14.8565272,16.6142986 14.9849382,16.6142986 L14.9933581,16.6142986 L15.0018074,16.6142986 C15.1302184,16.6142986 15.2698658,16.5891681 15.4206614,16.5385237 C15.5713691,16.4882627 15.7320809,16.4122518 15.9022688,16.3114055 C16.0725446,16.2102641 16.2177075,16.1190924 16.3377866,16.0377722 C16.4578657,15.9563931 16.608544,15.8497065 16.7900856,15.717683 C16.9715098,15.58563 17.0902687,15.5001509 17.1460983,15.460774 C17.6597424,15.1015437 18.9665306,14.1892068 21.0660522,12.7238518 C21.47367,12.4376534 21.8142217,12.0923157 22.0877956,11.6880747 C22.3615748,11.2840108 22.4983177,10.8601256 22.4983177,10.4166551 C22.4983177,10.0460689 22.3656234,9.72884082 22.1003521,9.46500023 C21.8351102,9.20110065 21.5209623,9.0692246 21.1581139,9.0692246 L8.82851437,9.0692246 C8.39857069,9.0692246 8.06770035,9.21517018 7.83596203,9.50706135 C7.60425304,9.7990115 7.48839855,10.1639345 7.48839855,10.6018007 C7.48839855,10.9554857 7.64201064,11.3387551 7.94908812,11.7513729 C8.25613626,12.1640202 8.58289933,12.4882683 8.9290546,12.7240288 Z" id="Path" fill="#FFFFFF"></path>
                            <path d="M21.6606103,13.6068113 C19.829235,14.8530415 18.4386289,15.821568 17.489467,16.5121844 C17.1711825,16.747886 16.9129816,16.9318812 16.7146882,17.0637278 C16.5163948,17.1956628 16.2526784,17.3304 15.9231576,17.4678803 C15.5937541,17.605567 15.2867646,17.6742039 15.0019251,17.6742039 L14.9933878,17.6742039 L14.9849679,17.6742039 C14.7001871,17.6742039 14.3930215,17.605567 14.0636181,17.4678803 C13.7342146,17.3304 13.4703222,17.1956628 13.2720875,17.0637278 C13.0739114,16.9318812 12.8156225,16.747886 12.4973673,16.5121844 C11.743477,15.9564232 10.3558634,14.9878376 8.33446791,13.6068113 C8.0160954,13.3936151 7.73410162,13.1492417 7.48839855,12.8741927 L7.48839855,19.5604651 C7.48839855,19.9312283 7.61956732,20.2482794 7.88205154,20.5121495 C8.14447709,20.7761081 8.46003318,20.9080431 8.82860245,20.9080431 L21.1582319,20.9080431 C21.5267131,20.9080431 21.8422399,20.7761081 22.1046948,20.5121495 C22.3672377,20.2481909 22.4983478,19.9312578 22.4983478,19.5604651 L22.4983478,12.8741927 C22.2581895,13.143549 21.9790708,13.3879224 21.6606103,13.6068113 Z" id="Path" fill="#FFFFFF"></path>
                        </g>
                    </g>
                </g>
            </g>
        </g>
    </g>
</svg>