<?xml version="1.0" encoding="UTF-8"?>
<svg width="40px" height="40px" viewBox="0 0 40 40" version="1.1" xmlns="http://www.w3.org/2000/svg" xmlns:xlink="http://www.w3.org/1999/xlink">
    <!-- Generator: sketchtool 50.2 (55047) - http://www.bohemiancoding.com/sketch -->
    <title>07C861E9-9136-44C9-ADC8-CA52A15D513F</title>
    <desc>Created with sketchtool.</desc>
    <defs></defs>
    <g id="Components-" stroke="none" stroke-width="1" fill="none" fill-rule="evenodd">
        <g id="Components---Desktop" transform="translate(-1352.000000, -6222.000000)" fill="#3A5997">
            <g id="footer" transform="translate(0.000000, 6098.000000)">
                <g id="social-share" transform="translate(1233.000000, 124.000000)">
                    <g id="icon/social/facebook" transform="translate(119.000000, 0.000000)">
                        <path d="M20.0012788,0 C8.95356718,0 0,8.95356718 0,20.0012788 C0,31.0464328 8.95356718,40 20.0012788,40 C31.0464328,40 40,31.0464328 40,20.0012788 C40,8.95356718 31.0464328,0 20.0012788,0 Z M27.6300208,10.1842735 L24.8642566,10.1863195 C22.6944079,10.1863195 22.2749652,11.2175348 22.2749652,12.7300861 L22.2749652,16.0646556 L27.4479213,16.0646556 L27.4458753,21.2897863 L22.2749652,21.2897863 L22.2749652,34.6930268 L16.8800113,34.6930268 L16.8800113,21.2877403 L12.3704907,21.2877403 L12.3704907,16.0646556 L16.8800113,16.0646556 L16.8800113,12.2124324 C16.8800113,7.74281001 19.611504,5.30697323 23.5997903,5.30697323 L27.6320669,5.31311142 L27.6320669,10.1842735 L27.6300208,10.1842735 Z"></path>
                    </g>
                </g>
            </g>
        </g>
    </g>
</svg>