<?xml version="1.0" encoding="UTF-8"?>
<svg width="40px" height="40px" viewBox="0 0 40 40" version="1.1" xmlns="http://www.w3.org/2000/svg" xmlns:xlink="http://www.w3.org/1999/xlink">
    <!-- Generator: sketchtool 50.2 (55047) - http://www.bohemiancoding.com/sketch -->
    <title>932C1BBC-FC07-438E-AE1D-5906EDF5B0B0</title>
    <desc>Created with sketchtool.</desc>
    <defs></defs>
    <g id="Components-" stroke="none" stroke-width="1" fill="none" fill-rule="evenodd">
        <g id="Components---Desktop" transform="translate(-188.000000, -3553.000000)">
            <g id="icon/social/facebook-messenger" transform="translate(188.000000, 3553.000000)">
                <path d="M20,0 C31,0 40,9 40,20 C40,31 31,40 20,40 C9,40 0,30.9998627 0,20 C0,9.00013731 9,0 20,0 Z" id="Shape" fill="#0084FF" fill-rule="nonzero"></path>
                <g id="messenger" stroke-width="1" fill-rule="evenodd" transform="translate(7.000000, 7.000000)" fill="#FFFFFF">
                    <path d="M13.5,0.0026253137 C20.7960645,-0.141220073 26.8334121,5.64402204 27,12.9389025 C26.8334121,20.2337302 20.7960645,26.0189724 13.5,25.875127 C11.7897187,25.8785544 10.0934121,25.56703 8.49598242,24.9561089 L5.36060742,26.9145259 C5.27122266,26.9703662 5.16791602,27 5.0625,27 C4.7518418,27 4.49998242,26.7481651 4.49998242,26.4375371 L4.49998242,22.5678958 C1.66345312,20.1710352 0.0190371094,16.6522016 0,12.9388498 C0.166587891,5.64402204 6.20393555,-0.141220073 13.5,0.0026253137 Z M21.8865711,9.22972692 C21.7191938,9.00185085 21.4123353,8.93365945 21.1665954,9.06972085 L15.3166676,12.3094821 L11.6773441,9.13941214 C11.4541743,8.94506932 11.121318,8.95797908 10.9134938,9.1691421 L4.16355672,16.0257797 C3.94455291,16.2495847 3.94560758,16.6113795 4.16598248,16.8338452 C4.34216639,17.0117428 4.61232207,17.0511685 4.83069308,16.9308559 L10.680621,13.6910946 L14.3233194,16.8622895 C14.5464892,17.0566324 14.8793455,17.0437226 15.0871697,16.8325596 L21.8371068,9.97592194 C22.0338042,9.77424037 22.0548977,9.4564245 21.8865711,9.22972692 Z" id="Combined-Shape" fill-rule="nonzero"></path>
                </g>
            </g>
        </g>
    </g>
</svg>