<?xml version="1.0" encoding="UTF-8"?>
<svg width="30px" height="38px" viewBox="0 0 30 38" version="1.1" xmlns="http://www.w3.org/2000/svg" xmlns:xlink="http://www.w3.org/1999/xlink">
    <!-- Generator: sketchtool 59.1 (101010) - https://sketch.com -->
    <title>CFDED432-90E6-4489-A9D0-390337176A2D</title>
    <desc>Created with sketchtool.</desc>
    <g id="Widgets" stroke="none" stroke-width="1" fill="none" fill-rule="evenodd">
        <g id="Manage-your-home" transform="translate(-849.000000, -1836.000000)" stroke="#1A7AAA" stroke-width="1.5">
            <g id="Group-12" transform="translate(849.000000, 1836.000000)">
                <g id="Group-11">
                    <path d="M2.7122,0.7504 L18.8752,0.7504 C19.3962,0.7504 19.8952,0.9564 20.2632,1.3244 L27.8902,8.9524 C28.2582,9.3204 28.4652,9.8194 28.4652,10.3404 L28.4652,34.6634 C28.4652,35.7474 27.5862,36.6264 26.5022,36.6264 L2.7122,36.6264 C1.6282,36.6264 0.7502,35.7474 0.7502,34.6634 L0.7502,2.7124 C0.7502,1.6284 1.6282,0.7504 2.7122,0.7504 Z" id="Stroke-1"></path>
                    <path d="M18.6878,0.7504 L18.6878,8.5234 C18.6878,9.6074 19.5668,10.4864 20.6508,10.4864 L28.4648,10.4864" id="Stroke-3"></path>
                    <line x1="7.7884" y1="17.6439" x2="21.7884" y2="17.6439" id="Stroke-5" stroke-linecap="round"></line>
                    <line x1="7.7884" y1="23.4633" x2="21.7884" y2="23.4633" id="Stroke-7" stroke-linecap="round"></line>
                    <line x1="7.7884" y1="29.2836" x2="21.7884" y2="29.2836" id="Stroke-9" stroke-linecap="round"></line>
                </g>
            </g>
        </g>
    </g>
</svg>