<?xml version="1.0" encoding="UTF-8"?>
<svg width="135px" height="123px" viewBox="0 0 135 123" version="1.1" xmlns="http://www.w3.org/2000/svg" xmlns:xlink="http://www.w3.org/1999/xlink">
    <!-- Generator: Sketch 60.1 (88133) - https://sketch.com -->
    <title>Group 25@2x</title>
    <desc>Created with Sketch.</desc>
    <defs>
        <polygon id="path-1" points="0.000624277457 0.171888889 134.845335 0.171888889 134.845335 55.2751178 0.000624277457 55.2751178"></polygon>
        <polygon id="path-3" points="0 123 135 123 135 0 0 0"></polygon>
    </defs>
    <g id="Widgets" stroke="none" stroke-width="1" fill="none" fill-rule="evenodd">
        <g id="Group-25">
            <g id="Group-3">
                <mask id="mask-2" fill="white">
                    <use xlink:href="#path-1"></use>
                </mask>
                <g id="Clip-2"></g>
                <path d="M67.4225896,0.171655556 L2.47276301,44.8176556 C0.923774566,45.8816556 0.000624277457,47.6363222 0.000624277457,49.5107667 L0.000624277457,49.5644333 C0.000624277457,54.1587667 5.17276301,56.8654333 8.96680925,54.2575444 L67.4225896,14.0752111 L125.87915,54.2575444 C129.673197,56.8654333 134.845335,54.1587667 134.845335,49.5644333 L134.845335,49.5107667 C134.845335,47.6363222 133.921405,45.8816556 132.373197,44.8176556 L67.4225896,0.171655556 Z" id="Fill-1" fill="#1B7AAA" mask="url(#mask-2)"></path>
            </g>
            <polygon id="Fill-4" fill="#155F7C" points="32 24.8785814 32 0 14 0 14 37"></polygon>
            <polyline id="Fill-6" fill="#00BFF8" points="40.320985 121 121 121 121 51.0326961 67.5 14 14 50.8960671 14 121 25.2824298 121"></polyline>
            <path d="M122,122 L39.845593,122 C38.9944824,122 38.3032964,121.311664 38.3032964,120.462327 C38.3032964,119.613768 38.9944824,118.924654 39.845593,118.924654 L118.915407,118.924654 L118.915407,51.5664932 L67,15.7380151 L15.0845933,51.4319371 L15.0845933,118.924654 L24.8165868,118.924654 C25.6684775,118.924654 26.3588834,119.613768 26.3588834,120.462327 C26.3588834,121.311664 25.6684775,122 24.8165868,122 L12,122 L12,49.8188195 L67,12 L122,49.9564867 L122,122 Z" id="Fill-8" fill="#1B7AAA"></path>
            <path d="M36,120.5 C36,121.881336 34.8806847,123 33.5004195,123 C32.1193153,123 31,121.881336 31,120.5 C31,119.119503 32.1193153,118 33.5004195,118 C34.8806847,118 36,119.119503 36,120.5" id="Fill-10" fill="#1B7AAA"></path>
            <mask id="mask-4" fill="white">
                <use xlink:href="#path-3"></use>
            </mask>
            <g id="Clip-13"></g>
            <polygon id="Fill-12" fill="#FAE920" mask="url(#mask-4)" points="32 96 105 96 105 63 32 63"></polygon>
            <path d="M34.0697817,94.9242205 L103.929442,94.9242205 L103.929442,65.0757795 L34.0697817,65.0757795 L34.0697817,94.9242205 Z M31,98 L107,98 L107,62 L31,62 L31,98 Z" id="Fill-14" fill="#D3B902" mask="url(#mask-4)"></path>
            <path d="M32,72.9241886 C32.2733522,72.9464861 32.5369996,73 32.8168217,73 C37.8883947,73 42,69.221323 42,64.5604096 C42,64.3679082 41.9522847,64.1887852 41.9385362,64 L32,64 L32,72.9241886 Z" id="Fill-15" fill="#FAE920" mask="url(#mask-4)"></path>
            <path d="M34.1496324,65.2000249 L34.1496324,71.7085227 C37.6879902,71.2771587 40.3501225,68.5853826 40.7890319,65.2000249 L34.1496324,65.2000249 Z M33.3777574,75 C33.1324142,75 32.8942402,74.9708647 32.6520833,74.9376829 L31.2947304,74.7474942 L31,73.3166283 L31,62 L43.8438725,62 L43.9338848,63.5045135 C43.9792892,63.8274295 44,64.0143809 44,64.2102347 C44,70.1603063 39.2349265,75 33.3777574,75 L33.3777574,75 Z" id="Fill-16" fill="#D3B902" mask="url(#mask-4)"></path>
            <path d="M106,73 L106,64 L97.0602378,64 C97.0467635,64.1887852 97,64.3679082 97,64.5604096 C97,69.221323 101.02959,73 106,73" id="Fill-17" fill="#FAE920" mask="url(#mask-4)"></path>
            <path d="M98.1598746,65.2000249 C98.5634796,68.3854822 100.891066,70.9623358 103.901254,71.6316379 L103.901254,65.2000249 L98.1598746,65.2000249 Z M107,75 L105.450627,75 C99.6888715,75 95,70.1603063 95,64.2102347 L95.234326,62.2630268 L96.6105016,62 L107,62 L107,75 Z" id="Fill-18" fill="#D3B902" mask="url(#mask-4)"></path>
            <path d="M32.8168217,88 C32.5369996,88 32.2733522,88.0570674 32,88.0808454 L32,97 L42,97 C42,92.0295905 37.8883947,88 32.8168217,88" id="Fill-19" fill="#FAE920" mask="url(#mask-4)"></path>
            <path d="M34.1496324,94.9004442 L40.6822917,94.9004442 C40.0091912,91.829109 37.3813113,89.4664228 34.1496324,89.1371832 L34.1496324,94.9004442 Z M44,98 L31,98 L31,86.2155736 L32.4314338,86.0862294 C32.8942402,86.0282205 33.1324142,86 33.3777574,86 C39.2349265,86 44,90.6869611 44,96.4502221 L44,98 Z" id="Fill-20" fill="#D3B902" mask="url(#mask-4)"></path>
            <path d="M106,88 C101.02959,88 97,92.0295905 97,97 L106,97 L106,88 Z" id="Fill-21" fill="#FAE920" mask="url(#mask-4)"></path>
            <path d="M98.2643198,94.9004442 L103.901052,94.9004442 L103.901052,89.2626078 C101.088956,89.8701333 98.869375,92.0877972 98.2643198,94.9004442 L98.2643198,94.9004442 Z M107,98 L95,98 L95,96.4502221 C95,90.6869611 99.688394,86 105.45131,86 L107,86 L107,98 Z" id="Fill-22" fill="#D3B902" mask="url(#mask-4)"></path>
            <path d="M81,79.5 C81,86.4040922 75.4033195,92 68.4992273,92 C61.5959078,92 56,86.4040922 56,79.5 C56,72.5959078 61.5959078,67 68.4992273,67 C75.4033195,67 81,72.5959078 81,79.5" id="Fill-23" fill="#D3B902" mask="url(#mask-4)"></path>
            <path d="M74,85.3961503 C74,86.0578674 73.5566977,86.5853346 72.9704465,86.7553315 C72.5271442,86.9237397 71.9770318,87 71.3249277,87 C70.4118214,87 69.7452618,86.7553315 69.1541921,86.5297281 C68.7157083,86.3406661 68.2956955,86.1889398 67.8539994,86.1889398 C67.3592997,86.1889398 66.9963058,86.3406661 66.577096,86.6425298 C66.3490202,86.810938 66.1394154,86.9237397 65.7940893,86.9237397 C65.1652747,86.9237397 64.5918728,86.3406661 64.5918728,85.643202 C64.5918728,85.2277421 64.7830067,84.8504125 65.1090588,84.6240147 C66.0036942,83.9440269 66.422904,83.2831042 66.422904,82.6603116 C66.422904,82.3219065 66.3490202,82.0017721 66.23177,81.6999083 L64.8994539,81.6999083 C64.4007388,81.6999083 64,81.2820654 64,80.7943171 C64,80.302597 64.4007388,79.8879316 64.8994539,79.8879316 L65.1652747,79.8879316 C64.8247671,79.3215399 64.517186,78.717018 64.517186,78.0004888 C64.517186,75.4330584 67.112753,74 69.3268551,74 C70.7940893,74 71.9585609,74.3018637 72.8347253,74.9818515 C73.1985223,75.2447907 73.4265981,75.6618393 73.4265981,76.1313168 C73.4265981,76.9241063 72.7977835,77.5675527 71.9963058,77.5675527 C71.595567,77.5675527 71.2502409,77.4150321 70.9852233,77.1505041 C70.6398972,76.8113046 70.2206874,76.623037 69.7452618,76.623037 C68.808866,76.623037 68.1246386,77.2259701 68.1246386,78.0560953 C68.1246386,78.717018 68.3896563,79.2079438 68.673948,79.6996639 L68.7903951,79.8879316 L70.6961131,79.8879316 C71.1948281,79.8879316 71.6140379,80.302597 71.6140379,80.7943171 C71.6140379,81.2820654 71.1948281,81.6999083 70.6961131,81.6999083 L69.344523,81.6999083 L69.344523,81.8309808 C69.344523,82.5840513 68.846611,83.3768408 68.1985223,83.7366942 C68.5061034,83.6238925 68.8642788,83.5849679 69.1164472,83.5849679 C69.6665596,83.5849679 70.0303566,83.7366942 70.3933505,83.868561 C70.7194025,84.0202872 71.0221651,84.1330889 71.4413749,84.1330889 C71.7256666,84.1330889 71.9770318,84.0941644 72.1496948,84.0385579 C72.2797944,83.9996334 72.4347896,83.9813627 72.5697077,83.9813627 C73.3711854,83.9813627 74,84.6240147 74,85.3961503" id="Fill-24" fill="#FFFFFF" mask="url(#mask-4)"></path>
        </g>
    </g>
</svg>