<?xml version="1.0" encoding="UTF-8"?>
<svg width="75px" height="75px" viewBox="0 0 75 75" version="1.1" xmlns="http://www.w3.org/2000/svg" xmlns:xlink="http://www.w3.org/1999/xlink">
    <!-- Generator: Sketch 53.2 (72643) - https://sketchapp.com -->
    <title>icon-vote</title>
    <desc>Created with Sketch.</desc>
    <g id="icon-vote" stroke="none" stroke-width="1" fill="none" fill-rule="evenodd">
        <g id="thumbs-up-hand-symbol-copy" transform="translate(9.000000, 0.000000)" fill="#FFFFFF" fill-rule="nonzero">
            <path d="M54.0847283,28.8778087 C55.3614135,27.4560977 56,25.7748266 56,23.8336397 C56,22.0732792 55.3375092,20.5500682 54.0170401,19.2629395 C52.6938879,17.9759293 51.12718,17.33278 49.3165507,17.33278 L39.6716504,17.33278 C39.7643406,17.0168969 39.8572746,16.7460722 39.9499648,16.5204245 C40.0418013,16.2947768 40.1708357,16.0462441 40.3326777,15.7754195 C40.4946415,15.5044762 40.6111141,15.3012391 40.6805097,15.1660639 C41.0982253,14.3991225 41.4180064,13.7667635 41.6387554,13.2706468 C41.8591385,12.7735815 42.0785459,12.096757 42.2997827,11.2391059 C42.5206536,10.3819292 42.6304183,9.52392245 42.6304183,8.66627142 C42.6304183,8.12485919 42.6237104,7.68435406 42.612734,7.34606035 C42.6018794,7.0075295 42.5427285,6.49955534 42.4391838,5.82237505 C42.3340536,5.14555048 42.1945305,4.58125333 42.0208584,4.13007648 C41.8464545,3.67878105 41.5676523,3.17056975 41.1853053,2.6067469 C40.8021046,2.04185688 40.3380439,1.58546274 39.7920256,1.23543013 C39.2461293,0.885634671 38.5499773,0.592280785 37.702716,0.355487046 C36.8546009,0.118456157 35.8975749,0 34.8290767,0 C34.2256149,0 33.7037448,0.21450169 33.2622469,0.643386494 C32.7980643,1.09468192 32.4027895,1.6588605 32.0781299,2.33568507 C31.7529826,3.01286536 31.5265014,3.59969171 31.3986866,4.09640126 C31.2709937,4.59287366 31.1257384,5.28143713 30.9638965,6.16138021 C30.754246,7.10974091 30.5982582,7.79201992 30.493128,8.20952155 C30.3888515,8.62702318 30.1851771,9.17424557 29.8836901,9.85118871 C29.5815933,10.5286062 29.222175,11.0698998 28.8042155,11.476374 C28.0383019,12.2210233 26.8661371,13.5752653 25.2872332,15.5386257 C24.1494613,16.982866 22.9772965,18.348254 21.770251,19.6347898 C20.5629615,20.9215628 19.6809413,21.5872414 19.1239465,21.6324183 C18.5440231,21.6774767 18.0448378,21.908816 17.6268783,22.3265548 C17.2089188,22.7440564 17,23.2350744 17,23.7991344 L17,45.4994961 C17,46.0863224 17.2203831,46.5882492 17.6615151,47.0057509 C18.1024033,47.4237268 18.6247612,47.6436829 19.2283449,47.6663307 C20.0407255,47.6889785 21.8746494,48.1849766 24.7301165,49.1563408 C26.5173294,49.7422185 27.9157314,50.1886524 28.9255664,50.4929152 C29.9351575,50.7971779 31.3463654,51.1246813 33.1556532,51.4749511 C34.9666484,51.824628 36.6377547,52 38.1694598,52 L38.7615792,52 L41.4081276,52 L42.6613963,52 C45.7495645,51.9549416 48.0351091,51.0744056 49.5213228,49.3595779 C50.8672817,47.8020988 51.4357408,45.7595304 51.2275537,43.2317543 C52.1327465,42.3967511 52.7599906,41.3364558 53.1077007,40.0496828 C53.5017559,38.6737416 53.5017559,37.3532934 53.1077007,36.0896425 C54.1753452,34.7128713 54.6745305,33.1668939 54.6044031,31.4515919 C54.6073302,30.7286417 54.433658,29.8712278 54.0847283,28.8778087 Z" id="Path"></path>
            <path d="M12.6924923,21 L2.30813919,21 C1.682734,21 1.14181913,21.2144997 0.685141996,21.6433806 C0.228464861,22.0720244 0,22.5798753 0,23.1666963 L0,44.8338966 C0,45.4198875 0.228464861,45.9279756 0.685268289,46.3572122 C1.1423243,46.7853817 1.68323917,47 2.30826549,47 L12.6924923,47 C13.3173923,47 13.8580546,46.7853817 14.3149843,46.3572122 C14.7716614,45.9279756 15,45.4200061 15,44.8338966 L15,23.1666963 C15,22.5798753 14.7715351,22.0721429 14.3149843,21.6433806 C13.8581809,21.2143812 13.3175186,21 12.6924923,21 Z M8.54564666,42.0401828 C8.08896953,42.4576806 7.54818095,42.6663702 6.92315464,42.6663702 C6.27400628,42.6663702 5.72702933,42.4576806 5.28260266,42.0401828 C4.8379234,41.622685 4.61564692,41.1093796 4.61564692,40.4999111 C4.61564692,39.9132086 4.83779711,39.4052391 5.28260266,38.9765954 C5.72715562,38.5477145 6.27400628,38.3329776 6.92315464,38.3329776 C7.54818095,38.3329776 8.08896953,38.5477145 8.54564666,38.9765954 C9.00245009,39.4051206 9.23091495,39.9130901 9.23091495,40.4999111 C9.23091495,41.1093796 9.00295527,41.6225664 8.54564666,42.0401828 Z" id="Shape"></path>
            <path d="M9.43123772,58 L14.0947937,72.1027851 L18.7030943,58 L21.1674853,58 L15.2441061,74.5603448 L12.9123281,74.5603448 L7,58 L9.43123772,58 Z M27.6765717,73.2526525 C28.9953406,73.2526525 29.8996783,72.7434843 30.389612,71.7251326 C30.8795457,70.7067809 31.1245088,69.5738347 31.1245088,68.3262599 C31.1245088,67.1989334 30.9476933,66.2820548 30.594057,65.5755968 C30.0341328,64.4633012 29.0690147,63.9071618 27.6986739,63.9071618 C26.4830489,63.9071618 25.5989713,64.3806319 25.0464145,65.3275862 C24.4938577,66.2745405 24.2175835,67.416881 24.2175835,68.7546419 C24.2175835,70.0397942 24.4938577,71.1107384 25.0464145,71.9675066 C25.5989713,72.8242748 26.4756816,73.2526525 27.6765717,73.2526525 Z M27.7539293,62.1372679 C29.278986,62.1372679 30.5682659,62.6558304 31.6218075,63.6929708 C32.6753491,64.7301113 33.202112,66.2557371 33.202112,68.2698939 C33.202112,70.2164111 32.7379712,71.8247063 31.8096758,73.0948276 C30.8813804,74.3649489 29.4410707,75 27.4887033,75 C25.8605027,75 24.5675392,74.438224 23.6097741,73.3146552 C22.652009,72.1910863 22.1731336,70.6823702 22.1731336,68.7884615 C22.1731336,66.7592737 22.6777946,65.1434631 23.6871316,63.9409814 C24.6964687,62.7384997 26.0520544,62.1372679 27.7539293,62.1372679 Z M35.9648821,59.1160477 L37.9761788,59.1160477 L37.9761788,62.4867374 L39.8659136,62.4867374 L39.8659136,64.1438992 L37.9761788,64.1438992 L37.9761788,72.0238727 C37.9761788,72.4447413 38.1161577,72.7265687 38.3961198,72.8693634 C38.5508357,72.952034 38.8086917,72.9933687 39.1696955,72.9933687 C39.265472,72.9933687 39.3686144,72.9914899 39.4791257,72.9877321 C39.5896371,72.9839743 39.7185651,72.9745801 39.8659136,72.9595491 L39.8659136,74.5603448 C39.6375234,74.6279844 39.3999276,74.6768345 39.1531189,74.7068966 C38.9063102,74.7369586 38.6392451,74.7519894 38.3519155,74.7519894 C37.4236201,74.7519894 36.7937148,74.5096178 36.4621807,74.0248674 C36.1306467,73.5401169 35.9648821,72.9107024 35.9648821,72.1366048 L35.9648821,64.1438992 L34.3624754,64.1438992 L34.3624754,62.4867374 L35.9648821,62.4867374 L35.9648821,59.1160477 Z M46.78389,62.2161804 C47.6237763,62.2161804 48.4378644,62.4172173 49.2261788,62.8192971 C50.0144931,63.2213769 50.6149292,63.7418182 51.0275049,64.3806366 C51.4253458,64.989393 51.6905691,65.6995981 51.8231827,66.5112732 C51.9410615,67.067421 52,67.9542379 52,69.1717507 L43.3249018,69.1717507 C43.3617389,70.3967789 43.6453805,71.3794172 44.175835,72.119695 C44.7062895,72.8599728 45.5277449,73.2301061 46.6402259,73.2301061 C47.6790327,73.2301061 48.5078555,72.8806401 49.1267191,72.1816976 C49.4803554,71.77586 49.7308441,71.3061477 49.8781925,70.7725464 L51.8342338,70.7725464 C51.7826618,71.2159615 51.6113718,71.710099 51.3203585,72.2549735 C51.0293453,72.799848 50.7033417,73.2451353 50.3423379,73.5908488 C49.7382092,74.1920897 48.9904269,74.5979211 48.0989686,74.8083554 C47.620086,74.9286036 47.0785885,74.9887268 46.4744597,74.9887268 C45.000975,74.9887268 43.7522153,74.4419816 42.7281434,73.3484748 C41.7040715,72.254968 41.1920432,70.7237057 41.1920432,68.7546419 C41.1920432,66.8156402 41.7077552,65.2411643 42.7391945,64.0311671 C43.7706338,62.8211699 45.1188522,62.2161804 46.78389,62.2161804 Z M49.9555501,67.5596817 C49.8745084,66.680367 49.6866419,65.9776773 49.391945,65.4515915 C48.8467556,64.4745751 47.9368924,63.9860743 46.6623281,63.9860743 C45.7487675,63.9860743 44.9825669,64.3223883 44.3637033,64.9950265 C43.7448397,65.6676647 43.4169943,66.5225412 43.3801572,67.5596817 L49.9555501,67.5596817 Z" id="Vote"></path>
        </g>
    </g>
</svg>