<?xml version="1.0" encoding="UTF-8"?>
<svg width="30px" height="30px" viewBox="0 0 30 30" version="1.1" xmlns="http://www.w3.org/2000/svg" xmlns:xlink="http://www.w3.org/1999/xlink">
    <!-- Generator: sketchtool 50.2 (55047) - http://www.bohemiancoding.com/sketch -->
    <title>3668ECE4-FDB6-467F-9057-38D46D1875B5</title>
    <desc>Created with sketchtool.</desc>
    <defs></defs>
    <g id="Components-" stroke="none" stroke-width="1" fill="none" fill-rule="evenodd">
        <g id="Components---Desktop" transform="translate(-822.000000, -5232.000000)" fill-rule="nonzero">
            <g id="element-/-refer-code" transform="translate(97.000000, 5097.000000)">
                <g id="Group">
                    <g id="icon/social/link" transform="translate(725.000000, 135.000000)">
                        <g id="icon/social/google" fill="#2A2A2A">
                            <path d="M15,0 C23.25,0 30,6.75 30,15 C30,23.25 23.25,30 15,30 C6.75,30 0,23.249897 0,15 C0,6.75010298 6.75,0 15,0 Z" id="Shape"></path>
                        </g>
                        <g id="link-symbol-(1)" transform="translate(6.750000, 6.750000)" fill="#FFFFFF">
                            <path d="M15.2177097,7.47592792 L12.1202699,10.5723434 C10.41073,12.2828867 7.63742111,12.2828867 5.92759243,10.5723434 C5.65826553,10.3037758 5.44756958,10.0011635 5.26254272,9.6890922 L6.7017448,8.25000471 C6.77015961,8.18101256 6.85464017,8.14148016 6.93536603,8.09490775 C7.03486535,8.43485024 7.20855593,8.75666921 7.47589718,9.02404539 C8.32965623,9.87848667 9.71889203,9.87729528 10.5721456,9.02404539 L13.6686107,5.92770214 C14.5230196,5.07336917 14.5230196,3.68446435 13.6686107,2.83078124 C12.815321,1.97709812 11.4264462,1.97709812 10.5721456,2.83078124 L9.47104629,3.93306716 C8.57750196,3.58514598 7.61482076,3.49160403 6.67766423,3.62893849 L9.02402141,1.28266376 C10.7345721,-0.427554587 13.507159,-0.427554587 15.2177097,1.28266376 C16.9274301,2.9928099 16.9274301,5.76581788 15.2177097,7.47592792 Z M7.02945007,12.5674835 L5.92755648,13.6697694 C5.07386964,14.5230192 3.68456164,14.5230192 2.83073039,13.6697694 C1.97697135,12.8153281 1.97697135,11.4264233 2.83073039,10.5723431 L5.92755648,7.47592766 C6.78192927,6.62166692 8.17029859,6.62166692 9.02398543,7.47592766 C9.29071293,7.7427262 9.46458402,8.06447296 9.56502201,8.40398222 C9.64621721,8.35679606 9.72965078,8.31845505 9.79802949,8.24996834 L11.2371233,6.81145851 C11.0532878,6.49815977 10.8415088,6.19663049 10.5720735,5.92777411 C8.86267812,4.21755579 6.08911651,4.21755579 4.37889071,5.92777411 L1.28253396,9.02422563 C-0.427511321,10.7349494 -0.427511321,13.5071631 1.28253396,15.2177424 C2.99275976,16.9274192 5.76567151,16.9274192 7.47586121,15.2177424 L9.82283211,12.8709623 C8.88517016,13.009091 7.92223625,12.9147548 7.02945007,12.5674835 Z" id="Shape"></path>
                        </g>
                    </g>
                </g>
            </g>
        </g>
    </g>
</svg>