<?xml version="1.0" encoding="UTF-8"?>
<svg width="40px" height="40px" viewBox="0 0 40 40" version="1.1" xmlns="http://www.w3.org/2000/svg" xmlns:xlink="http://www.w3.org/1999/xlink">
    <!-- Generator: sketchtool 50.2 (55047) - http://www.bohemiancoding.com/sketch -->
    <title>732BFE49-7246-4E04-BE75-69C33BA968F1</title>
    <desc>Created with sketchtool.</desc>
    <defs></defs>
    <g id="Components-" stroke="none" stroke-width="1" fill="none" fill-rule="evenodd">
        <g id="Components---Desktop" transform="translate(-1233.000000, -6222.000000)" fill="#008CC9" fill-rule="nonzero">
            <g id="footer" transform="translate(0.000000, 6098.000000)">
                <g id="social-share" transform="translate(1233.000000, 124.000000)">
                    <g id="icon/social/linkedin">
                        <path d="M19.9750308,0 C8.9438193,0 0,8.9438193 0,19.9750308 C0,31.0062423 8.9438193,39.9500616 19.9750308,39.9500616 C31.0062423,39.9500616 39.9500616,31.0062423 39.9500616,19.9750308 C39.9500616,8.94135524 31.0062423,0 19.9750308,0 Z M14.9812731,29.6504312 L9.9875154,29.6504312 L9.9875154,12.1722382 L14.9812731,12.1722382 L14.9812731,29.6504312 Z M12.6391786,11.1011088 C11.3457906,11.1011088 10.2996304,10.0524025 10.2996304,8.75901437 C10.2996304,7.46562628 11.3483368,6.41691992 12.6391786,6.41691992 C13.9325667,6.41938398 14.9812731,7.46809035 14.9812731,8.75901437 C14.9812731,10.0524025 13.9325667,11.1011088 12.6391786,11.1011088 Z M32.459384,29.6504312 L27.4656263,29.6504312 L27.4656263,18.8439425 C27.4656263,17.5779877 27.1035729,16.6916632 25.5480082,16.6916632 C22.9687064,16.6916632 22.4718686,18.8439425 22.4718686,18.8439425 L22.4718686,29.6504312 L17.4781109,29.6504312 L17.4781109,12.1722382 L22.4718686,12.1722382 L22.4718686,13.8426283 C23.1859548,13.2958522 24.9687064,12.1747023 27.4656263,12.1747023 C29.083614,12.1747023 32.459384,13.1434908 32.459384,18.9961396 L32.459384,29.6504312 Z"></path>
                    </g>
                </g>
            </g>
        </g>
    </g>
</svg>