<?xml version="1.0" encoding="UTF-8"?>
<svg width="29px" height="38px" viewBox="0 0 29 38" version="1.1" xmlns="http://www.w3.org/2000/svg" xmlns:xlink="http://www.w3.org/1999/xlink">
    <!-- Generator: Sketch 52.6 (67491) - http://www.bohemiancoding.com/sketch -->
    <title>icon/lock@3x</title>
    <desc>Created with Sketch.</desc>
    <defs>
        <path d="M33.1944193,17.25 L30.7777526,17.25 L30.7777526,14.0833086 C30.7777526,7.97191406 25.7186875,3 19.5,3 C13.2813125,3 8.2222474,7.97191406 8.2222474,14.0833086 L8.2222474,17.25 L5.80558073,17.25 C5.3603099,17.25 5,17.6040977 5,18.0416914 L5,37.8333828 C5,39.5798242 6.44509115,41 8.2222474,41 L30.7778281,41 C32.5549089,41 34,39.5798242 34,37.8333086 L34,18.0416914 C34,17.6040977 33.6396901,17.25 33.1944193,17.25 Z M21.9119844,33.7876445 C21.9371328,34.011043 21.8640286,34.2352578 21.711401,34.4030664 C21.5587734,34.5708008 21.3400651,34.6666914 21.1111615,34.6666914 L17.8889141,34.6666914 C17.6600104,34.6666914 17.4413021,34.5708008 17.2886745,34.4030664 C17.1360469,34.235332 17.0628672,34.0111172 17.0880911,33.7876445 L17.5962708,29.296668 C16.7710547,28.7067773 16.2778281,27.773625 16.2778281,26.75 C16.2778281,25.0035586 17.7229193,23.5833086 19.5000755,23.5833086 C21.2772318,23.5833086 22.7223229,25.0034844 22.7223229,26.75 C22.7223229,27.773625 22.2290964,28.7067773 21.4038802,29.296668 L21.9119844,33.7876445 Z M25.9444193,17.25 L13.0555807,17.25 L13.0555807,14.0833086 C13.0555807,10.591168 15.9465938,7.75 19.5,7.75 C23.0534063,7.75 25.9444193,10.591168 25.9444193,14.0833086 L25.9444193,17.25 Z" id="path-1"></path>
    </defs>
    <g id="Register-Journey" stroke="none" stroke-width="1" fill="none" fill-rule="evenodd">
        <g id="Dashboard-verification-started" transform="translate(-294.000000, -905.000000)">
            <g id="page" transform="translate(-3.000000, 0.000000)">
                <g id="Secondary-Dash" transform="translate(98.000000, 773.000000)">
                    <g id="locked-over" transform="translate(30.000000, 29.000000)">
                        <g id="icon/lock" transform="translate(164.000000, 100.000000)">
                            <mask id="mask-2" fill="white">
                                <use xlink:href="#path-1"></use>
                            </mask>
                            <use id="Shape" fill="#000000" fill-rule="nonzero" xlink:href="#path-1"></use>
                            <g id="fill/task/red" mask="url(#mask-2)" fill="#EA2462" fill-rule="evenodd">
                                <polygon id="Rectangle" points="0 0 39 0 39 44 0 44"></polygon>
                            </g>
                        </g>
                    </g>
                </g>
            </g>
        </g>
    </g>
</svg>