<?xml version="1.0" encoding="UTF-8"?>
<svg width="177px" height="44px" viewBox="0 0 177 44" version="1.1" xmlns="http://www.w3.org/2000/svg" xmlns:xlink="http://www.w3.org/1999/xlink">
    <!-- Generator: sketchtool 50.2 (55047) - http://www.bohemiancoding.com/sketch -->
    <title>059F7767-F83F-44FD-9D8C-B38CD3257CFD-8967-00026A69C05F8A42@3x</title>
    <desc>Created with sketchtool.</desc>
    <defs></defs>
    <g id="Dashboard" stroke="none" stroke-width="1" fill="none" fill-rule="evenodd">
        <g transform="translate(-1221.000000, -2185.000000)" fill="#FDEA00" id="footer">
            <g transform="translate(-3.000000, 2151.000000)">
                <path d="M1313.92436,50.8578244 C1311.19302,50.8578244 1309.98963,52.5424529 1309.98963,56.2861973 C1309.98963,60.0768941 1311.23946,61.6679007 1313.83175,61.6679007 C1316.56309,61.6679007 1317.76648,60.1235637 1317.76648,56.2861973 C1317.76648,52.5894052 1316.70186,50.8578244 1313.92436,50.8578244 M1313.83175,68.6408934 C1304.11033,68.6408934 1302.02727,62.1360102 1302.02727,56.2861973 C1302.02727,50.4833369 1304.20295,43.8381622 1313.92436,43.8381622 C1323.50671,43.8381622 1325.72883,50.4833369 1325.72883,56.2861973 C1325.72883,62.1826797 1323.50671,68.6408934 1313.83175,68.6408934 M1339.06133,50.8578244 C1335.77432,50.8578244 1335.58938,53.1508538 1335.58938,56.2395278 C1335.58938,59.1876276 1335.63555,61.5742788 1339.01489,61.5742788 C1342.25545,61.5742788 1342.34806,59.2812495 1342.34806,56.2395278 C1342.34806,53.1975233 1342.25545,50.8578244 1339.06133,50.8578244 M1342.34806,68.6408934 C1339.20011,68.6408934 1337.39461,67.7982964 1335.63555,66.5814946 L1335.63555,77.5321451 L1327.02519,77.5321451 L1327.02519,44.3062717 L1331.88576,44.3062717 L1333.3211,47.11408 C1334.52449,45.6164125 1337.1635,43.8381622 1340.72778,43.8381622 C1349.0603,43.8381622 1351.14364,50.6239111 1351.14364,56.2395278 C1351.14364,61.8551445 1349.47719,68.6408934 1342.34806,68.6408934 M1364.52197,50.8578244 C1361.23524,50.8578244 1361.05002,53.1508538 1361.05002,56.2395278 C1361.05002,59.1876276 1361.09647,61.5742788 1364.47581,61.5742788 C1367.71609,61.5742788 1367.8087,59.2812495 1367.8087,56.2395278 C1367.8087,53.1975233 1367.71609,50.8578244 1364.52197,50.8578244 M1367.8087,68.6408934 C1364.66075,68.6408934 1362.85553,67.7982964 1361.09647,66.5814946 L1361.09647,77.5321451 L1352.48583,77.5321451 L1352.48583,44.3062717 L1357.34668,44.3062717 L1358.78174,47.11408 C1359.98541,45.6164125 1362.62414,43.8381622 1366.18842,43.8381622 C1374.52094,43.8381622 1376.60428,50.6239111 1376.60428,56.2395278 C1376.60428,61.8551445 1374.93783,68.6408934 1367.8087,68.6408934 Z M1401,67.9386161 C1401,72.7588709 1399.38,78 1389.4272,78 C1380.02979,78 1377.7615,75.1455221 1377.7615,69.9510626 L1386.04786,69.9510626 C1386.04786,71.5890215 1386.88108,72.8524928 1389.47336,72.8524928 C1392.06565,72.8524928 1392.34376,71.0272901 1392.34376,68.6873084 L1392.34376,66.0667438 C1391.27887,67.3774504 1389.05675,68.4064427 1386.88108,68.4064427 C1378.50212,68.4064427 1377.94645,63.6800926 1377.94645,57.5966493 L1377.94645,44.3062999 L1386.55708,44.3062999 L1386.55708,57.2221617 C1386.55708,60.7319929 1387.20508,61.3870633 1389.33459,61.3870633 C1391.55642,61.3870633 1392.29732,60.7319929 1392.29732,57.2221617 L1392.34376,44.3062999 L1401,44.3062999 L1401,67.9386161 Z M1291.19433,68.1728688 L1291.19433,56.473526 L1283.18581,56.473526 L1283.18581,68.1728688 L1274.29762,68.1728688 L1274.29762,38.2226303 L1283.18581,38.2226303 L1283.18581,49.3602418 L1291.19433,49.3602418 L1291.19433,38.2226303 L1300.08252,38.2226303 L1300.08252,68.1728688 L1291.19433,68.1728688 Z M1256.40256,69.9762641 L1231.32023,69.9762641 L1231.32023,53.4784456 L1243.69548,40.9681844 L1256.40256,53.8139004 L1256.40256,69.9762641 Z M1256.30155,46.7438917 L1256.36003,46.7438917 L1256.36003,37.3412552 L1251.46477,37.3412552 L1251.46477,41.8546225 L1243.6952,34 L1240.2487,37.4838093 L1240.24926,37.484375 L1224,53.9109165 L1227.44621,57.3950087 L1228.92716,55.897624 L1228.92716,69.9762641 L1228.92716,72.2492114 L1228.92716,72.3954426 L1258.79563,72.3954426 L1258.79563,72.2492114 L1258.79563,69.9762641 L1258.79563,56.2330789 L1259.94474,57.3950087 L1263.39123,53.9109165 L1256.30155,46.7438917 Z M1252.98891,60.0397744 C1250.48522,61.2339821 1247.21651,61.8916369 1243.78449,61.8916369 C1240.3535,61.8916369 1237.08478,61.2339821 1234.58041,60.0401174 C1234.42431,59.9656724 1234.23803,59.9986066 1234.11693,60.1210807 C1233.99548,60.2442409 1233.96529,60.430868 1234.04214,60.5859332 C1235.17974,62.8896118 1239.18639,64.4978985 1243.78483,64.4978985 C1248.38498,64.4978985 1252.39163,62.8889256 1253.52821,60.5855901 C1253.60437,60.430868 1253.57418,60.2438978 1253.45273,60.1210807 C1253.33094,59.9982636 1253.145,59.9646432 1252.98891,60.0397744 Z" id="Fill-10"></path>
            </g>
        </g>
    </g>
</svg>