<svg id="Layer_2" data-name="Layer 2" xmlns="http://www.w3.org/2000/svg" viewBox="0 0 1130 383"><defs><style>.cls-1{fill:#fff;}.cls-2{fill:#ffeb00;}.cls-3{fill:#fdea0c;}.cls-4{fill:#ef4136;}</style></defs><title>logo-hat</title><path class="cls-1" d="M402.22,85.29h13.4c5.13,0,9-3.24,9-8.26s-3.87-8.29-9-8.29h-13.4V85.29Zm34.19,23.06a6.29,6.29,0,0,1-4.85,10.07,6.63,6.63,0,0,1-5.33-2.7L412.75,96.28H402.22V112a6.4,6.4,0,0,1-6.31,6.39,6.48,6.48,0,0,1-6.48-6.39V64.5c0-4.31,2.43-6.75,6.74-6.75h21.34c12.51,0,20.16,8.2,20.16,19.36,0,9.64-5.48,15.21-11.44,17.36l10.18,13.88Z"/><path class="cls-1" d="M483.74,79.44v33.22a5.73,5.73,0,0,1-5.65,5.85,5.84,5.84,0,0,1-5.85-5.85v-.26A20.48,20.48,0,0,1,457,118.88c-9.53,0-14-5.22-14-13.68V79.44a5.71,5.71,0,1,1,11.42,0v21.25c0,6,3.16,8,8,8a12.75,12.75,0,0,0,9.89-4.94V79.44A5.73,5.73,0,0,1,478,73.68a5.8,5.8,0,0,1,5.74,5.76Z"/><path class="cls-1" d="M531.82,87.1v25.56a5.71,5.71,0,1,1-11.42,0V91.51c0-6-3.16-8.11-8-8.11a12.4,12.4,0,0,0-9.9,5.13v24.13a5.72,5.72,0,1,1-11.44,0V79.44a5.75,5.75,0,0,1,5.68-5.85,5.84,5.84,0,0,1,5.85,5.85v.37a20.22,20.22,0,0,1,15.12-6.57c9.55,0,14.14,5.4,14.14,13.86Z"/><path class="cls-1" d="M561.16,125.36c.17,0,.35-.09.54-.09,3-.08,4.86-.82,5.94-3.15l1.61-3.7-14.94-37a5.46,5.46,0,0,1-.35-2.07,5.56,5.56,0,0,1,5.57-5.67,5.41,5.41,0,0,1,5.22,3.52l10.44,27.71L585.54,77.2a5.71,5.71,0,0,1,11,2.15,5.53,5.53,0,0,1-.46,2.18L578.43,124.9c-3.24,8.12-9.26,10.44-15.75,10.53a6.53,6.53,0,0,1-1.26-.09,5,5,0,0,1-5.13-5.13,4.9,4.9,0,0,1,4.87-4.85Z"/><path class="cls-1" d="M631.27,96c0-6.77-4-12.62-11.16-12.62S609,89.25,609,96s4,12.68,11.07,12.68,11.16-5.85,11.16-12.68Zm-34.11,0c0-12.34,8.64-22.78,23-22.78s23,10.44,23,22.78-8.63,22.86-23,22.86-23-10.44-23-22.86Z"/><path class="cls-1" d="M688.35,79.44v33.22a5.75,5.75,0,0,1-5.68,5.85,5.84,5.84,0,0,1-5.85-5.85v-.26a20.48,20.48,0,0,1-15.23,6.48c-9.53,0-14-5.22-14-13.68V79.44a5.71,5.71,0,1,1,11.42,0v21.25c0,6,3.15,8,8,8a12.77,12.77,0,0,0,9.89-4.94V79.44a5.73,5.73,0,0,1,5.68-5.76,5.82,5.82,0,0,1,5.77,5.76Z"/><path class="cls-1" d="M721.82,78.64c0,2.78-1.8,5.13-5.41,5.67-3,.35-7.47,2-9.36,4.77v23.58a5.72,5.72,0,1,1-11.44,0V79.55a5.77,5.77,0,1,1,11.53-.11l-.09.83c1.89-2.61,4.51-5,7.11-6A7.58,7.58,0,0,1,717,73.5c3.06,0,4.78,2.35,4.78,5.14Z"/><path class="cls-1" d="M772.4,112.66V91.34c0-6-3.16-7.94-8.1-7.94a12.7,12.7,0,0,0-9.92,5.13v24.13a5.71,5.71,0,0,1-5.65,5.76,5.81,5.81,0,0,1-5.77-5.76V62.89a5.81,5.81,0,0,1,5.77-5.77,5.71,5.71,0,0,1,5.65,5.77V80a20.18,20.18,0,0,1,15.32-6.75c9.55,0,14.14,5.22,14.14,13.68v25.74a5.72,5.72,0,1,1-11.44,0Z"/><path class="cls-1" d="M822.45,96c0-6.77-4.07-12.62-11.18-12.62S800.19,89.25,800.19,96s4,12.68,11.08,12.68,11.18-5.85,11.18-12.68Zm-34.13,0c0-12.34,8.66-22.78,22.95-22.78S834.32,83.68,834.32,96s-8.65,22.86-23.05,22.86S788.32,108.44,788.32,96Z"/><path class="cls-1" d="M904.17,86.38v26.28a5.77,5.77,0,0,1-11.53,0V90.34c0-4-1.8-6.94-6.48-6.94-4,0-7.38,2.72-9,5v24.21a5.75,5.75,0,1,1-11.5,0V90.34c0-4-1.81-6.94-6.49-6.94-3.95,0-7.3,2.72-9,5.13v24.13a5.72,5.72,0,1,1-11.44,0V79.44a5.74,5.74,0,0,1,5.67-5.85,5.84,5.84,0,0,1,5.86,5.85v.46c1.89-2.61,7.57-6.66,14.13-6.66,6.4,0,10.45,3,12.06,7.92a18.45,18.45,0,0,1,14.94-7.92c8,0,12.79,4.22,12.79,13.14Z"/><path class="cls-1" d="M920.35,92h21.43c-.26-4.15-3.15-9.64-10.7-9.64-7.12,0-10.18,5.31-10.73,9.64Zm10.73-18.73c13,0,21.77,9.72,21.77,21.06,0,3.78-2.41,5.39-6.83,5.39H920.55c.72,5.51,5.11,10.1,12.51,10.1a18.49,18.49,0,0,0,8.81-2.44,4.37,4.37,0,0,1,2.17-.55,4.6,4.6,0,0,1,4.5,4.51,4.73,4.73,0,0,1-2.43,4,28.94,28.94,0,0,1-14.32,3.61c-13.22,0-23.23-8.92-23.23-22.86,0-12.62,9.27-22.78,22.52-22.78Z"/><path class="cls-1" d="M1012.71,112.74l-7.65-24.56-7.75,24.56a7.72,7.72,0,0,1-7.55,5.68,7.91,7.91,0,0,1-7.65-5.68L972.38,80.9a10.19,10.19,0,0,1-.17-1.63,5.57,5.57,0,0,1,11-1.44l7.2,25.73,8.29-25.27a6.62,6.62,0,0,1,6.4-4.61,6.5,6.5,0,0,1,6.3,4.61l8.27,25.27,7.2-25.73a5.63,5.63,0,0,1,11.07,1.52,9.29,9.29,0,0,1-.26,1.55l-9.72,31.84a7.93,7.93,0,0,1-15.21,0Z"/><path class="cls-1" d="M1041.23,112.66V79.44a5.72,5.72,0,1,1,11.44,0v33.22a5.8,5.8,0,0,1-5.76,5.76,5.73,5.73,0,0,1-5.68-5.76Zm-1.18-52.3a6.9,6.9,0,0,1,6.86-6.83,6.85,6.85,0,0,1,0,13.69,6.92,6.92,0,0,1-6.86-6.86Z"/><path class="cls-1" d="M1083.91,113.48a4.63,4.63,0,0,1-3.44,4.48,17.54,17.54,0,0,1-5.94.92c-8,0-12.33-4.16-12.33-11.88V84.31h-2.79a5,5,0,1,1,0-10h2.79V67.56a5.77,5.77,0,0,1,11.53,0v6.75h4.5a5,5,0,0,1,0,10h-4.5v19.62c0,2.7,1.35,4.77,3.87,4.77.8,0,1.35-.18,1.89-.18a4.66,4.66,0,0,1,4.42,5Z"/><path class="cls-1" d="M1115.75,112.66V91.34c0-6-3.13-7.94-8.09-7.94a12.65,12.65,0,0,0-9.9,5.13v24.13a5.72,5.72,0,0,1-5.67,5.76,5.8,5.8,0,0,1-5.77-5.76V62.89a5.8,5.8,0,0,1,5.77-5.77,5.73,5.73,0,0,1,5.67,5.77V80a20.1,20.1,0,0,1,15.3-6.75c9.54,0,14.13,5.22,14.13,13.68v25.74a5.72,5.72,0,1,1-11.44,0Z"/><polygon class="cls-2" points="489.23 326.02 489.23 258.5 442.5 258.5 442.5 326.02 390.62 326.02 390.62 153.14 442.5 153.14 442.5 217.44 489.23 217.44 489.23 153.14 541.11 153.14 541.11 326.02 489.23 326.02 489.23 326.02"/><path class="cls-2" d="M621.87,226.07c-15.94,0-23,9.73-23,31.35,0,21.88,7.31,31.06,22.43,31.06,15.94,0,23-8.92,23-31.06,0-21.34-6.22-31.35-22.43-31.35Zm-.54,102.67c-56.73,0-68.89-37.56-68.89-71.32,0-33.5,12.7-71.87,69.43-71.87,55.93,0,68.89,38.37,68.89,71.87,0,34-13,71.32-69.43,71.32Z"/><path class="cls-2" d="M768.57,226.07c-19.19,0-20.28,13.25-20.28,31.09,0,17,.29,30.77,20,30.77,18.93,0,19.45-13.22,19.45-30.77s-.52-31.09-19.16-31.09Zm19.16,102.67c-18.36,0-28.89-4.87-39.15-11.9v63.22H698.33V188.27h28.36l8.38,16.2c7-8.65,22.4-18.92,43.22-18.92,48.62,0,60.78,39.17,60.78,71.61s-9.73,71.58-51.34,71.58Z"/><path class="cls-2" d="M917.13,226.07c-19.18,0-20.25,13.25-20.25,31.09,0,17,.26,30.77,20,30.77,18.91,0,19.45-13.22,19.45-30.77s-.54-31.09-19.19-31.09Zm19.19,102.67c-18.38,0-28.91-4.87-39.18-11.9v63.22H846.9V188.27h28.36l8.38,16.2c7-8.65,22.42-18.92,43.22-18.92,48.61,0,60.77,39.17,60.77,71.61s-9.72,71.58-51.31,71.58Z"/><path class="cls-2" d="M1130,324.67c0,27.83-9.46,58.08-67.54,58.08-54.84,0-68.06-16.46-68.06-46.46h48.35c0,9.46,4.85,16.75,20,16.75s16.75-10.53,16.75-24V313.86c-6.22,7.57-19.18,13.51-31.89,13.51-48.9,0-52.14-27.27-52.14-62.38V188.27h50.25v74.54c0,20.27,3.79,24.06,16.23,24.06,13,0,17.27-3.79,17.27-24.06l.28-74.54H1130v136.4Z"/><path class="cls-2" d="M251.91,319.37H56.9V192.49l96.21-96.21,98.8,98.8V319.37Zm-.78-178.68h.45V68.39H213.52v34.72L153.11,42.7l-26.8,26.8h0L0,195.82l26.8,26.79,11.51-11.5V338h232.2V213.67l8.94,8.94,26.8-26.79-55.12-55.13Z"/><path class="cls-3" d="M225.76,257.33c-19.42,9.24-44.78,14.36-71.41,14.36s-52-5.12-71.39-14.36a3.14,3.14,0,0,0-3.59.61,3.18,3.18,0,0,0-.58,3.61c8.83,17.88,39.91,30.34,75.58,30.34s66.76-12.48,75.57-30.34a3.17,3.17,0,0,0-.59-3.61,3.14,3.14,0,0,0-3.59-.61Z"/><path class="cls-4" d="M282.07,23.46c-3.21-1.72-45.9-9-77.66-8.06-29,.86-55.3,5.65-79.34,23.64S87.93,84.37,83.2,103.53c-4.6,18.63-6.41,34.43-4.72,50.3,7.76-21.94,16-37.52,37.14-49s50.55-9,65.83-4.73,25.52,13.43,34.44,20.93,12.83,18.91,15.19,27c10-6-1.68-47.6-19.58-75.62-19.36-30.32-9-35.88,8.1-40.52,23.64-6.42,55.71-4.9,66.18,0C287.27,28.62,285.28,25.17,282.07,23.46Z"/><path class="cls-1" d="M305.19,8.65a4.66,4.66,0,0,0-6.24,1c2.87,1,8.61,2,10.46,8.78-1.68-1.52-3.84-1.67-6.16-.82,3.6,2.81,5.66,7.91,3.63,14.33-2.21,7-10.59,11.63-18.94,11.82s-14.6-4.33-18.7-9.79c-5-6.68-3.75-18.58,5.23-26C282.75,1.13,300,1.73,305.19,8.65Z"/><path class="cls-1" d="M252.45,145.61c5.26,10.58-2.6,19.78-11.08,16.79-12.24-5.2-17.69-37.12-59.12-45.74-20.16-4.68-40.8-4.71-62.14,3.06-24.06,8.71-39.3,30.45-45.35,37.47C66.33,167,48.1,160,55,145.81c18-37.2,40-47.12,46.63-51.68-.9,2.07-3.83,5.91-1.52,7.28,3.55-4.8,14.42-11,20.41-11.22-2.56.37-6,4-4.67,6.38,16.94-6.12,41.38-7.46,65.93-3.25,24.13,4.63,52.55,18.05,65.72,34.38,6,7.78,11.38,15.25,11.1,23.07C258.58,149,254.32,145.52,252.45,145.61Z"/></svg>