<?xml version="1.0" encoding="UTF-8"?>
<svg width="19px" height="28px" viewBox="0 0 19 28" version="1.1" xmlns="http://www.w3.org/2000/svg" xmlns:xlink="http://www.w3.org/1999/xlink">
    <!-- Generator: sketchtool 50.2 (55047) - http://www.bohemiancoding.com/sketch -->
    <title>2AAA2A72-1182-4AAF-AF66-9E05A88895F8</title>
    <desc>Created with sketchtool.</desc>
    <defs></defs>
    <g id="Components-" stroke="none" stroke-width="1" fill="none" fill-rule="evenodd">
        <g id="Components---Desktop" transform="translate(-967.000000, -489.000000)" fill="#1A7AAA" fill-rule="nonzero" stroke="#FFFFFF" stroke-width="2">
            <g id="CALENDAR---Tablet" transform="translate(948.000000, 398.000000)">
                <g id="HEADER" transform="translate(16.315625, 19.544293)">
                    <g id="Nav" transform="translate(4.000000, 73.000000)">
                        <g id="move-to-next-copy" transform="translate(7.637500, 12.091603) rotate(180.000000) translate(-7.637500, -12.091603) translate(0.137500, 0.091603)">
                            <path d="M5.87809216,11.6865749 L0.0773655425,5.59618046 C-1.40526962,4.04024025 -1.35076172,1.57319113 0.199243732,0.0836432347 C1.75200772,-1.4079003 4.21542423,-1.35279396 5.70025557,0.206135967 L14.0607544,8.98254637 C15.4931158,10.4866065 15.4966509,12.8540778 14.0694045,14.3639938 L5.70825665,23.1965608 C4.96332985,23.9806148 3.94634661,24.4096692 2.888254,24.4096692 C1.89772864,24.4096692 0.94049763,24.0335766 0.207441046,23.3347561 C-1.34658619,21.8507408 -1.40866328,19.3839775 0.0685775107,17.8225089 L5.87809216,11.6865749 Z" id="Shape"></path>
                        </g>
                    </g>
                </g>
            </g>
        </g>
    </g>
</svg>