<?xml version="1.0" encoding="UTF-8"?>
<svg width="106px" height="120px" viewBox="0 0 106 120" version="1.1" xmlns="http://www.w3.org/2000/svg" xmlns:xlink="http://www.w3.org/1999/xlink">
    <!-- Generator: sketchtool 59.1 (101010) - https://sketch.com -->
    <title>939C506B-F697-4971-988A-32A007C96A36</title>
    <desc>Created with sketchtool.</desc>
    <defs>
        <path d="M3.94324404,34 C3.36306817,34 2.76453211,33.9983914 2.13443644,33.995481 C1.56522458,33.9926835 1.56522458,33.9926835 0.80325,33.8521646 C0.488822034,33.7671646 0.278771186,33.2593165 0.260402542,32.9354557 C0.248084746,32.7217722 0.206377119,32.4220127 0.205728814,32.2100506 C0.205080508,31.9393418 0.160563559,30.6843544 0.160563559,30.6843544 C0.160563559,30.6843544 0.117559322,23.6420506 0.109174751,20.5385823 C0.0918432203,13.2152405 0.478881356,7.57231646 0.460944915,0.248759494 L4.09534322,0.246822785 C32.1062288,0.231759494 60.1171144,0.216911392 88.128,0.201848101 C91.3598008,0.200126582 94.5918178,0.198189873 97.8238347,0.196468354 C99.1621525,0.195822785 100.50047,0.194962025 101.838572,0.194316456 C101.854996,6.75975949 101.871203,13.3254177 101.887411,19.8908608 C101.897568,24.0298228 101.907725,28.1687848 101.918097,32.307962 L101.91937,32.8784304 C101.91937,33.1693671 101.939275,33.4927975 101.216199,33.6277215 C99.5522161,33.7568354 98.8580975,33.7583418 97.3268008,33.7622152 C93.6277881,33.7712532 91.2396483,33.7770633 87.5406356,33.7861013 C62.7827288,33.8465696 36.7141653,33.910481 11.9562585,33.9711646 C8.98591384,33.9783898 6.79624459,33.9989978 4.31562019,34 L3.94324404,34" id="path-1"></path>
        <path d="M0.659114094,80.4754286 C0.364671141,80.1460714 0.362738255,79.1273571 0.361234899,78.3507857 C0.360375839,77.8429286 0.506630872,77.5512857 0.505557047,77.0434286 C0.504483221,76.3958571 0.281342282,74.9187857 0.486228188,74.9132143 C0.376697987,67.4837143 0.199731544,56.0267143 0.185771812,48.5965714 C0.152483221,31.0624286 0.377986577,17.5540714 0.344697987,0.0199285714 C1.10260403,0.0242142857 1.8602953,0.0282857143 2.61798658,0.0323571429 C20.138953,0.1275 37.6597047,0.222857143 55.1804564,0.318 L61.2452081,0.351 C62.0823624,0.3555 62.919302,0.36 63.7566711,0.364714286 C63.786094,16.0840714 63.8159463,31.8032143 63.8455839,47.5225714 C63.8642685,57.4324286 63.882953,67.3422857 63.9016376,77.2519286 L63.904507,78.618 C63.9055034,79.3142143 63.918604,80.0886429 63.4665235,80.4083571 C62.4262013,80.7098571 61.9921611,80.7100714 61.034094,80.712 C58.7204295,80.7162857 57.2265235,80.7190714 54.9130738,80.7235714 C39.4272215,80.7527143 23.1216107,80.7831429 7.63554362,80.8122857 C5.25616107,80.817 3.67785235,80.8795714 1.49218792,80.8242857" id="path-3"></path>
        <polygon id="path-5" points="0.0731803592 0.164098361 61.8093617 0.164098361 61.8093617 77.8578322 0.0731803592 77.8578322"></polygon>
    </defs>
    <g id="Widgets" stroke="none" stroke-width="1" fill="none" fill-rule="evenodd">
        <g id="Manage-your-home" transform="translate(-511.000000, -1778.000000)">
            <g id="Group-36" transform="translate(511.000000, 1778.000000)">
                <path d="M41.8633537,52.435791 L41.8633537,47.24609 C41.8633537,44.3487605 39.4739561,42 36.5262818,42 L10.3368554,42 C7.38939768,42 5,44.3487605 5,47.24609 L5,61.1775721 L5,114.753697 C5,117.651027 7.38939768,120 10.3368554,120 L100.662928,120 C103.610602,120 106,117.651027 106,114.753697 L106,62.9283966 C106,60.0308543 103.610602,57.6820938 100.662928,57.6820938 L47.2004257,57.6820938 C44.2529679,57.6820938 41.8633537,55.3333333 41.8633537,52.435791" id="Fill-1" fill="#1A2855"></path>
                <g id="Group-5" transform="translate(5.000000, 89.000000)">
                    <mask id="mask-2" fill="white">
                        <use xlink:href="#path-1"></use>
                    </mask>
                    <g id="Clip-4"></g>
                    <path d="M0.80325,33.8521646 C1.56522458,33.9926835 1.56522458,33.9926835 2.13443644,33.995481 C5.62858475,34.0116203 8.15222034,33.9804177 11.9562585,33.9711646 C36.7141653,33.910481 62.7827288,33.8465696 87.5406356,33.7861013 C91.2396483,33.7770633 93.6277881,33.7712532 97.3268008,33.7622152 C98.8580975,33.7583418 99.5522161,33.7568354 101.216199,33.6277215 C101.939275,33.4927975 101.91937,33.1693671 101.91937,32.8784304 L101.918097,32.307962 C101.907725,28.1687848 101.897568,24.0298228 101.887411,19.8908608 C101.871203,13.3254177 101.854996,6.75975949 101.838572,0.194316456 C100.50047,0.194962025 99.1621525,0.195822785 97.8238347,0.196468354 C94.5918178,0.198189873 91.3598008,0.200126582 88.128,0.201848101 C60.1171144,0.216911392 32.1062288,0.231759494 4.09534322,0.246822785 L0.460944915,0.248759494 C0.478881356,7.57231646 0.0918432203,13.2152405 0.109174751,20.5385823 C0.117559322,23.6420506 0.160563559,30.6843544 0.160563559,30.6843544 C0.160563559,30.6843544 0.205080508,31.9393418 0.205728814,32.2100506 C0.206377119,32.4220127 0.248084746,32.7217722 0.260402542,32.9354557 C0.278771186,33.2593165 0.488822034,33.7671646 0.80325,33.8521646" id="Fill-3" mask="url(#mask-2)"></path>
                </g>
                <g id="Group-8" transform="translate(42.000000, 1.000000)">
                    <mask id="mask-4" fill="white">
                        <use xlink:href="#path-3"></use>
                    </mask>
                    <g id="Clip-7"></g>
                    <path d="M0.659114094,80.4754286 C1.13610738,80.8152857 1.13610738,80.8152857 1.49218792,80.8242857 C3.67785235,80.8795714 5.25616107,80.817 7.63554362,80.8122857 C23.1216107,80.7831429 39.4272215,80.7527143 54.9130738,80.7235714 C57.2265235,80.7190714 58.7204295,80.7162857 61.034094,80.712 C61.9921611,80.7100714 62.4262013,80.7098571 63.4665235,80.4083571 C63.918604,80.0886429 63.9055034,79.3142143 63.904507,78.618 L63.9016376,77.2519286 C63.882953,67.3422857 63.8642685,57.4324286 63.8455839,47.5225714 C63.8159463,31.8032143 63.786094,16.0840714 63.7566711,0.364714286 C62.919302,0.36 62.0823624,0.3555 61.2452081,0.351 L55.1804564,0.318 C37.6597047,0.222857143 20.138953,0.1275 2.61798658,0.0323571429 C1.8602953,0.0282857143 1.10260403,0.0242142857 0.344697987,0.0199285714 C0.377986577,17.5540714 0.152483221,31.0624286 0.185771812,48.5965714 C0.199731544,56.0267143 0.376697987,67.4837143 0.486228188,74.9132143 C0.281342282,74.9187857 0.504483221,76.3958571 0.505557047,77.0434286 C0.506630872,77.5512857 0.360375839,77.8429286 0.361234899,78.3507857 C0.362738255,79.1273571 0.364671141,80.1460714 0.659114094,80.4754286" id="Fill-6" mask="url(#mask-4)"></path>
                </g>
                <g id="Group-11" transform="translate(40.000000, 0.000000)">
                    <mask id="mask-6" fill="white">
                        <use xlink:href="#path-5"></use>
                    </mask>
                    <g id="Clip-10"></g>
                    <path d="M0.217277931,77.1854541 L0.0731803592,0.95217541 C0.07254,0.580077049 0.374415862,0.277880328 0.747698621,0.277240984 L60.9881814,0.164076032 C61.3614641,0.164076032 61.664409,0.464355738 61.6652641,0.836667213 L61.8093617,77.0697328 C61.8100021,77.4418311 61.5081262,77.7440279 61.1348434,77.7446672 L0.89436069,77.8578322 C0.521077931,77.8578322 0.21791931,77.5575525 0.217277931,77.1854541" id="Fill-9" fill="#F3F3F3" mask="url(#mask-6)"></path>
                </g>
                <polygon id="Fill-12" fill="#E6E6E7" points="94 27.9290993 54.0019099 28 54 27.0709007 93.9980901 27"></polygon>
                <polygon id="Fill-14" fill="#E6E6E7" points="95 33.9177515 47.0019506 34 47 33.0822485 94.9980494 33"></polygon>
                <polygon id="Fill-16" fill="#E6E6E7" points="95 38.9177353 47.0019506 39 47 38.0822647 94.9980494 38"></polygon>
                <polygon id="Fill-18" fill="#E6E6E7" points="95 45.9177515 47.0019506 46 47 45.0824458 94.9980494 45"></polygon>
                <polygon id="Fill-20" fill="#E6E6E7" points="78 57.9465012 48.0019369 58 48 57.0534988 77.9980631 57"></polygon>
                <polygon id="Fill-22" fill="#E6E6E7" points="78 52.9464903 48.0017217 53 48 52.0533062 77.9980631 52"></polygon>
                <polygon id="Fill-24" fill="#E6E6E7" points="95 62.9177515 47.0019506 63 47 62.0824458 94.9980494 62"></polygon>
                <polygon id="Fill-26" fill="#E6E6E7" points="95 67.9175542 47.0019506 68 47 67.0822485 94.9980494 67"></polygon>
                <polygon id="Fill-28" fill="#E6E6E7" points="95 75.9177515 47.0019506 76 47 75.0822485 94.9980494 75"></polygon>
                <polygon id="Fill-30" fill="#FEEF00" points="96 21.9046318 48.0284451 22 48 6.09536819 95.9715549 6"></polygon>
                <polygon id="Fill-32" fill="#9EBAC6" points="95 60.9712528 80.0273996 61 80 46.02897 94.9726004 46"></polygon>
                <path d="M36.8633537,52.435791 L36.8633537,47.24609 C36.8633537,44.3487605 34.4739561,42 31.5262818,42 L5.33685544,42 C2.38939768,42 0,44.3487605 0,47.24609 L0,61.1775721 L0,114.753697 C0,117.651027 2.38939768,120 5.33685544,120 L95.6629281,120 C98.6103859,120 101,117.651027 101,114.753697 L101,62.9283966 C101,60.0308543 98.6103859,57.6820938 95.6629281,57.6820938 L42.2004257,57.6820938 C39.2529679,57.6820938 36.8633537,55.3333333 36.8633537,52.435791" id="Fill-34" fill="#1A7AAA"></path>
            </g>
        </g>
    </g>
</svg>