<?xml version="1.0" encoding="UTF-8" standalone="no"?>
<!DOCTYPE svg PUBLIC "-//W3C//DTD SVG 1.1//EN" "http://www.w3.org/Graphics/SVG/1.1/DTD/svg11.dtd">
<svg width="100%" height="100%" viewBox="0 0 512 512" version="1.1" xmlns="http://www.w3.org/2000/svg" xmlns:xlink="http://www.w3.org/1999/xlink" xml:space="preserve" xmlns:serif="http://www.serif.com/" style="fill-rule:evenodd;clip-rule:evenodd;stroke-linejoin:round;stroke-miterlimit:2;">
    <g>
        <path d="M301,392L211,392C199.954,392 191,400.954 191,412C191,423.046 199.954,432 211,432L301,432C312.046,432 321,423.046 321,412C321,400.954 312.046,392 301,392Z" style="fill:rgb(187,187,187);fill-rule:nonzero;"/>
        <circle cx="421" cy="259" r="20" style="fill:rgb(187,187,187);"/>
        <path d="M492,312C503.046,312 512,303.046 512,292L512,249C512,204.888 476.112,169 432,169L401,169L401,20C401,8.954 392.046,0 381,0L131,0C119.954,0 111,8.954 111,20L111,169L80,169C35.888,169 0,204.888 0,249L0,392C0,436.112 35.888,472 80,472L111,472L111,492C111,503.046 119.954,512 131,512L381,512C392.046,512 401,503.046 401,492L401,472L432,472C476.112,472 512,436.112 512,392C512,380.954 503.046,372 492,372C480.954,372 472,380.954 472,392C472,414.056 454.056,432 432,432L401,432L401,349L412,349C423.046,349 432,340.046 432,329C432,317.954 423.046,309 412,309L100,309C88.954,309 80,317.954 80,329C80,340.046 88.954,349 100,349L111,349L111,432L80,432C57.944,432 40,414.056 40,392L40,249C40,226.944 57.944,209 80,209L432,209C454.056,209 472,226.944 472,249L472,292C472,303.046 480.954,312 492,312ZM151,349L361,349L361,472L151,472L151,349ZM361,169L151,169L151,40L361,40L361,169Z" style="fill:rgb(187,187,187);fill-rule:nonzero;"/>
    </g>
</svg>
