<?xml version="1.0" encoding="UTF-8"?>
<svg width="69px" height="54px" viewBox="0 0 69 54" version="1.1" xmlns="http://www.w3.org/2000/svg" xmlns:xlink="http://www.w3.org/1999/xlink">
    <!-- Generator: Sketch 54.1 (76490) - https://sketchapp.com -->
    <title>“@3x</title>
    <desc>Created with Sketch.</desc>
    <g id="New-M=Home" stroke="none" stroke-width="1" fill="none" fill-rule="evenodd">
        <g id="Member-page" transform="translate(-415.000000, -354.000000)" fill="#EA2462" fill-rule="nonzero">
            <g id="Hero" transform="translate(0.000000, 130.000000)">
                <path d="M431.615385,225.35 C432.769231,224.45 434.153846,224 435.769231,224 C439.230769,224 442,226.475 442,229.85 C442,231.65 441.076923,233 439.923077,234.125 C434.384615,239.525 430,246.05 429.076923,251.9 C429.769231,251.675 431.153846,251.45 432.769231,251.45 C439.692308,251.45 445,256.85 445,264.275 C445,271.7 439,278 430.923077,278 C422.384615,278 415,271.025 415,259.1 C415,246.05 421.692308,234.125 431.615385,225.35 Z M470.615385,225.35 C471.538462,224.45 473.153846,224 474.769231,224 C478,224 481,226.475 481,229.85 C481,231.65 480.076923,233 478.923077,234.125 C473.153846,239.525 468.769231,246.05 468.076923,251.9 C468.538462,251.675 470.153846,251.45 471.538462,251.45 C478.461538,251.45 484,256.85 484,264.275 C484,271.7 477.769231,278 469.923077,278 C461.384615,278 454,271.025 454,259.1 C454,246.05 460.692308,234.125 470.615385,225.35 Z" id="“"></path>
            </g>
        </g>
    </g>
</svg>