<?xml version="1.0" encoding="UTF-8"?>
<svg width="59px" height="59px" viewBox="0 0 59 59" version="1.1" xmlns="http://www.w3.org/2000/svg" xmlns:xlink="http://www.w3.org/1999/xlink">
    <!-- Generator: Sketch 59.1 (86144) - https://sketch.com -->
    <title>Group 5@2x</title>
    <desc>Created with Sketch.</desc>
    <g id="Widgets" stroke="none" stroke-width="1" fill="none" fill-rule="evenodd">
        <g id="stamp-Morgage" transform="translate(-284.000000, -627.000000)">
            <g id="Group-5" transform="translate(278.000000, 621.000000)">
                <path d="M52.3978981,26.7836051 C53.2208353,25.9330105 53.1979759,24.5786241 52.3478933,23.7565729 C51.4978106,22.9330945 50.1405358,22.9573565 49.3175986,23.8065239 L28.795603,44.9971767 L20.6848143,36.6211031 C19.8604484,35.7719356 18.5046023,35.7491009 17.6545196,36.5697249 C16.8030082,37.3932032 16.7801489,38.7475897 17.603086,39.5981843 L28.795603,51.1539976 L52.3978981,26.7836051 Z" id="Fill-1" fill="#1A7AAA"></path>
                <path d="M30.0176249,60.824437 L29.5977287,60.651394 C29.3921546,60.569962 29.1865804,60.4859852 28.9882961,60.3931019 C28.2797214,60.0597397 27.3961899,60.2913119 27.0127431,60.9109584 C26.6322122,61.5293326 26.8961053,62.3003918 27.606138,62.6350263 C27.8569093,62.7520848 28.1149705,62.8576919 28.3744896,62.9620267 L28.7433567,63.1134393 C28.9489309,63.1999608 29.1661688,63.2406768 29.3804908,63.2406768 C29.9199407,63.2406768 30.440437,62.9772952 30.6912083,62.5256021 C31.0440377,61.8932318 30.7422373,61.1310793 30.0176249,60.824437" id="Fill-3" fill="#105578" transform="translate(28.838730, 61.740677) rotate(-13.000000) translate(-28.838730, -61.740677) "></path>
                <path d="M35.0769268,6 C19.0433171,6 6,19.0433171 6,35.0769268 C6,43.2016585 9.46229268,51.0213171 15.499,56.5313415 C16.086122,57.0695366 16.9955854,57.0278049 17.5323415,56.4392439 C18.0676585,55.853561 18.0259268,54.9426585 17.4402439,54.4073415 C11.9992927,49.4398293 8.87804878,42.3943659 8.87804878,35.0769268 C8.87804878,20.630561 20.630561,8.87804878 35.0769268,8.87804878 C49.5232927,8.87804878 61.2758049,20.630561 61.2758049,35.0769268 C61.2758049,49.5232927 49.5232927,61.2758049 35.0769268,61.2758049 C33.4206098,61.2758049 31.724,61.108878 30.0374634,60.7793415 C29.2575122,60.6268049 28.5005854,61.1362195 28.3494878,61.9161707 C28.1969512,62.696122 28.7063659,63.4530488 29.4863171,63.6041463 C31.3541707,63.9682195 33.2349756,64.1538537 35.0769268,64.1538537 C51.1105366,64.1538537 64.1538537,51.1105366 64.1538537,35.0769268 C64.1538537,19.0433171 51.1105366,6 35.0769268,6" id="Fill-5" fill="#105578" transform="translate(35.076927, 35.076927) rotate(-13.000000) translate(-35.076927, -35.076927) "></path>
            </g>
        </g>
    </g>
</svg>