<?xml version="1.0" encoding="UTF-8"?>
<svg width="40px" height="40px" viewBox="0 0 40 40" version="1.1" xmlns="http://www.w3.org/2000/svg" xmlns:xlink="http://www.w3.org/1999/xlink">
    <!-- Generator: sketchtool 50.2 (55047) - http://www.bohemiancoding.com/sketch -->
    <title>A5B01370-01D0-405D-A2F1-05108E7B0E54</title>
    <desc>Created with sketchtool.</desc>
    <defs></defs>
    <g id="Components-" stroke="none" stroke-width="1" fill="none" fill-rule="evenodd">
        <g id="Components---Desktop" transform="translate(-1292.000000, -6222.000000)" fill="#00ACED">
            <g id="footer" transform="translate(0.000000, 6098.000000)">
                <g id="social-share" transform="translate(1233.000000, 124.000000)">
                    <g id="icon/social/twitter" transform="translate(59.000000, 0.000000)">
                        <path d="M20.0012788,0 C8.95356718,0 0,8.95356718 0,20.0012788 C0,31.0464328 8.95356718,40 20.0012788,40 C31.0464328,40 40,31.0464328 40,20.0012788 C40,8.95356718 31.0464328,0 20.0012788,0 Z M32.093505,14.6661722 C32.1037353,14.9019808 32.109362,15.1398355 32.109362,15.3776903 C32.109362,23.9215335 25.6074886,32.7569406 14.7280656,32.7569406 C11.4032149,32.7569406 8.16429878,31.8080794 5.36477449,30.011637 C5.30492717,29.9758309 5.28088594,29.9037072 5.30492717,29.8377217 C5.3289684,29.7737823 5.3949539,29.7338841 5.4609394,29.7400223 C5.93255668,29.7957774 6.4118467,29.8239108 6.88960217,29.8239108 C9.47684753,29.8239108 11.9244492,29.0244121 13.9965984,27.5057226 C11.5131907,27.2980473 9.37914807,25.6156728 8.61187483,23.2202458 C8.59601785,23.1701173 8.60778271,23.1158966 8.64205425,23.0759984 C8.67581427,23.0361002 8.7295234,23.0202432 8.77965191,23.0284275 C9.4691748,23.159887 10.1684165,23.1680712 10.8436169,23.0580954 C8.28194734,22.2626888 6.48192432,19.8631696 6.48192432,17.1316769 L6.48192432,17.0518805 C6.48397038,16.9997059 6.51159222,16.9521349 6.55762861,16.9260476 C6.60161895,16.8999604 6.65788565,16.8999604 6.70187598,16.9260476 C7.36889219,17.2958733 8.10854359,17.5332165 8.86763258,17.6252893 C7.39497948,16.4523843 6.53205284,14.6743564 6.53205284,12.7720303 C6.53205284,11.6748296 6.82157061,10.5960434 7.37093825,9.65280886 C7.39702554,9.61086459 7.43896981,9.58273124 7.48705226,9.57915063 C7.53666927,9.5750585 7.58270566,9.59500761 7.61493114,9.63285976 C10.6257113,13.3295822 15.0579931,15.6032686 19.7971841,15.8968785 C19.7173877,15.4994309 19.6774895,15.087661 19.6774895,14.6743564 C19.6774895,11.2533408 22.4606453,8.47018504 25.8816609,8.47018504 C27.5640353,8.47018504 29.1901431,9.16124247 30.3553754,10.3699536 C31.6679241,10.102431 32.9185795,9.61904884 34.0735815,8.93361808 C34.1278021,8.9013926 34.1937876,8.90753079 34.2413586,8.94538293 C34.289441,8.9837466 34.3093901,9.04768603 34.289441,9.10753334 C33.8981317,10.3321014 33.1344391,11.3991228 32.109362,12.1704881 C33.0745917,12.002711 34.0137342,11.7188199 34.9047942,11.3234185 C34.9646415,11.2952851 35.0347191,11.3131881 35.0787094,11.3633167 C35.1206537,11.4134452 35.1247458,11.4871034 35.0868937,11.5413241 C34.2756301,12.7577079 33.2684561,13.8088722 32.093505,14.6661722 Z"></path>
                    </g>
                </g>
            </g>
        </g>
    </g>
</svg>