<?xml version="1.0" encoding="UTF-8"?>
<svg width="37px" height="37px" viewBox="0 0 37 37" version="1.1" xmlns="http://www.w3.org/2000/svg" xmlns:xlink="http://www.w3.org/1999/xlink">
    <!-- Generator: sketchtool 59.1 (101010) - https://sketch.com -->
    <title>05050BEF-9A2A-4075-8159-0672087CC8D7@2x</title>
    <desc>Created with sketchtool.</desc>
    <g id="Widgets" stroke="none" stroke-width="1" fill="none" fill-rule="evenodd">
        <g id="Profile" transform="translate(-387.000000, -1713.000000)">
            <g id="cross" transform="translate(384.000000, 1710.000000)">
                <g id="Group-5">
                    <path d="M18.4393981,37.3635827 L18.1814619,37.2572849 C18.0551807,37.2072624 17.9288994,37.1556767 17.8070962,37.0986197 C17.3718288,36.8938401 16.8290881,37.0360916 16.5935422,37.4167316 C16.3597875,37.79659 16.5218932,38.2702407 16.9580562,38.4758019 C17.1121014,38.5477093 17.2706247,38.6125822 17.4300436,38.6766735 L17.6566334,38.7696841 C17.7829147,38.822833 17.9163608,38.8478443 18.0480158,38.8478443 C18.3793921,38.8478443 18.6991256,38.6860528 18.8531708,38.4085842 C19.0699089,38.0201281 18.8845172,37.5519487 18.4393981,37.3635827" id="Fill-3" fill="#105578" transform="translate(17.715220, 37.926416) rotate(-13.000000) translate(-17.715220, -37.926416) "></path>
                    <path d="M21.5472551,3.68571429 C11.6980376,3.68571429 3.68571429,11.6980376 3.68571429,21.5472551 C3.68571429,26.5381617 5.81255122,31.3416662 9.52081429,34.7263955 C9.88147491,35.057001 10.4401453,35.0313659 10.7698669,34.6698213 C11.0987045,34.3100446 11.0730693,33.7504902 10.7132927,33.4216526 C7.37099408,30.3701808 5.45365854,26.0422533 5.45365854,21.5472551 C5.45365854,12.6730589 12.6730589,5.45365854 21.5472551,5.45365854 C30.4214512,5.45365854 37.6408516,12.6730589 37.6408516,21.5472551 C37.6408516,30.4214512 30.4214512,37.6408516 21.5472551,37.6408516 C20.5298031,37.6408516 19.4876,37.5383108 18.4515847,37.3358812 C17.9724718,37.2421801 17.5075024,37.5551063 17.4146854,38.0342192 C17.3209843,38.5133321 17.6339105,38.9783014 18.1130233,39.0711185 C19.2604192,39.2947634 20.4157707,39.4087958 21.5472551,39.4087958 C31.3964725,39.4087958 39.4087958,31.3964725 39.4087958,21.5472551 C39.4087958,11.6980376 31.3964725,3.68571429 21.5472551,3.68571429" id="Fill-5" fill="#105578" transform="translate(21.547255, 21.547255) rotate(-13.000000) translate(-21.547255, -21.547255) "></path>
                    <line x1="14" y1="14" x2="29" y2="29" id="Path-8" stroke="#1A7AAA" stroke-width="3" stroke-linecap="round"></line>
                    <line x1="14" y1="29" x2="29" y2="14" id="Path-8" stroke="#1A7AAA" stroke-width="3" stroke-linecap="round"></line>
                </g>
            </g>
        </g>
    </g>
</svg>