<svg width="31px" height="36px" viewBox="0 0 31 36" version="1.1" xmlns="http://www.w3.org/2000/svg" xmlns:xlink="http://www.w3.org/1999/xlink">
    <!-- Generator: sketchtool 50.2 (55047) - http://www.bohemiancoding.com/sketch -->
    <title>C0368646-7CD0-42D3-B4C5-17EC6942F875</title>
    <desc>Created with sketchtool.</desc>
    <defs></defs>
    <g id="Components-" stroke="none" stroke-width="1" fill="none" fill-rule="evenodd">
        <g id="Components---Desktop" transform="translate(-1309.000000, -37.000000)" fill="#FFFFFF">
            <g id="Header/">
                <g id="Group-2">
                    <g id="icon/user" transform="translate(1309.000000, 37.286822)">
                        <g id="Shape">
                            <path d="M15.4999625,18.7209302 C20.4374933,18.7209302 24.4736842,14.5107903 24.4736842,9.36046512 C24.4736842,4.21013991 20.4374933,0 15.4999625,0 C10.5624317,0 6.52631579,4.21013991 6.52631579,9.36046512 C6.52631579,14.5107903 10.5625067,18.7209302 15.4999625,18.7209302 Z" fill-rule="nonzero"></path>
                            <path d="M30.9337435,25.3751744 C30.6981275,24.7760977 30.3840479,24.2170001 30.0306613,23.6978053 C28.2244217,20.9820466 25.4366363,19.1848927 22.2953893,18.7455799 C21.902771,18.7056771 21.4708457,18.7854827 21.156691,19.0251287 C19.5075287,20.263185 17.5442869,20.9021646 15.5024312,20.9021646 C13.4605755,20.9021646 11.4973337,20.263185 9.84817144,19.0251287 C9.53401667,18.7854827 9.10209144,18.6656979 8.70947314,18.7455799 C5.56822607,19.1848927 2.74113376,20.9820466 0.974201077,23.6978053 C0.62081454,24.2170001 0.30665977,24.8160769 0.0711188494,25.3751744 C-0.0466516109,25.6148204 -0.00741984305,25.8943692 0.110350617,26.1340152 C0.424505387,26.6931128 0.817123692,27.2522868 1.17051023,27.7315024 C1.72020592,28.4903431 2.30920853,29.1692255 2.97674984,29.808205 C3.52644553,30.3673026 4.15467992,30.8864974 4.78298945,31.4056922 C7.8849296,33.7620201 11.6151793,35 15.4631994,35 C19.3112196,35 23.0414693,33.7619437 26.1434094,31.4056922 C26.7716438,30.9264766 27.3998782,30.3673026 27.949649,29.808205 C28.5778834,29.1692255 29.2061178,28.4902667 29.7558886,27.7315024 C30.1485069,27.2123076 30.5019686,26.6931128 30.8160482,26.1340152 C31.0122822,25.8943692 31.051514,25.614744 30.9337435,25.3751744 Z" fill-rule="nonzero"></path>
                        </g>
                    </g>
                </g>
            </g>
        </g>
    </g>
</svg>