<?xml version="1.0" encoding="UTF-8"?>
<svg width="6px" height="19px" viewBox="0 0 6 19" version="1.1" xmlns="http://www.w3.org/2000/svg" xmlns:xlink="http://www.w3.org/1999/xlink">
    <!-- Generator: sketchtool 56.3 (101010) - https://sketch.com -->
    <title>1D46634A-1F76-467D-B1F4-CECCCE3EE9B1</title>
    <desc>Created with sketchtool.</desc>
    <g id="New-Trade-Job-Post" stroke="none" stroke-width="1" fill="none" fill-rule="evenodd">
        <g id="DT---Details-+-errors" transform="translate(-457.000000, -1246.000000)" fill="#FFFFFF" fill-rule="nonzero">
            <g id="Warning-Message" transform="translate(435.000000, 1231.000000)">
                <path d="M25,27.176 C24.012,27.176 23.18,26.396 23.128,25.408 L22.712,17.816 C22.634,16.516 23.7,15.424 25,15.424 C26.3,15.424 27.314,16.516 27.262,17.816 L26.872,25.408 C26.82,26.396 26.014,27.176 25,27.176 Z M22.582,30.868 C22.582,29.542 23.674,28.424 25,28.424 C26.326,28.424 27.444,29.542 27.444,30.868 C27.444,32.168 26.326,33.286 25,33.286 C23.674,33.286 22.582,32.168 22.582,30.868 Z" id="!"></path>
            </g>
        </g>
    </g>
</svg>