<svg xmlns="http://www.w3.org/2000/svg" viewBox="0 0 22 19.78"><defs><style>.cls-1{fill:#1b7aaa;}</style></defs><title>MY GARAGE</title><g id="Layer_2" data-name="Layer 2"><g id="Layer_1-2" data-name="Layer 1"><path class="cls-1" d="M21.5,7.19,11.14,0a.28.28,0,0,0-.28,0L5.52,3.73V.25A.25.25,0,0,0,5.27,0H2.47a.25.25,0,0,0-.25.25V6L.5,7.19a1.16,1.16,0,0,0,.66,2.12,1.22,1.22,0,0,0,.66-.2l.4-.28v10.7a.26.26,0,0,0,.25.25H19.53a.26.26,0,0,0,.25-.25V8.83l.4.28a1.16,1.16,0,0,0,1.82-1A1.15,1.15,0,0,0,21.5,7.19ZM2.72.5H5V4.07L2.72,5.65ZM19.28,19.28H2.72V8.49L11,2.78l8.28,5.73ZM21.15,8.74a.68.68,0,0,1-.69,0L11.14,2.27a.19.19,0,0,0-.1,0,.23.23,0,0,0-.18,0L2.33,8.15h0l-.79.55a.68.68,0,0,1-.69,0,.67.67,0,0,1-.35-.6A.65.65,0,0,1,.79,7.6L2.62,6.34h0L5.18,4.57,11,.55,21.21,7.6a.65.65,0,0,1,.29.55A.66.66,0,0,1,21.15,8.74Z"/><path class="cls-1" d="M14.41,12.49a3.45,3.45,0,0,0-.16-1l1.38-.79L15,9.56l-1.35.78a3.32,3.32,0,0,0-1.84-1.11V7.72H10.4V9.23a3.31,3.31,0,0,0-1.85,1.11L7.21,9.56l-.68,1.18,1.37.79a3.45,3.45,0,0,0-.16,1A3.17,3.17,0,0,0,8,13.6l-1.42.82.68,1.18,1.44-.84a3.3,3.3,0,0,0,1.75,1v1.69h1.36V15.75a3.31,3.31,0,0,0,1.74-1L15,15.6l.68-1.18L14.2,13.6A3.17,3.17,0,0,0,14.41,12.49Zm-3.33,1.57a1.57,1.57,0,1,1,1.56-1.57A1.57,1.57,0,0,1,11.08,14.06Z"/></g></g></svg>