<svg xmlns="http://www.w3.org/2000/svg" viewBox="0 0 13.36 22.51"><defs><style>.cls-1{fill:#1b7aaa;}</style></defs><title>my-mobile</title><g id="Layer_2" data-name="Layer 2"><g id="Layer_1-2" data-name="Layer 1"><path class="cls-1" d="M12.91,11.78a.45.45,0,0,0,0,.89.45.45,0,1,0,0-.89Z"/><path class="cls-1" d="M6.61,19.29a1,1,0,1,0,1,1A1,1,0,0,0,6.61,19.29Z"/><path class="cls-1" d="M5.12,2h3a.25.25,0,0,0,0-.5H5.12a.25.25,0,0,0,0,.5Z"/><path class="cls-1" d="M12.91,13.41a.25.25,0,0,0-.25.25V18H.51V3.58H12.66v7.25a.25.25,0,0,0,.25.25.26.26,0,0,0,.26-.25V1.47A1.47,1.47,0,0,0,11.7,0H1.47A1.47,1.47,0,0,0,0,1.47V21a1.47,1.47,0,0,0,1.47,1.47H11.7A1.47,1.47,0,0,0,13.17,21V13.66A.26.26,0,0,0,12.91,13.41ZM1.47.51H11.7a1,1,0,0,1,1,1V3.08H.51V1.47A1,1,0,0,1,1.47.51ZM11.7,22H1.47a1,1,0,0,1-1-1V18.49H12.66V21A1,1,0,0,1,11.7,22Z"/></g></g></svg>