<svg id="Layer_1" data-name="Layer 1" xmlns="http://www.w3.org/2000/svg" viewBox="0 0 49.04 49.04"><defs><style>.cls-1{fill:#fae920;stroke:#d3b902;stroke-linejoin:round;stroke-width:0.75px;}.cls-1,.cls-2,.cls-3,.cls-7{stroke-linecap:round;}.cls-2,.cls-5{fill:#1b7aaa;}.cls-2,.cls-7{stroke:#0f3b4a;}.cls-2,.cls-3,.cls-7{stroke-miterlimit:10;stroke-width:1.4px;}.cls-3,.cls-4{fill:#fff;}.cls-3{stroke:#fff;}.cls-6{fill:#0f3b4a;}.cls-7{fill:none;}</style></defs><title>Artboard 62</title><rect class="cls-1" x="9.31" y="16.73" width="2.58" height="14.14" rx="0.59"/><rect class="cls-1" x="37.76" y="16.73" width="2.58" height="13.85" rx="0.59"/><rect class="cls-1" x="37.68" y="16.73" width="2.58" height="14.14" rx="0.59"/><path class="cls-2" d="M46.23,33.32V33a2.39,2.39,0,0,0-2.38-2.39H5.46A2.39,2.39,0,0,0,3.07,33v6a2.38,2.38,0,0,0,2.39,2.38H43.85a2.38,2.38,0,0,0,2.37-2.23"/><line class="cls-3" x1="10.22" y1="36.28" x2="21.98" y2="36.28"/><circle class="cls-4" cx="27.33" cy="36.24" r="1"/><circle class="cls-4" cx="32.11" cy="36.24" r="1"/><circle class="cls-5" cx="46.31" cy="36.24" r="0.85"/><circle class="cls-6" cx="46.29" cy="36.13" r="0.9"/><path class="cls-7" d="M4.67,14.8a6.86,6.86,0,0,1,5.85-3.33,6.18,6.18,0,0,1,5.57,3.33"/><path class="cls-7" d="M1.86,12.27a10.26,10.26,0,0,1,8.69-4.62,9.15,9.15,0,0,1,8.27,4.62"/><path class="cls-7" d="M33.05,14.8a6.86,6.86,0,0,1,5.85-3.33,6.15,6.15,0,0,1,5.56,3.33"/><path class="cls-7" d="M30.23,12.27a10.28,10.28,0,0,1,8.7-4.62,9.15,9.15,0,0,1,8.26,4.62"/></svg>