<svg id="Layer_1" data-name="Layer 1" xmlns="http://www.w3.org/2000/svg" viewBox="0 0 50 50"><defs><style>.cls-1{fill:#1b7aaa;}.cls-2{fill:#155f7c;}.cls-3{fill:#00bff8;stroke:#1b7aaa;stroke-linecap:round;stroke-miterlimit:10;stroke-width:0.75px;}.cls-4{fill:#fae920;}.cls-5{fill:#d3b902;}</style></defs><title>icons-hoppy</title><path class="cls-1" d="M23.77,11.76,8,22.65a1.39,1.39,0,0,0-.61,1.14v0A1.39,1.39,0,0,0,9.56,25l14.21-9.8L38,25a1.39,1.39,0,0,0,2.18-1.14v0a1.38,1.38,0,0,0-.6-1.14Z"/><polygon class="cls-2" points="15.03 17.79 15.03 11.76 10.78 11.76 10.78 20.73 15.03 17.79"/><polyline class="cls-3" points="17.17 41.15 36.77 41.15 36.77 24.15 23.77 15.15 10.78 24.12 10.78 41.15 13.52 41.15"/><circle class="cls-1" cx="15.46" cy="41.12" r="0.57"/><path class="cls-4" d="M29.52,29.45a6,6,0,0,1-3.1,6.35l1.32,2.51A8.73,8.73,0,0,0,32.35,29Z"/><path class="cls-4" d="M18.29,33.29v0a6,6,0,0,1-.05-5.46l-2.57-1.26a8.57,8.57,0,0,0,.11,8,8.39,8.39,0,0,0,3.92,3.82l1.25-2.54A6,6,0,0,1,18.29,33.29Z"/><path class="cls-5" d="M31.45,26.34a8.86,8.86,0,0,0-12-3.72,8.51,8.51,0,0,0-3.82,3.93l2.57,1.26a6,6,0,0,1,2.58-2.63h0a6,6,0,0,1,8.1,2.52,5.83,5.83,0,0,1,.6,1.76L32.35,29A8.45,8.45,0,0,0,31.45,26.34Z"/><path class="cls-3" d="M23.41,29.9A.38.38,0,0,1,24,30a.38.38,0,0,1,.05.53l-5.78,5.19Z"/></svg>