<svg id="Layer_1" data-name="Layer 1" xmlns="http://www.w3.org/2000/svg" viewBox="0 0 50 50"><defs><style>.cls-1{fill:#1b7aaa;}.cls-2{fill:#155f7c;}.cls-3,.cls-5{fill:#00bff8;stroke-miterlimit:10;}.cls-3{stroke:#1b7aaa;}.cls-3,.cls-4{stroke-linecap:round;}.cls-3,.cls-4,.cls-5{stroke-width:0.75px;}.cls-4{fill:none;stroke-linejoin:round;}.cls-4,.cls-5{stroke:#fae920;}</style></defs><title>icons-hoppy</title><path class="cls-1" d="M22.93,11.76,7.14,22.65a1.41,1.41,0,0,0-.6,1.14v0A1.39,1.39,0,0,0,8.72,25l14.21-9.8L37.14,25a1.39,1.39,0,0,0,2.18-1.14v0a1.38,1.38,0,0,0-.6-1.14Z"/><polygon class="cls-2" points="14.19 17.79 14.19 11.76 9.93 11.76 9.93 20.73 14.19 17.79"/><polyline class="cls-3" points="16.33 41.15 35.93 41.15 35.93 24.15 22.93 15.15 9.93 24.12 9.93 41.15 12.67 41.15"/><circle class="cls-1" cx="14.62" cy="41.12" r="0.57"/><line class="cls-4" x1="17.07" y1="36.27" x2="28.51" y2="24.84"/><circle class="cls-5" cx="18.72" cy="26.48" r="2.22"/><circle class="cls-5" cx="26.86" cy="34.62" r="2.22"/></svg>