<svg id="Layer_1" data-name="Layer 1" xmlns="http://www.w3.org/2000/svg" viewBox="0 0 50 50"><defs><style>.cls-1{fill:#1b7aaa;}.cls-2{fill:#00bff8;}.cls-3{fill:#155f7c;}.cls-4{fill:#fae920;}.cls-5,.cls-7{fill:none;stroke:#d3b902;stroke-linecap:round;stroke-width:0.75px;}.cls-5{stroke-linejoin:round;}.cls-6{fill:#d3b902;}.cls-7{stroke-miterlimit:10;}</style></defs><title>icons-hoppy</title><rect class="cls-1" x="32.33" y="20.73" width="6.07" height="14.84"/><rect class="cls-2" x="32.33" y="14.38" width="6.07" height="9.44"/><rect class="cls-3" x="32.33" y="9.64" width="6.07" height="5.87"/><rect class="cls-1" x="24.93" y="23.49" width="6.07" height="12.08"/><rect class="cls-2" x="24.93" y="16.14" width="6.07" height="7.69"/><rect class="cls-3" x="24.93" y="14.04" width="6.07" height="2.45"/><rect class="cls-1" x="17.52" y="19.43" width="6.07" height="16.14"/><rect class="cls-2" x="17.52" y="13.56" width="6.07" height="10.27"/><rect class="cls-3" x="17.52" y="6.71" width="6.07" height="6.85"/><rect class="cls-1" x="39.73" y="26.25" width="6.07" height="9.32"/><rect class="cls-2" x="39.73" y="20.83" width="6.07" height="5.93"/><rect class="cls-3" x="39.73" y="19.43" width="6.07" height="1.47"/><path class="cls-4" d="M23.77,26a4.55,4.55,0,0,1,1-3.31.59.59,0,0,0,0-.73L21.9,18.41a.56.56,0,0,0-.91.05,3,3,0,0,1-2.85,1.4A4,4,0,0,1,15,18.66a.55.55,0,0,0-.81,0,4,4,0,0,1-3.11,1.2,3.05,3.05,0,0,1-2.78-1.29.76.76,0,0,1-.08-.11.57.57,0,0,0-.44-.27.58.58,0,0,0-.47.21L4.43,22a.56.56,0,0,0,0,.74l.2.23a3.27,3.27,0,0,1,.53,1A6.21,6.21,0,0,1,5.46,26c0,2.9-2.11,3.26-2.11,7.26h0a5,5,0,0,0,.26,1.64,6.78,6.78,0,0,0,2.87,3.46h0a9.88,9.88,0,0,0,2.11,1,22.73,22.73,0,0,1,5.6,3.21.61.61,0,0,0,.41.15.6.6,0,0,0,.4-.15l.24-.22a22.77,22.77,0,0,1,5.34-3c1.06-.34,5.29-2.17,5.29-6.16S23.77,28.92,23.77,26Z"/><path class="cls-5" d="M3.74,30.65a8,8,0,0,0-.39,2.61h0a5,5,0,0,0,.26,1.64,6.78,6.78,0,0,0,2.87,3.46h0a9.88,9.88,0,0,0,2.11,1,22.73,22.73,0,0,1,5.6,3.21.61.61,0,0,0,.41.15.6.6,0,0,0,.4-.15l.24-.22a22.77,22.77,0,0,1,5.34-3c1.06-.34,5.29-2.17,5.29-6.16S23.77,28.92,23.77,26a4.55,4.55,0,0,1,1-3.31.59.59,0,0,0,0-.73L21.9,18.41a.56.56,0,0,0-.91.05,3,3,0,0,1-2.85,1.4A4,4,0,0,1,15,18.66a.55.55,0,0,0-.81,0,4,4,0,0,1-3.11,1.2,3.05,3.05,0,0,1-2.78-1.29.76.76,0,0,1-.08-.11.57.57,0,0,0-.44-.27.58.58,0,0,0-.47.21L4.43,22a.56.56,0,0,0,0,.74l.2.23a3.27,3.27,0,0,1,.53,1A6.21,6.21,0,0,1,5.46,26a6,6,0,0,1,0,.77"/><circle class="cls-6" cx="4.97" cy="28.74" r="0.54"/><ellipse class="cls-6" cx="14.7" cy="32.52" rx="5.4" ry="4.86"/><path class="cls-7" d="M9.67,23.9a8.37,8.37,0,0,1,5-1.64,8.26,8.26,0,0,1,4.87,1.54"/><path class="cls-7" d="M8.82,27.36A8.18,8.18,0,0,1,14.7,25a8.13,8.13,0,0,1,6.08,2.62"/></svg>