<?xml version="1.0" encoding="UTF-8"?>
<svg width="51px" height="41px" viewBox="0 0 51 41" version="1.1" xmlns="http://www.w3.org/2000/svg" xmlns:xlink="http://www.w3.org/1999/xlink">
    <!-- Generator: Sketch 60.1 (88133) - https://sketch.com -->
    <title>Group 6@2x</title>
    <desc>Created with Sketch.</desc>
    <defs>
        <polygon id="path-1" points="0 0.0865 36.1722 0.0865 36.1722 19.13225 0 19.13225"></polygon>
    </defs>
    <g id="Widgets" stroke="none" stroke-width="1" fill="none" fill-rule="evenodd">
        <g id="Your-home-v2" transform="translate(-1075.000000, -1441.000000)">
            <g id="Group-6" transform="translate(1075.000000, 1442.000000)">
                <g id="Group-3" transform="translate(0.000000, 9.781400)">
                    <mask id="mask-2" fill="white">
                        <use xlink:href="#path-1"></use>
                    </mask>
                    <g id="Clip-2"></g>
                    <path d="M25.7757,0.379 L25.7757,0.379 C25.3847,0.77 25.3847,1.403 25.7757,1.793 L32.5927,8.611 L0.9997,8.611 C0.4477,8.611 -0.0003,9.059 -0.0003,9.611 C-0.0003,10.163 0.4477,10.611 0.9997,10.611 L32.9237,10.611 L26.1097,17.425 C25.7187,17.816 25.7187,18.449 26.1097,18.839 C26.5007,19.23 27.1327,19.23 27.5237,18.839 L35.8797,10.483 C36.2697,10.094 36.2697,9.46 35.8797,9.069 L27.1897,0.379 C26.7987,-0.011 26.1667,-0.011 25.7757,0.379" id="Fill-1" fill="#FFFFFF" mask="url(#mask-2)"></path>
                </g>
                <path d="M12.5428,27.344 C15.5808,34.082 22.3428,38.782 30.2138,38.782 C40.9238,38.782 49.6048,30.1 49.6048,19.391 C49.6048,8.682 40.9238,-7.10542736e-15 30.2138,-7.10542736e-15 C22.3428,-7.10542736e-15 15.5808,4.698 12.5428,11.438" id="Stroke-4" stroke="#FFFFFF" stroke-width="2" stroke-linecap="round"></path>
            </g>
        </g>
    </g>
</svg>