<svg id="Layer_1" data-name="Layer 1" xmlns="http://www.w3.org/2000/svg" viewBox="0 0 50 50"><defs><style>.cls-1{fill:#1b7aaa;}.cls-2{fill:#155f7c;}.cls-3{fill:#00bff8;stroke:#1b7aaa;stroke-linecap:round;}.cls-3,.cls-4{stroke-miterlimit:10;stroke-width:0.75px;}.cls-4{fill:#fae920;stroke:#d3b902;}.cls-5{fill:#d3b902;}.cls-6{fill:#fff;}</style></defs><title>icons-hoppy</title><path class="cls-1" d="M23.82,6.78,8,17.67a1.41,1.41,0,0,0-.6,1.14v0A1.39,1.39,0,0,0,9.61,20l14.21-9.8L38,20a1.39,1.39,0,0,0,2.18-1.14v0a1.38,1.38,0,0,0-.6-1.14Z"/><polygon class="cls-2" points="15.08 12.81 15.08 6.78 10.82 6.78 10.82 15.75 15.08 12.81"/><polyline class="cls-3" points="17.22 36.17 36.82 36.17 36.82 19.17 23.82 10.17 10.82 19.14 10.82 36.17 13.56 36.17"/><circle class="cls-1" cx="15.51" cy="36.15" r="0.57"/><rect class="cls-4" x="15.26" y="22.26" width="17.82" height="8.03"/><path class="cls-4" d="M15.26,24.54l.19,0a2.15,2.15,0,0,0,2.15-2.15c0-.05,0-.1,0-.15H15.26Z"/><path class="cls-4" d="M33.07,24.56v-2.3H30.94a.77.77,0,0,0,0,.15A2.15,2.15,0,0,0,33.07,24.56Z"/><path class="cls-4" d="M15.45,28.14l-.19,0v2.13H17.6A2.15,2.15,0,0,0,15.45,28.14Z"/><path class="cls-4" d="M33.07,28.14a2.15,2.15,0,0,0-2.15,2.15h2.15Z"/><circle class="cls-5" cx="24.17" cy="26.28" r="3.07"/><path class="cls-6" d="M25.4,27.59a.34.34,0,0,1-.25.33,1.07,1.07,0,0,1-.39.06,1.24,1.24,0,0,1-.51-.12.84.84,0,0,0-.31-.08.5.5,0,0,0-.3.11.27.27,0,0,1-.18.07.31.31,0,0,1-.29-.31.28.28,0,0,1,.13-.24.64.64,0,0,0,.31-.47.59.59,0,0,0-.05-.23h-.31a.22.22,0,1,1,0-.43h.06a.89.89,0,0,1-.15-.45,1.06,1.06,0,0,1,1.13-1,1.26,1.26,0,0,1,.83.24.32.32,0,0,1,.14.27.34.34,0,0,1-.34.34.33.33,0,0,1-.24-.1.4.4,0,0,0-.29-.12.35.35,0,0,0-.38.34.7.7,0,0,0,.13.39l0,.05h.45a.22.22,0,0,1,0,.43H24.3v0a.57.57,0,0,1-.27.46.56.56,0,0,1,.21,0,.78.78,0,0,1,.3.07.66.66,0,0,0,.25.06l.17,0,.1,0A.34.34,0,0,1,25.4,27.59Z"/><circle class="cls-6" cx="47.26" cy="3.56" r="1.05"/></svg>