<svg id="Layer_1" data-name="Layer 1" xmlns="http://www.w3.org/2000/svg" viewBox="0 0 50 50"><defs><style>.cls-1{fill:#1b7aaa;}.cls-2{fill:#155f7c;}.cls-3{fill:#00bff8;stroke:#1b7aaa;}.cls-3,.cls-4,.cls-6,.cls-7{stroke-linecap:round;stroke-width:0.75px;}.cls-3,.cls-7{stroke-miterlimit:10;}.cls-4{fill:#fae920;}.cls-4,.cls-6,.cls-7{stroke:#d3b902;}.cls-4,.cls-6{stroke-linejoin:round;}.cls-5{fill:#d3b902;}.cls-6,.cls-7{fill:none;}</style></defs><title>icons-hoppy</title><path class="cls-1" d="M24.49,10.48,8,21.85A1.46,1.46,0,0,0,7.38,23v0a1.45,1.45,0,0,0,2.28,1.19L24.49,14,39.32,24.25a1.45,1.45,0,0,0,2.28-1.19v0A1.44,1.44,0,0,0,41,21.85Z"/><polygon class="cls-2" points="15.37 16.78 15.37 10.48 10.92 10.48 10.92 19.84 15.37 16.78"/><polyline class="cls-3" points="17.6 41.16 38.06 41.16 38.06 23.42 24.49 14.02 10.92 23.38 10.92 41.16 13.79 41.16"/><circle class="cls-1" cx="15.82" cy="41.13" r="0.59"/><path class="cls-4" d="M30.72,30.65c0-2.82-2.92-5.11-6.52-5.11a8,8,0,0,0-2.89.54l-1.56-1.95L19.67,27a5.16,5.16,0,0,0-1.73,2.26H16.06v3h2a5.5,5.5,0,0,0,2.56,2.62l-.76,2.17,2.06.72.76-2.19a8.13,8.13,0,0,0,4-.22l.84,2.41,2.05-.72-.93-2.66A4.66,4.66,0,0,0,30.72,30.65Z"/><circle class="cls-4" cx="24.42" cy="21.09" r="2.23"/><circle class="cls-5" cx="20.39" cy="29.05" r="0.58"/><line class="cls-6" x1="22.74" y1="27.23" x2="26.16" y2="27.23"/><path class="cls-7" d="M31,30.81a2.06,2.06,0,0,0,2.33-1.68"/></svg>