<svg id="Layer_1" data-name="Layer 1" xmlns="http://www.w3.org/2000/svg" viewBox="0 0 50 50"><defs><style>.cls-1{fill:#fae920;stroke:#d3b902;}.cls-1,.cls-3{stroke-linecap:round;stroke-linejoin:round;stroke-width:0.75px;}.cls-2{fill:#d3b902;}.cls-3{fill:#00bff8;stroke:#1b7aaa;}.cls-4{fill:#155f7c;}</style></defs><title>icons-hoppy</title><path class="cls-1" d="M36.51,25.65h.27V23.86a13.46,13.46,0,1,0-26.92,0v1.79h.27a1.28,1.28,0,0,0-1.28,1.28v.9a1.77,1.77,0,0,0,1.77,1.77H36a1.77,1.77,0,0,0,1.77-1.77v-.9A1.28,1.28,0,0,0,36.51,25.65Z"/><rect class="cls-2" x="15.37" y="10.31" width="3.29" height="10.3" rx="1.64"/><rect class="cls-2" x="21.47" y="8.44" width="3.29" height="10.3" rx="1.64"/><rect class="cls-2" x="27.98" y="10.31" width="3.29" height="10.3" rx="1.64"/><line class="cls-1" x1="10.13" y1="25.65" x2="27.71" y2="25.65"/><line class="cls-1" x1="31.83" y1="25.65" x2="36.51" y2="25.65"/><circle class="cls-2" cx="29.77" cy="25.65" r="0.59"/><path class="cls-3" d="M34.75,32v5.78l-4,2.27a1.76,1.76,0,0,1-1.94-.13l-5.67-4.34L18,39.81A1.75,1.75,0,0,1,16,40l-4-2.25V32Z"/><rect class="cls-4" x="10.13" y="31.96" width="1.86" height="5.59"/><rect class="cls-4" x="34.75" y="31.96" width="1.86" height="5.59"/></svg>