<svg id="Layer_1" data-name="Layer 1" xmlns="http://www.w3.org/2000/svg" viewBox="0 0 50 50"><defs><style>.cls-1{fill:#1b7aaa;}.cls-2{fill:#155f7c;}.cls-3{fill:#00bff8;stroke-miterlimit:10;}.cls-3,.cls-5{stroke:#1b7aaa;}.cls-3,.cls-4,.cls-5{stroke-linecap:round;stroke-width:0.75px;}.cls-4,.cls-5{fill:none;stroke-linejoin:round;}.cls-4{stroke:#fae920;}</style></defs><title>icons-hoppy</title><path class="cls-1" d="M19.82,9.92,4,20.81A1.41,1.41,0,0,0,3.43,22v0a1.39,1.39,0,0,0,2.18,1.14l14.21-9.8L34,23.11A1.39,1.39,0,0,0,36.21,22v0a1.38,1.38,0,0,0-.6-1.14Z"/><polygon class="cls-2" points="11.08 15.95 11.08 9.92 6.82 9.92 6.82 18.88 11.08 15.95"/><polyline class="cls-3" points="13.22 39.31 32.82 39.31 32.82 22.31 19.82 13.31 6.82 22.27 6.82 39.31 9.56 39.31"/><circle class="cls-1" cx="11.51" cy="39.28" r="0.57"/><line class="cls-4" x1="13.92" y1="20.85" x2="13.92" y2="26.11"/><line class="cls-4" x1="16.55" y1="23.48" x2="11.29" y2="23.48"/><line class="cls-4" x1="15.78" y1="32.03" x2="12.06" y2="35.75"/><line class="cls-4" x1="15.78" y1="35.75" x2="12.06" y2="32.03"/><line class="cls-4" x1="29.64" y1="23.48" x2="24.38" y2="23.48"/><line class="cls-4" x1="29.11" y1="34.89" x2="23.86" y2="34.89"/><line class="cls-4" x1="29.11" y1="32.26" x2="23.86" y2="32.26"/><line class="cls-5" x1="30.69" y1="28.62" x2="9.72" y2="28.62"/><line class="cls-5" x1="20.27" y1="36.57" x2="20.27" y2="19.8"/></svg>