<svg xmlns="http://www.w3.org/2000/svg" viewBox="0 0 28.47 28.48"><defs><style>.cls-1{fill:#1b7aaa;}.cls-2{fill:#fff;}.cls-3{fill:none;stroke:#0f3b49;stroke-linecap:round;}.cls-3,.cls-4{stroke-miterlimit:10;}.cls-4{fill:#fae920;stroke:#d3b902;}.cls-5{fill:#d3b902;}</style></defs><g id="Layer_2" data-name="Layer 2"><g id="Layer_1-2" data-name="Layer 1"><circle class="cls-1" cx="14.24" cy="15.52" r="12.09"/><path class="cls-2" d="M18.68,14.36H15a.2.2,0,0,1-.19-.27l1.6-4.38A.2.2,0,0,0,16,9.52l-5.62,7.7a.2.2,0,0,0,.16.32h3.71a.21.21,0,0,1,.19.27l-1.61,4.38a.2.2,0,0,0,.35.19l5.62-7.7A.2.2,0,0,0,18.68,14.36Z"/><path class="cls-3" d="M2.64,11.86A12.32,12.32,0,0,1,26.11,12"/><path class="cls-3" d="M26.06,19.54a12.32,12.32,0,0,1-23.6-.71"/><polyline class="cls-3" points="20.5 10.5 26.51 12.3 27.97 6.21"/><polyline class="cls-3" points="7.97 20.27 1.97 18.47 0.5 24.57"/><circle class="cls-4" cx="14.02" cy="5.25" r="4.75"/><path class="cls-5" d="M15.85,7.07a.52.52,0,0,1-.38.5,1.72,1.72,0,0,1-.6.09,2.16,2.16,0,0,1-.8-.17,1.19,1.19,0,0,0-.47-.13.75.75,0,0,0-.47.17.44.44,0,0,1-.29.1.46.46,0,0,1-.44-.47.45.45,0,0,1,.19-.38,1,1,0,0,0,.48-.73A.84.84,0,0,0,13,5.7h-.48a.34.34,0,0,1-.33-.34A.33.33,0,0,1,12.52,5h.09a1.42,1.42,0,0,1-.23-.7,1.65,1.65,0,0,1,1.76-1.48,2,2,0,0,1,1.28.36.54.54,0,0,1,.22.43.52.52,0,0,1-.9.37.64.64,0,0,0-.45-.19.54.54,0,0,0-.59.53,1.14,1.14,0,0,0,.2.61l0,.07h.7a.33.33,0,0,1,.33.33.34.34,0,0,1-.33.34h-.5v0a.84.84,0,0,1-.42.7,1.12,1.12,0,0,1,.34,0,1.26,1.26,0,0,1,.47.1.8.8,0,0,0,.38.1.83.83,0,0,0,.26,0l.15,0A.53.53,0,0,1,15.85,7.07Z"/></g></g></svg>