<?xml version="1.0" encoding="UTF-8"?>
<svg width="53px" height="37px" viewBox="0 0 53 37" version="1.1" xmlns="http://www.w3.org/2000/svg" xmlns:xlink="http://www.w3.org/1999/xlink">
    <!-- Generator: Sketch 60.1 (88133) - https://sketch.com -->
    <title>Group 17</title>
    <desc>Created with Sketch.</desc>
    <defs>
        <polygon id="path-1" points="0 36.3421 52.135 36.3421 52.135 0.0001 0 0.0001"></polygon>
    </defs>
    <g id="New-Trade-Job-Post" stroke="none" stroke-width="1" fill="none" fill-rule="evenodd">
        <g id="DT---Details" transform="translate(-448.000000, -910.000000)">
            <g id="Group-2" transform="translate(435.000000, 902.000000)">
                <g id="Group-17" transform="translate(13.000000, 8.000000)">
                    <path d="M28.0229,8.0545 C28.0229,8.0545 29.3109,3.6155 31.7279,2.8785 C34.1449,2.1435 37.2709,2.2225 37.9549,6.4515 C38.6369,10.6825 31.8589,15.2535 31.8589,15.2535" id="Stroke-1" stroke="#D3B902" stroke-width="1.5" stroke-linecap="round" stroke-linejoin="round"></path>
                    <mask id="mask-2" fill="white">
                        <use xlink:href="#path-1"></use>
                    </mask>
                    <g id="Clip-4"></g>
                    <polygon id="Fill-3" fill="#00BFF8" mask="url(#mask-2)" points="17.111 35.5931 51.385 35.5931 51.385 12.8331 17.111 12.8331"></polygon>
                    <polygon id="Stroke-5" stroke="#1B7AAA" stroke-width="1.5" stroke-linecap="round" mask="url(#mask-2)" points="17.111 35.5931 51.385 35.5931 51.385 12.8331 17.111 12.8331"></polygon>
                    <path d="M43.0649,16.9402 C40.7219,15.8962 38.9909,16.9652 38.3289,18.7982 C37.6669,20.6312 37.1059,23.8402 37.1059,23.8402 C37.1059,23.8402 41.8419,23.3542 43.4719,22.2452 C45.0929,21.1412 45.4079,17.9842 43.0649,16.9402 Z" id="Stroke-6" stroke="#1A79AA" stroke-width="1.5" stroke-linecap="round" mask="url(#mask-2)"></path>
                    <path d="M37.1059,23.8406 C37.1059,23.8406 32.8429,23.3896 31.3769,22.3586 C29.9179,21.3336 29.6349,18.4016 31.7439,17.4316 C33.8509,16.4616 35.4099,17.4546 36.0049,19.1576 C36.6009,20.8606 37.1059,23.8406 37.1059,23.8406 Z" id="Stroke-7" stroke="#1A79AA" stroke-width="1.5" stroke-linecap="round" mask="url(#mask-2)"></path>
                    <line x1="17.58" y1="24.5017" x2="50.953" y2="24.5017" id="Stroke-8" stroke="#1A79AA" stroke-width="1.5" stroke-linecap="round" mask="url(#mask-2)"></line>
                    <line x1="37.1059" y1="35.5926" x2="37.1059" y2="12.8326" id="Stroke-9" stroke="#1A79AA" stroke-width="1.5" stroke-linecap="round" mask="url(#mask-2)"></line>
                    <path d="M32.1938,29.9431 C33.2748,27.4021 36.8968,24.5021 36.8968,24.5021" id="Stroke-10" stroke="#1A79AA" stroke-width="1.5" stroke-linecap="round" mask="url(#mask-2)"></path>
                    <path d="M36.8969,24.8709 C39.4379,25.9519 42.3389,29.5739 42.3389,29.5739" id="Stroke-11" stroke="#1A79AA" stroke-width="1.5" stroke-linecap="round" mask="url(#mask-2)"></path>
                    <path d="M24.725,0.9168 C24.454,0.7568 24.132,0.7098 23.828,0.7858 L1.813,6.2828 C1.067,6.4708 0.61,7.2238 0.788,7.9728 L3.953,21.2428 C4.135,22.0048 4.903,22.4718 5.663,22.2808 L27.935,16.7428 C28.278,16.6578 28.575,16.4468 28.769,16.1518 C29.396,15.1968 30.842,12.9398 31.67,11.1998 C32.75,8.9328 33.181,6.9408 33.181,6.9408 C33.181,6.9408 32.746,6.3648 32.31,5.9688 C31.873,5.5718 31.172,5.2228 31.172,5.2228 C31.172,5.2228 30.455,6.3948 30.454,7.1198 C30.454,7.8468 30.787,8.6218 30.179,9.4518 C29.573,10.2808 28.098,11.1248 26.802,10.3568 C25.506,9.5888 25.419,8.0348 25.715,7.2848 C26.011,6.5348 26.726,6.2488 27.054,5.6668 C27.382,5.0858 28.247,3.0048 28.247,3.0048 L24.725,0.9168 Z" id="Fill-12" fill="#FAE920" mask="url(#mask-2)"></path>
                    <path d="M24.725,0.9168 C24.454,0.7568 24.132,0.7098 23.828,0.7858 L1.813,6.2828 C1.067,6.4708 0.61,7.2238 0.788,7.9728 L3.953,21.2428 C4.135,22.0048 4.903,22.4718 5.663,22.2808 L27.935,16.7428 C28.278,16.6578 28.575,16.4468 28.769,16.1518 C29.396,15.1968 30.842,12.9398 31.67,11.1998 C32.75,8.9328 33.181,6.9408 33.181,6.9408 C33.181,6.9408 32.746,6.3648 32.31,5.9688 C31.873,5.5718 31.172,5.2228 31.172,5.2228 C31.172,5.2228 30.455,6.3948 30.454,7.1198 C30.454,7.8468 30.787,8.6218 30.179,9.4518 C29.573,10.2808 28.098,11.1248 26.802,10.3568 C25.506,9.5888 25.419,8.0348 25.715,7.2848 C26.011,6.5348 26.726,6.2488 27.054,5.6668 C27.382,5.0858 28.247,3.0048 28.247,3.0048 L24.725,0.9168 Z" id="Stroke-13" stroke="#D3B902" stroke-width="1.5" stroke-linecap="round" stroke-linejoin="round" mask="url(#mask-2)"></path>
                    <path d="M18.8783,13.9461 C18.8653,14.0941 18.8243,14.2211 18.7513,14.3421 C18.6923,14.4411 18.5893,14.5081 18.4373,14.5491 C18.2813,14.5921 18.1543,14.5821 18.0563,14.5241 C17.9443,14.4581 17.8463,14.3641 17.7693,14.2441 C17.6833,14.1111 17.6153,13.9611 17.5653,13.7981 L17.5633,13.7981 C17.5063,13.6221 17.4633,13.4671 17.4283,13.3311 C17.3903,13.1861 17.3553,13.0231 17.3213,12.8441 C17.2893,12.6791 17.2813,12.5161 17.3003,12.3651 C17.3153,12.2231 17.3603,12.0981 17.4353,11.9891 C17.4973,11.8931 17.6063,11.8281 17.7693,11.7851 C17.8223,11.7711 17.8713,11.7641 17.9163,11.7641 C17.9893,11.7641 18.0523,11.7831 18.1113,11.8181 C18.2293,11.8951 18.3253,11.9911 18.4013,12.1131 C18.4903,12.2501 18.5593,12.3961 18.6133,12.5541 C18.6713,12.7241 18.7173,12.8731 18.7513,12.9971 C18.7843,13.1321 18.8203,13.2881 18.8503,13.4641 C18.8803,13.6261 18.8893,13.7891 18.8783,13.9461 M20.4543,12.5791 C20.3623,12.2201 20.2323,11.8791 20.0733,11.5651 C19.9083,11.2471 19.7003,10.9841 19.4543,10.7851 C19.2013,10.5811 18.9043,10.4411 18.5723,10.3721 C18.2443,10.3021 17.8563,10.3251 17.4173,10.4381 C17.0063,10.5471 16.6663,10.7121 16.4053,10.9291 C16.1413,11.1491 15.9383,11.4141 15.8023,11.7141 C15.6703,12.0071 15.5993,12.3351 15.5903,12.6871 C15.5833,13.0271 15.6283,13.3881 15.7253,13.7621 C15.8213,14.1281 15.9513,14.4691 16.1143,14.7751 C16.2823,15.0921 16.4933,15.3531 16.7383,15.5501 C16.9943,15.7581 17.2933,15.8951 17.6283,15.9561 C17.7533,15.9801 17.8823,15.9931 18.0193,15.9931 C18.2523,15.9931 18.5043,15.9571 18.7733,15.8851 C19.1763,15.7811 19.5163,15.6181 19.7863,15.4021 C20.0543,15.1841 20.2553,14.9221 20.3843,14.6251 C20.5123,14.3291 20.5823,14.0031 20.5893,13.6531 C20.5983,13.3121 20.5513,12.9501 20.4543,12.5791" id="Fill-14" fill="#1A79AA" mask="url(#mask-2)"></path>
                    <polygon id="Fill-15" fill="#1A79AA" mask="url(#mask-2)" points="14.9198 6.282 11.9558 17.783 13.5128 17.376 16.4498 5.883"></polygon>
                    <path d="M11.0258,11.3435 C11.0128,11.4795 10.9718,11.5995 10.8978,11.7095 C10.8358,11.8015 10.7278,11.8705 10.5758,11.9105 C10.4168,11.9515 10.2888,11.9445 10.1928,11.8975 C10.0818,11.8375 9.9898,11.7525 9.9148,11.6385 C9.8338,11.5185 9.7678,11.3775 9.7188,11.2235 C9.6658,11.0565 9.6218,10.9035 9.5858,10.7705 C9.5488,10.6255 9.5108,10.4585 9.4758,10.2715 C9.4428,10.0965 9.4338,9.9235 9.4488,9.7625 C9.4638,9.6085 9.5058,9.4775 9.5808,9.3575 C9.6408,9.2575 9.7478,9.1885 9.9088,9.1475 C9.9608,9.1335 10.0068,9.1265 10.0508,9.1265 C10.1258,9.1265 10.1908,9.1455 10.2488,9.1845 C10.3668,9.2635 10.4638,9.3675 10.5478,9.5035 C10.6378,9.6535 10.7128,9.8135 10.7688,9.9805 C10.8288,10.1575 10.8758,10.3105 10.9088,10.4365 C10.9438,10.5715 10.9768,10.7235 11.0058,10.8885 C11.0348,11.0435 11.0408,11.1975 11.0258,11.3435 M12.7438,11.0755 C12.7518,10.7365 12.7078,10.3775 12.6098,10.0065 C12.5148,9.6405 12.3858,9.2935 12.2258,8.9805 C12.0618,8.6555 11.8518,8.3855 11.6008,8.1755 C11.3478,7.9615 11.0488,7.8155 10.7138,7.7395 C10.3818,7.6645 9.9898,7.6855 9.5538,7.7985 C9.1478,7.9065 8.8078,8.0735 8.5418,8.2985 C8.2788,8.5265 8.0788,8.7965 7.9468,9.1045 C7.8168,9.4065 7.7488,9.7415 7.7428,10.1005 C7.7368,10.4505 7.7828,10.8175 7.8808,11.1885 C7.9768,11.5545 8.1068,11.8935 8.2678,12.1945 C8.4328,12.5035 8.6428,12.7585 8.8918,12.9555 C9.1448,13.1505 9.4418,13.2805 9.7758,13.3395 C9.8908,13.3595 10.0108,13.3695 10.1358,13.3695 C10.3768,13.3695 10.6378,13.3325 10.9168,13.2615 C11.3208,13.1545 11.6598,12.9945 11.9268,12.7845 C12.1958,12.5725 12.3998,12.3165 12.5318,12.0275 C12.6628,11.7435 12.7338,11.4225 12.7438,11.0755" id="Fill-16" fill="#1A79AA" mask="url(#mask-2)"></path>
                </g>
            </g>
        </g>
    </g>
</svg>